<svg xmlns="http://www.w3.org/2000/svg">
<defs>
<font id="DaunPenh" horiz-adv-x="0" >
  <font-face 
    font-family="DaunPenh"
    font-weight="400"
    font-stretch="normal"
    units-per-em="2048"
    panose-1="1 1 1 1 1 1 1 1 1 1"
    ascent="1638"
    descent="-410"
    x-height="570.999"
    cap-height="960"
    bbox="-945.998 -1374 1950 1770"
    underline-thickness="10"
    underline-position="-40"
    unicode-range="U+0020-U+25CC"
  />
<missing-glyph horiz-adv-x="890" 
d="M118 -4v902h647v-902h-647zM174 54h534v786h-534v-786zM415 293c1.33301 15.333 2.33301 29.4971 3 42.4971s3.33398 25.167 8.00098 36.5c3.33301 10.667 9 24.167 17 40.5s16.667 35.166 26 56.499c8.66699 21.333 16 40.333 22 57s10.333 31 13 43
c2 8.66699 3.33301 16.5 4 23.5s1 13.167 1 18.5c0 24.667 -5.66699 45.667 -17 63c-5.33301 8.66699 -11.333 16.5 -18 23.5s-14 12.167 -22 15.5c-16.667 8.66699 -33.667 13 -51 13c-22 0 -43.333 -5.33301 -64 -16c-20 -11.333 -30 -24.666 -30 -39.999
c0 -5.33301 1.66699 -10.666 5 -15.999c1.33301 -2 3 -4.16699 5 -6.5l8 -9.5c3.33301 -3.33301 6.16602 -6.33301 8.49902 -9s4.5 -5 6.5 -7c2.66699 -6 4 -12 4 -18c0 -13.333 -3 -21.333 -9 -24c-6.66699 -4.66699 -17 -9.33398 -31 -14.001
c-31.333 3.33301 -47 22.333 -47 57c0 26.667 7.66699 50.334 23 71.001c13.333 18.667 33.333 33.334 60 44.001c12.667 5.33301 25.5 9.33301 38.5 12s26.5 4.33398 40.5 5.00098c18.667 0 40.667 -4 66 -12c12 -3.33301 22.833 -7 32.5 -11s18.5 -8 26.5 -12
c38.667 -24.667 58 -63 58 -115v-5c0 -9.33301 -1.5 -18.833 -4.5 -28.5s-6.83301 -19.5 -11.5 -29.5l-17.5 -27c-5.66699 -8.66699 -11.834 -16.667 -18.501 -24c-6 -8 -13.333 -16.833 -22 -26.5l-29 -31.5c-9.33301 -10 -15.666 -22.833 -18.999 -38.5l-10 -46
c-3.33301 -15 -8 -28 -14 -39s-16 -16.5 -30 -16.5h-11zM466 220.997c10 -10 15 -21.667 15 -35s-5 -24 -15 -32c-11.333 -10 -24.666 -15 -39.999 -15c-14 0 -26.333 5 -37 15c-11.333 8 -17 18.667 -17 32c0 12.667 5.66699 24 17 34c2.66699 2 6.16699 3.83301 10.5 5.5
s8.5 3.16699 12.5 4.5l14 4c15.333 0 28.666 -4.33301 39.999 -13z" />
    <glyph glyph-name=".notdef" horiz-adv-x="890" 
d="M118 -4v902h647v-902h-647zM174 54h534v786h-534v-786zM415 293c1.33301 15.333 2.33301 29.4971 3 42.4971s3.33398 25.167 8.00098 36.5c3.33301 10.667 9 24.167 17 40.5s16.667 35.166 26 56.499c8.66699 21.333 16 40.333 22 57s10.333 31 13 43
c2 8.66699 3.33301 16.5 4 23.5s1 13.167 1 18.5c0 24.667 -5.66699 45.667 -17 63c-5.33301 8.66699 -11.333 16.5 -18 23.5s-14 12.167 -22 15.5c-16.667 8.66699 -33.667 13 -51 13c-22 0 -43.333 -5.33301 -64 -16c-20 -11.333 -30 -24.666 -30 -39.999
c0 -5.33301 1.66699 -10.666 5 -15.999c1.33301 -2 3 -4.16699 5 -6.5l8 -9.5c3.33301 -3.33301 6.16602 -6.33301 8.49902 -9s4.5 -5 6.5 -7c2.66699 -6 4 -12 4 -18c0 -13.333 -3 -21.333 -9 -24c-6.66699 -4.66699 -17 -9.33398 -31 -14.001
c-31.333 3.33301 -47 22.333 -47 57c0 26.667 7.66699 50.334 23 71.001c13.333 18.667 33.333 33.334 60 44.001c12.667 5.33301 25.5 9.33301 38.5 12s26.5 4.33398 40.5 5.00098c18.667 0 40.667 -4 66 -12c12 -3.33301 22.833 -7 32.5 -11s18.5 -8 26.5 -12
c38.667 -24.667 58 -63 58 -115v-5c0 -9.33301 -1.5 -18.833 -4.5 -28.5s-6.83301 -19.5 -11.5 -29.5l-17.5 -27c-5.66699 -8.66699 -11.834 -16.667 -18.501 -24c-6 -8 -13.333 -16.833 -22 -26.5l-29 -31.5c-9.33301 -10 -15.666 -22.833 -18.999 -38.5l-10 -46
c-3.33301 -15 -8 -28 -14 -39s-16 -16.5 -30 -16.5h-11zM466 220.997c10 -10 15 -21.667 15 -35s-5 -24 -15 -32c-11.333 -10 -24.666 -15 -39.999 -15c-14 0 -26.333 5 -37 15c-11.333 8 -17 18.667 -17 32c0 12.667 5.66699 24 17 34c2.66699 2 6.16699 3.83301 10.5 5.5
s8.5 3.16699 12.5 4.5l14 4c15.333 0 28.666 -4.33301 39.999 -13z" />
    <glyph glyph-name="space" unicode=" " horiz-adv-x="500" 
 />
    <glyph glyph-name="exclam" unicode="!" horiz-adv-x="388" 
d="M281 945l7.00098 -6.99512c-8 -48 -15.5 -101.833 -22.5 -161.5s-13.333 -120.334 -19 -182.001s-10.834 -121.834 -15.501 -180.501s-8.66699 -111.334 -12 -158.001l-44 -5c-2 44 -4.66699 96.167 -8 156.5s-7 122.166 -11 185.499s-8.16699 124.666 -12.5 183.999
s-8.5 110 -12.5 152zM120.001 63.0049c0 22 7.5 40.833 22.5 56.5s33.167 23.5 54.5 23.5s39.5 -7.83301 54.5 -23.5s22.5 -34.5 22.5 -56.5s-7.5 -40.833 -22.5 -56.5s-33.167 -23.5 -54.5 -23.5s-39.5 7.83301 -54.5 23.5s-22.5 34.5 -22.5 56.5z" />
    <glyph glyph-name="quotedbl" unicode="&#x22;" horiz-adv-x="572" 
d="M382 662l-38.001 334l129 25l9 -9c-3.33301 -11.333 -7.66602 -31.5 -12.999 -60.5s-10.833 -60.833 -16.5 -95.5s-11 -69.167 -16 -103.5s-8.5 -62.833 -10.5 -85.5zM137.999 662l-38 334l129 25l9 -9c-3.33301 -11.333 -7.83301 -31.5 -13.5 -60.5
s-11.5 -60.833 -17.5 -95.5s-11.5 -69.167 -16.5 -103.5s-8.5 -62.833 -10.5 -85.5z" />
    <glyph glyph-name="numbersign" unicode="#" horiz-adv-x="680" 
d="M497 521l-47 -208l137 3l-19 -65l-133 -3l-49 -213l-65 -5l50 217l-155 -2l-48 -210l-65 -5l48 214l-137 -2l19 64l133 2l47 209l-137 -2l20 64l132 2l49 214l66 5l-50 -218l155 3l48 210l65 5l-49 -214l138 3l-20 -65zM231 309l155 3l40 208l-148 -2z" />
    <glyph glyph-name="dollar" unicode="$" horiz-adv-x="680" 
d="M370 845c38 -0.666992 73.332 -2.8291 105.999 -6.49609s67.334 -10.167 104.001 -19.5c-3.33301 -33.333 -5.5 -63.5 -6.5 -90.5s-1.5 -56.167 -1.5 -87.5l-44 -5c-8 46 -25.333 82.5 -52 109.5s-62 42.5 -106 46.5v-314l86 -39.5
c28.667 -13.667 54.5 -29.834 77.5 -48.501s41.667 -41 56 -67s21.5 -58 21.5 -96c0 -34 -6.66699 -64.667 -20 -92s-31.166 -51.166 -53.499 -71.499s-48.5 -37 -78.5 -50s-61.333 -21.833 -94 -26.5v-92l-58 -6v95c-36 0 -70.167 3.5 -102.5 10.5
s-68.833 15.833 -109.5 26.5c-4 34 -8.33301 66.333 -13 97s-11.334 63 -20.001 97l47 12c8.66699 -25.333 18.5 -48.833 29.5 -70.5s24.333 -40.834 40 -57.501s34 -30.334 55 -41.001s45.5 -17.334 73.5 -20.001v340l-85 39c-28 13.333 -53.167 29.166 -75.5 47.499
s-40.333 40.166 -54 65.499s-20.5 56.333 -20.5 93c0 32.667 6.16699 61.834 18.5 87.501s29.333 47.667 51 66s47 33 76 44s60.5 18.5 94.5 22.5v86l58 6v-90zM498.999 185.005c0 21.333 -3.5 40.335 -10.5 57.002s-16.5 31.667 -28.5 45s-26.167 25.166 -42.5 35.499
s-33.833 20.166 -52.5 29.499v-313c38.667 5.33301 70.667 21 96 47s38 59 38 99zM183.999 664.007c0 -20 3.33301 -38.001 10 -54.001s15.667 -30.333 27 -43s24.833 -24.167 40.5 -34.5s32.5 -19.833 50.5 -28.5v286c-38 -3.33301 -68.833 -15.666 -92.5 -36.999
s-35.5 -51 -35.5 -89z" />
    <glyph glyph-name="percent" unicode="%" horiz-adv-x="1260" 
d="M947 546c37.333 0 69.501 -7.16699 96.501 -21.5s49.167 -33.5 66.5 -57.5s30 -51.833 38 -83.5s12 -64.834 12 -99.501c0 -92 -20.5 -164.167 -61.5 -216.5s-100.833 -78.5 -179.5 -78.5c-37.333 0 -69.5 7 -96.5 21s-49 33 -66 57s-29.5 52 -37.5 84
s-12 65.667 -12 101c0 44.667 5.16699 85.167 15.5 121.5s25.666 67.333 45.999 93s45.333 45.334 75 59.001s64.167 20.5 103.5 20.5zM340.001 971c37.333 0 69.501 -7.16699 96.501 -21.5s49.167 -33.5 66.5 -57.5s30 -51.833 38 -83.5s12 -64.834 12 -99.501
c0 -92 -20.5 -164.167 -61.5 -216.5s-100.833 -78.5 -179.5 -78.5c-37.333 0 -69.5 7 -96.5 21s-49 33 -66 57s-29.5 52 -37.5 84s-12 65.667 -12 101c0 44.667 5.16699 85.167 15.5 121.5s25.666 67.333 45.999 93s45.333 45.334 75 59.001s64.167 20.5 103.5 20.5z
M929.002 500c-15.333 0 -29.999 -3.5 -43.999 -10.5s-26.5 -19 -37.5 -36s-19.667 -39.5 -26 -67.5s-9.5 -63.333 -9.5 -106c0 -47.333 4.16699 -86.833 12.5 -118.5s18.666 -57 30.999 -76s25.833 -32.5 40.5 -40.5s28.667 -12 42 -12c16 0 31 3.5 45 10.5s26.333 19 37 36
s19.167 39.5 25.5 67.5s9.5 63.333 9.5 106c0 47.333 -4 86.833 -12 118.5s-18.167 57 -30.5 76s-26 32.5 -41 40.5s-29.167 12 -42.5 12zM322.003 925c-15.333 0 -29.999 -3.5 -43.999 -10.5s-26.5 -19 -37.5 -36s-19.667 -39.5 -26 -67.5s-9.5 -63.333 -9.5 -106
c0 -47.333 4.16699 -86.833 12.5 -118.5s18.666 -57 30.999 -76s25.833 -32.5 40.5 -40.5s28.667 -12 42 -12c16 0 31 3.5 45 10.5s26.333 19 37 36s19.167 39.5 25.5 67.5s9.5 63.333 9.5 106c0 47.333 -4 86.833 -12 118.5s-18.167 57 -30.5 76s-26 32.5 -41 40.5
s-29.167 12 -42.5 12zM980.004 979l-652 -1033l-48 33l648 1032z" />
    <glyph glyph-name="ampersand" unicode="&#x26;" horiz-adv-x="1045" 
d="M993 536c-28 -2.66699 -51.335 -6.50488 -70.002 -11.5049s-34.5 -11.667 -47.5 -20s-24.5 -19.166 -34.5 -32.499s-20.667 -29.666 -32 -48.999l-44.5 -75c-15 -25.333 -32.167 -50.666 -51.5 -75.999l45.5 -54l39.5 -49c15.333 -19.333 30.333 -37 45 -53
s30.334 -29.833 47.001 -41.5s35.167 -21 55.5 -28s43.5 -10.833 69.5 -11.5l-2 -36c-10.667 0 -23.334 0.166992 -38.001 0.5s-29.667 0.5 -45 0.5c-14.667 0 -28.667 0.166992 -42 0.5s-24 0.5 -32 0.5c-18 0 -33.167 -0.333008 -45.5 -1s-23.5 -1 -33.5 -1
c-21.333 38 -43 71.333 -65 100s-44.667 56 -68 82c-22 -28 -44.833 -54.333 -68.5 -79s-48.834 -46 -75.501 -64s-55 -32.333 -85 -43s-62.333 -16 -97 -16c-35.333 0 -68 6.16699 -98 18.5s-56.167 29.333 -78.5 51s-39.833 46.667 -52.5 75s-19 58.5 -19 90.5
s5.5 63 16.5 93s26 58 45 84s40.667 49.667 65 71s50.166 39.666 77.499 54.999c-30 28.667 -54.167 58.667 -72.5 90s-27.5 68 -27.5 110c0 32.667 6.5 62.167 19.5 88.5s30.5 49 52.5 68s47.333 33.667 76 44s58.667 15.5 90 15.5c26 0 51.167 -4.16699 75.5 -12.5
s45.833 -20.166 64.5 -35.499s33.667 -34 45 -56s17 -47 17 -75c0 -27.333 -5.16699 -51.666 -15.5 -72.999s-24.166 -40.666 -41.499 -57.999s-37.333 -33.333 -60 -48l-71 -44c0.666992 -0.666992 0.666992 -1 0 -1l129.5 -105.5c44.333 -37.667 84.5 -75.5 120.5 -113.5
c26.667 36.667 48.167 70 64.5 100s24.5 56 24.5 78c0 10 -2.66699 18 -8 24s-12.166 10.5 -20.499 13.5s-18 5.16699 -29 6.5s-22.5 2.33301 -34.5 3l2 34c19.333 0 42.833 -0.333008 70.5 -1s56.5 -1 86.5 -1c12.667 0 26.334 0.166992 41.001 0.5s29 0.5 43 0.5
c14.667 0 28.334 0.166992 41.001 0.5s23.667 0.5 33 0.5zM309.998 485.995c-40 -24 -71.8301 -55.1641 -95.4971 -93.4971s-35.5 -79.833 -35.5 -124.5c0 -26.667 4.83301 -51.834 14.5 -75.501s23 -44.334 40 -62.001s37.167 -31.667 60.5 -42s48.666 -15.5 75.999 -15.5
c24 0 47.333 4 70 12s44.167 18.667 64.5 32s39.166 29.166 56.499 47.499s32.666 37.5 45.999 57.5c-20 22 -40.5 43 -61.5 63l-67.5 61.5l-77 65.5l-90 74h-1zM390.001 561.998c38.667 18.667 68.835 41.834 90.502 69.501s32.5 62.5 32.5 104.5
c0 18 -2.83301 35.667 -8.5 53s-13.834 32.833 -24.501 46.5s-23.834 24.5 -39.501 32.5s-33.167 12 -52.5 12c-17.333 0 -33 -3.66699 -47 -11s-25.833 -17 -35.5 -29s-17 -26 -22 -42s-7.5 -32.333 -7.5 -49c0 -22 3 -41.667 9 -59s14.167 -33.5 24.5 -48.5
s22.333 -28.833 36 -41.5s28.5 -25.334 44.5 -38.001z" />
    <glyph glyph-name="quotesingle" unicode="'" horiz-adv-x="359" 
d="M138 662l-38 334l129 25l9 -9c-3.33301 -11.333 -7.83301 -31.5 -13.5 -60.5s-11.5 -60.833 -17.5 -95.5s-11.5 -69.167 -16.5 -103.5s-8.5 -62.833 -10.5 -85.5z" />
    <glyph glyph-name="parenleft" unicode="(" horiz-adv-x="499" 
d="M150 387c0 -62 4.66699 -122.498 14 -181.498s24 -115.333 44 -169s45.833 -104.334 77.5 -152.001s70.167 -91.834 115.5 -132.501l-29 -34c-53.333 40 -99.666 85.167 -138.999 135.5s-71.833 104.166 -97.5 161.499s-44.834 117.333 -57.501 180
s-19 126.334 -19 191.001c0 64 6.16699 127.5 18.5 190.5s31.333 123.5 57 181.5s58.167 112.5 97.5 163.5s86 96.5 140 136.5l29 -34c-45.333 -40.667 -83.833 -85 -115.5 -133s-57.5 -99 -77.5 -153s-34.667 -110.5 -44 -169.5s-14 -119.5 -14 -181.5z" />
    <glyph glyph-name="parenright" unicode=")" horiz-adv-x="499" 
d="M349 389c0 62.667 -4.66699 123.334 -14 182.001s-24.166 114.667 -44.499 168s-46.333 104 -78 152s-69.834 92.333 -114.501 133l29 34c53.333 -40 99.666 -85.167 138.999 -135.5s71.833 -104.333 97.5 -162s44.834 -117.834 57.501 -180.501s19 -126 19 -190
s-6.16699 -127.5 -18.5 -190.5s-31.333 -123.5 -57 -181.5s-58.167 -112.5 -97.5 -163.5s-86 -96.5 -140 -136.5l-29 34c44.667 40.667 82.834 85 114.501 133s57.667 99 78 153s35.166 110.5 44.499 169.5s14 119.5 14 181.5z" />
    <glyph glyph-name="asterisk" unicode="*" horiz-adv-x="527" 
d="M353 938c-16.667 -19.333 -29.9971 -41.6709 -39.9971 -67.0039s-15 -51.666 -15 -78.999l179 46c-6.66699 -25.333 -4 -49 8 -71c-12 -11.333 -17.667 -31 -17 -59l-37 2c-42 32 -75.667 36.333 -101 13l81 -142c-39.333 13.333 -64.333 16.833 -75 10.5
s-21.667 -20.166 -33 -41.499c-5.33301 21.333 -17 34.333 -35 39c10 30 12.167 56.833 6.5 80.5s-13.834 45.167 -24.501 64.5l-119 -151c-10 32.667 -20.333 54.334 -31 65.001s-23.334 18.334 -38.001 23.001c14.667 6 28 13.167 40 21.5s26 17.333 42 27l48.5 29
c16.333 9.66699 17.5 18.834 3.5 27.501l-146 64c21.333 22.667 35.333 40.5 42 53.5s12 30.167 16 51.5c7.33301 -21.333 20.666 -31.333 39.999 -30c3.33301 -22 15.666 -41.833 36.999 -59.5s44 -27.834 68 -30.501l-14 156l53 9c8.66699 -8.66699 19.834 -15 33.501 -19
s28.5 -10 44.5 -18z" />
    <glyph glyph-name="plus" unicode="+" horiz-adv-x="680" 
d="M373 362v-252l-66 -5v257h-246l5 66h241v252l66 5v-257h247l-5 -66h-242z" />
    <glyph glyph-name="comma" unicode="," horiz-adv-x="342" 
d="M81 -143c30 13.333 54.6631 31.167 73.9961 53.5s29 50.833 29 85.5c0 23.333 -6.5 42.5 -19.5 57.5s-32.167 23.167 -57.5 24.5c-7.33301 4 -12.666 10 -15.999 18s-5 15.667 -5 23c0 19.333 7.16699 34.5 21.5 45.5s30.5 16.5 48.5 16.5
c18.667 0 35.334 -4.5 50.001 -13.5s27 -20.5 37 -34.5s17.667 -29.5 23 -46.5s8 -33.833 8 -50.5c0 -26 -4.83301 -50.167 -14.5 -72.5s-22.667 -42.833 -39 -61.5s-35.166 -35 -56.499 -49s-43.666 -25.333 -66.999 -34z" />
    <glyph glyph-name="hyphen" unicode="-" horiz-adv-x="435" 
d="M409 409l-369 -33l-10 10l11 65l366 -3z" />
    <glyph glyph-name="period" unicode="." horiz-adv-x="342" 
d="M90 67c0 11.333 2.16699 22.166 6.5 32.499s10.166 19.333 17.499 27s15.833 13.667 25.5 18s20.167 6.5 31.5 6.5c10.667 0 21 -2.16699 31 -6.5s18.667 -10.333 26 -18s13.166 -16.667 17.499 -27s6.5 -21.166 6.5 -32.499s-2.16699 -22.166 -6.5 -32.499
s-10.166 -19.333 -17.499 -27s-16 -13.667 -26 -18s-20.333 -6.5 -31 -6.5c-11.333 0 -21.833 2.16699 -31.5 6.5s-18.167 10.333 -25.5 18s-13.166 16.667 -17.499 27s-6.5 21.166 -6.5 32.499z" />
    <glyph glyph-name="slash" unicode="/" horiz-adv-x="540" 
d="M379 1001l69 -11l-316 -1131l-68 11z" />
    <glyph glyph-name="zero" unicode="0" horiz-adv-x="680" 
d="M359 850c49.333 0 91.6689 -11.168 127.002 -33.501s64.166 -52.333 86.499 -90s38.833 -81.5 49.5 -131.5s16 -102.333 16 -157c0 -70.667 -6.83301 -134.334 -20.5 -191.001s-33.834 -104.667 -60.501 -144s-59.667 -69.666 -99 -90.999s-84.666 -32 -135.999 -32
c-49.333 0 -91.666 11.167 -126.999 33.5s-64.333 52.333 -87 90s-39.334 81.334 -50.001 131.001s-16 102.167 -16 157.5c0 70.667 6.83301 134.334 20.5 191.001s34 104.667 61 144s60.167 69.666 99.5 90.999s84.666 32 135.999 32zM334.003 795.999
c-22 0 -43.333 -5.66895 -64 -17.002s-38.667 -30.666 -54 -57.999s-27.666 -64.166 -36.999 -110.499s-14 -104.5 -14 -174.5c0 -77.333 5.83301 -141.666 17.5 -192.999s26.5 -92.5 44.5 -123.5s37.667 -53 59 -66s41.666 -19.5 60.999 -19.5c22 0 43.167 5.66699 63.5 17
s38.333 30.666 54 57.999s28 64.166 37 110.499s13.5 104.5 13.5 174.5c0 76.667 -5.83301 140.834 -17.5 192.501s-26.334 93 -44.001 124s-37.167 53 -58.5 66s-41.666 19.5 -60.999 19.5z" />
    <glyph glyph-name="one" unicode="1" horiz-adv-x="680" 
d="M101 740c60.667 14.667 117.167 31 169.5 49s100.833 36.667 145.5 56l10 -8c-2 -16.667 -3.66699 -34.334 -5 -53.001s-2.33301 -37.167 -3 -55.5s-1.16699 -35.666 -1.5 -51.999s-0.5 -30.5 -0.5 -42.5v-502c0 -16 1.16699 -29.833 3.5 -41.5s9 -21.5 20 -29.5
s27.667 -14 50 -18s53.5 -6.33301 93.5 -7l-2 -36c-21.333 -0 -49.5 0.333008 -84.5 1s-80.833 1 -137.5 1s-105.167 -0.333008 -145.5 -1s-69.833 -1 -88.5 -1l-3 34c43.333 0.666992 77.333 3 102 7s43 11.333 55 22s19.5 25.5 22.5 44.5s4.5 43.5 4.5 73.5v546l-197 -29z
" />
    <glyph glyph-name="two" unicode="2" horiz-adv-x="680" 
d="M88 593c0 36 -0.337891 68.333 -1.00488 97s-2.33398 57 -5.00098 85c36.667 24 74.334 42.5 113.001 55.5s80 19.5 124 19.5c34 0 67.333 -4.83301 100 -14.5s62 -24.167 88 -43.5s46.833 -43.166 62.5 -71.499s23.5 -61.166 23.5 -98.499
c0 -36.667 -6.16699 -70.5 -18.5 -101.5s-29 -60.333 -50 -88s-45.167 -54.5 -72.5 -80.5l-86 -79l-201 -185l316 7c12 0 22.833 1 32.5 3s19 6.83301 28 14.5s18 18.667 27 33s18.833 34.166 29.5 59.499l38 -9c-4 -15.333 -8 -31.833 -12 -49.5
s-7.66699 -35.334 -11 -53.001s-6.16602 -34.667 -8.49902 -51s-3.83301 -30.5 -4.5 -42.5h-142c-38 0 -69.667 0.166992 -95 0.5s-46.666 0.5 -63.999 0.5h-103c-20 0 -40.333 -0.166992 -61 -0.5s-40 -0.5 -58 -0.5h-39l-10 21l232 225
c28.667 28 55.834 55.833 81.501 83.5s48.334 55.667 68.001 84s35.167 57.166 46.5 86.499s17 59.666 17 90.999c0 26 -4.5 49.833 -13.5 71.5s-21.5 40.334 -37.5 56.001s-34.667 27.834 -56 36.501s-44 13 -68 13c-25.333 0 -47.833 -4.5 -67.5 -13.5
s-36.667 -21.333 -51 -37s-25.666 -34.5 -33.999 -56.5s-13.5 -46 -15.5 -72z" />
    <glyph glyph-name="three" unicode="3" horiz-adv-x="680" 
d="M79 654c0 23.333 -0.5 44.1699 -1.5 62.5029s-2.5 38.166 -4.5 59.499c40 23.333 79 41.5 117 54.5s80 19.5 126 19.5c31.333 0 62.5 -4 93.5 -12s58.667 -20.333 83 -37s44.166 -37.334 59.499 -62.001s23 -53.667 23 -87c0 -8.66699 -1.5 -20.167 -4.5 -34.5
s-9.66699 -30.666 -20 -48.999s-25.333 -38.5 -45 -60.5s-46.167 -45 -79.5 -69v-3c27.333 -7.33301 53.333 -17.666 78 -30.999s46.167 -29.333 64.5 -48s32.833 -39.834 43.5 -63.501s16 -49.834 16 -78.501c0 -60 -12.833 -112.667 -38.5 -158s-59 -83.333 -100 -114
s-87.167 -53.834 -138.5 -69.501s-103 -23.5 -155 -23.5c-18 0 -36.667 1.16699 -56 3.5s-37 6.83301 -53 13.5s-29.167 15.834 -39.5 27.501s-15.5 26.5 -15.5 44.5c0 17.333 6.66699 32.666 20 45.999s28.333 22 45 26h3c24 -26.667 53.5 -47.5 88.5 -62.5
s70.5 -22.5 106.5 -22.5c32.667 0 61.834 5.66699 87.501 17s47.334 27 65.001 47s31.167 44 40.5 72s14 58.667 14 92c0 34.667 -5.5 64.667 -16.5 90s-26.167 46.5 -45.5 63.5s-42.833 29.667 -70.5 38s-57.834 12.5 -90.501 12.5c-15.333 0 -31.333 -0.666992 -48 -2
s-31.667 -4.66602 -45 -9.99902l-9 45c32.667 7.33301 65.5 16.166 98.5 26.499s63 24.166 90 41.499s49 39.166 66 65.499s25.5 58.833 25.5 97.5c0 22.667 -4.33301 43.334 -13 62.001s-20.334 34.334 -35.001 47.001s-31.667 22.5 -51 29.5s-39.666 10.5 -60.999 10.5
c-25.333 0 -48.333 -4 -69 -12s-38.667 -19.333 -54 -34s-27.5 -32.5 -36.5 -53.5s-14.5 -44.5 -16.5 -70.5l-42 3v50z" />
    <glyph glyph-name="four" unicode="4" horiz-adv-x="680" 
d="M414 152l-396.999 -1.00098l-17 39l127 163l132 174.5l124.5 170l105.5 150.5l47 -13c-3.33301 -30 -6 -60.167 -8 -90.5s-3 -63.5 -3 -99.5v-409l118 2l12 -12l-5 -75h-125v-187c-19.333 -1.33301 -37.5 -2.66602 -54.5 -3.99902s-36.833 -3 -59.5 -5
c1.33301 28 2.16602 50.5 2.49902 67.5s0.5 31.167 0.5 42.5v87zM414.001 638.999l-5 2l-154.5 -200l-155.5 -212l315 5v405z" />
    <glyph glyph-name="five" unicode="5" horiz-adv-x="680" 
d="M140 445c30.667 16 62 27.8311 94 35.498s63 11.5 93 11.5c40 0 77.833 -6.5 113.5 -19.5s66.667 -31.5 93 -55.5s47.333 -53.167 63 -87.5s23.5 -72.833 23.5 -115.5c0 -56.667 -12 -107.5 -36 -152.5s-55.833 -83.167 -95.5 -114.5s-85.167 -55.333 -136.5 -72
s-104 -25 -158 -25c-15.333 0 -32.5 1 -51.5 3s-36.833 6 -53.5 12s-30.667 14.833 -42 26.5s-17 27.167 -17 46.5c0 8 2 16 6 24s9.16699 15.167 15.5 21.5s13.666 11.833 21.999 16.5s16.833 8 25.5 10h5c10.667 -13.333 23.334 -25.166 38.001 -35.499
s30.334 -19.166 47.001 -26.499s33.834 -13 51.501 -17s35.167 -6 52.5 -6c33.333 0 62.666 6.5 87.999 19.5s46.5 30.5 63.5 52.5s29.667 47.167 38 75.5s12.5 58.166 12.5 89.499c0 38 -5.83301 72.333 -17.5 103s-28.334 56.834 -50.001 78.501
s-48.167 38.167 -79.5 49.5s-66.666 17 -105.999 17c-25.333 0 -52 -3.16699 -80 -9.5s-53 -13.5 -75 -21.5l-14 13c8 66.667 19.5 137.167 34.5 211.5l47.5 226.5c30 0 59.5 -0.333008 88.5 -1s60.833 -1 95.5 -1c19.333 0 39.666 0.166992 60.999 0.5l64 1l62 1
c20 0.333008 38.333 0.5 55 0.5l-21 -115l-366 8c-12.667 -49.333 -23 -95.833 -31 -139.5s-15.667 -90.167 -23 -139.5z" />
    <glyph glyph-name="six" unicode="6" horiz-adv-x="680" 
d="M592 930c-65.333 -15.333 -122.003 -37 -170.003 -65s-89 -61 -123 -99s-61.333 -80.5 -82 -127.5s-35.667 -96.833 -45 -149.5c34 24 68.833 41.833 104.5 53.5s70.834 17.5 105.501 17.5s67.667 -5.83301 99 -17.5s58.833 -28.5 82.5 -50.5
s42.334 -49.167 56.001 -81.5s20.5 -68.833 20.5 -109.5c0 -45.333 -7.5 -87.5 -22.5 -126.5s-36 -73 -63 -102s-59.333 -51.667 -97 -68s-79.167 -24.5 -124.5 -24.5c-50 0 -93.5 9.83301 -130.5 29.5s-67.667 46.167 -92 79.5s-42.333 71.833 -54 115.5
s-17.5 89.167 -17.5 136.5c0 83.333 12.333 160.5 37 231.5s60.334 134 107.001 189s103.167 101 169.5 138s141.5 63.5 225.5 79.5zM168.997 439c-1.33301 -10.667 -2.33301 -21.501 -3 -32.501s-1 -22.167 -1 -33.5c0 -31.333 2.83301 -66.666 8.5 -105.999
s16 -76.333 31 -111s35.333 -63.667 61 -87s58.5 -35 98.5 -35c26 0 48.5 5.66699 67.5 17s34.667 26.833 47 46.5s21.666 42.667 27.999 69s9.5 54.5 9.5 84.5c0 32.667 -3.83301 62.667 -11.5 90s-19.334 50.5 -35.001 69.5s-35.667 33.833 -60 44.5
s-53.166 16 -86.499 16c-24.667 0 -51.167 -3 -79.5 -9s-53.166 -13.667 -74.499 -23z" />
    <glyph glyph-name="seven" unicode="7" horiz-adv-x="680" 
d="M65 597l0.00195312 53.0029c0 26 -0.333008 53 -1 81s-2 61 -4 99h128c37.333 0 70.666 -0.166992 99.999 -0.5s55 -0.5 77 -0.5h61h63c18.667 0 37.5 0.166992 56.5 0.5s36.5 0.5 52.5 0.5h38l10 -21l-110 -201.5c-37.333 -69 -72.166 -139 -104.499 -210
s-60.833 -142.833 -85.5 -215.5s-42.334 -145.334 -53.001 -218.001c-12.667 -1.33301 -28.834 -2.33301 -48.501 -3s-42.5 -2.33398 -68.5 -5.00098l-8 11c9.33301 38 22.5 78.667 39.5 122s36.167 87.5 57.5 132.5s44 90.333 68 136l72.5 133l70.5 123.5l61 108
c4.66699 10 1.33398 15 -9.99902 15l-290 -4c-20 0 -37.333 -1 -52 -3s-27.334 -7.5 -38.001 -16.5s-19.5 -22.833 -26.5 -41.5s-12.5 -44.334 -16.5 -77.001z" />
    <glyph glyph-name="eight" unicode="8" horiz-adv-x="680" 
d="M236 482c-52 25.333 -93.333 57.167 -124 95.5s-46 84.5 -46 138.5c0 38.667 7.83301 74.167 23.5 106.5s37 60.166 64 83.499s58.333 41.5 94 54.5s73.5 19.5 113.5 19.5c42 0 78.833 -6.5 110.5 -19.5s58.334 -29.833 80.001 -50.5s37.834 -44 48.501 -70
s16 -52 16 -78c0 -15.333 -2 -31.5 -6 -48.5s-12.667 -35.333 -26 -55s-32.5 -41 -57.5 -64s-58.5 -48.167 -100.5 -75.5c62.667 -26.667 113.167 -61.334 151.5 -104.001s57.5 -94.667 57.5 -156c0 -42 -8.83301 -80.167 -26.5 -114.5s-41.167 -63.666 -70.5 -87.999
s-63 -43.166 -101 -56.499s-77.333 -20 -118 -20c-38 0 -74 4.83301 -108 14.5s-63.833 24 -89.5 43s-46 42.833 -61 71.5s-22.5 62.334 -22.5 101.001c0 14.667 1.66699 31.667 5 51s11.666 40.5 24.999 63.5s33.166 47.667 59.499 74s62.5 54.166 108.5 83.499z
M287 455.001c-40 -28 -70.667 -58.833 -92 -92.5s-32 -73.834 -32 -120.501c0 -28.667 4.5 -55.5 13.5 -80.5s21.833 -46.833 38.5 -65.5s37.167 -33.5 61.5 -44.5s51.5 -16.5 81.5 -16.5c24.667 0 47 4.66699 67 14s36.833 22 50.5 38s24.167 34.5 31.5 55.5
s11 43.167 11 66.5c0 32.667 -6.16699 61.334 -18.5 86.001s-29 46.5 -50 65.5s-45.5 36 -73.5 51s-57.667 29.5 -89 43.5zM373 545.001c40 22.667 70.667 50.998 92 84.998s32 73 32 117c0 30.667 -4.83301 57.334 -14.5 80.001s-22 41.334 -37 56.001s-32 25.5 -51 32.5
s-37.833 10.5 -56.5 10.5c-24 0 -45.833 -4.16699 -65.5 -12.5s-36.167 -19.833 -49.5 -34.5s-23.666 -31.667 -30.999 -51s-11 -40 -11 -62c0 -30 4.16699 -55.667 12.5 -77s20.666 -40.333 36.999 -57s36.333 -31.667 60 -45s51.167 -27.333 82.5 -42z" />
    <glyph glyph-name="nine" unicode="9" horiz-adv-x="680" 
d="M510 335c-34.667 -22.667 -69.4971 -39.3291 -104.497 -49.9961s-69.167 -16 -102.5 -16c-36 0 -70 6.16699 -102 18.5s-60 30.166 -84 53.499s-42.833 51.666 -56.5 84.999s-20.5 71 -20.5 113c0 45.333 7.5 87 22.5 125s36 70.833 63 98.5s59.333 49.167 97 64.5
s79.167 23 124.5 23c53.333 0 98.666 -10.833 135.999 -32.5s67.666 -50 90.999 -85s40.333 -74.667 51 -119s16 -89.5 16 -135.5c0 -90.667 -13 -172.334 -39 -245.001s-62.833 -135.5 -110.5 -188.5s-104.5 -95.833 -170.5 -128.5s-139 -54.334 -219 -65.001l-12 51
c128 26 226.167 74.5 294.5 145.5s110.166 166.833 125.499 287.5zM515.003 387.005c0.666992 0.666992 1 4.66797 1 12.001v38c0 22 -1 46.167 -3 72.5s-5.5 52.666 -10.5 78.999s-12.167 51.833 -21.5 76.5s-21.333 46.5 -36 65.5s-32.5 34.333 -53.5 46
s-45.5 17.5 -73.5 17.5c-26 0 -48.5 -5.16699 -67.5 -15.5s-35 -24.5 -48 -42.5s-22.667 -39.5 -29 -64.5s-9.5 -52.5 -9.5 -82.5c0 -33.333 3.83301 -64 11.5 -92s19.334 -52.167 35.001 -72.5s35.667 -36.333 60 -48s53.166 -17.5 86.499 -17.5
c17.333 0 39 2.16699 65 6.5s57 11.5 93 21.5z" />
    <glyph glyph-name="colon" unicode=":" horiz-adv-x="342" 
d="M120 509c0 11.333 2.16699 22.166 6.5 32.499s10.166 19.333 17.499 27s15.833 13.667 25.5 18s20.167 6.5 31.5 6.5c10.667 0 21 -2.16699 31 -6.5s18.667 -10.333 26 -18s13.166 -16.667 17.499 -27s6.5 -21.166 6.5 -32.499s-2.16699 -22.166 -6.5 -32.499
s-10.166 -19.333 -17.499 -27s-16 -13.667 -26 -18s-20.333 -6.5 -31 -6.5c-11.333 0 -21.833 2.16699 -31.5 6.5s-18.167 10.333 -25.5 18s-13.166 16.667 -17.499 27s-6.5 21.166 -6.5 32.499zM120 67c0 11.333 2.16699 22.166 6.5 32.499s10.166 19.333 17.499 27
s15.833 13.667 25.5 18s20.167 6.5 31.5 6.5c10.667 0 21 -2.16699 31 -6.5s18.667 -10.333 26 -18s13.166 -16.667 17.499 -27s6.5 -21.166 6.5 -32.499s-2.16699 -22.166 -6.5 -32.499s-10.166 -19.333 -17.499 -27s-16 -13.667 -26 -18s-20.333 -6.5 -31 -6.5
c-11.333 0 -21.833 2.16699 -31.5 6.5s-18.167 10.333 -25.5 18s-13.166 16.667 -17.499 27s-6.5 21.166 -6.5 32.499z" />
    <glyph glyph-name="semicolon" unicode=";" horiz-adv-x="342" 
d="M106 -143c30 13.333 54.6631 31.167 73.9961 53.5s29 50.833 29 85.5c0 23.333 -6.5 42.5 -19.5 57.5s-32.167 23.167 -57.5 24.5c-7.33301 4 -12.666 10 -15.999 18s-5 15.667 -5 23c0 19.333 7.16699 34.5 21.5 45.5s30.5 16.5 48.5 16.5
c18.667 0 35.334 -4.5 50.001 -13.5s27 -20.5 37 -34.5s17.667 -29.5 23 -46.5s8 -33.833 8 -50.5c0 -26 -4.83301 -50.167 -14.5 -72.5s-22.667 -42.833 -39 -61.5s-35.166 -35 -56.499 -49s-43.666 -25.333 -66.999 -34zM119.996 509.001
c0 11.333 2.16699 22.166 6.5 32.499s10.166 19.333 17.499 27s15.833 13.667 25.5 18s20.167 6.5 31.5 6.5c10.667 0 21 -2.16699 31 -6.5s18.667 -10.333 26 -18s13.166 -16.667 17.499 -27s6.5 -21.166 6.5 -32.499s-2.16699 -22.166 -6.5 -32.499
s-10.166 -19.333 -17.499 -27s-16 -13.667 -26 -18s-20.333 -6.5 -31 -6.5c-11.333 0 -21.833 2.16699 -31.5 6.5s-18.167 10.333 -25.5 18s-13.166 16.667 -17.499 27s-6.5 21.166 -6.5 32.499z" />
    <glyph glyph-name="less" unicode="&#x3c;" horiz-adv-x="680" 
d="M65 310l545 271l7 -64l-486 -231v-2l486 -231l-7 -64l-550 270z" />
    <glyph glyph-name="equal" unicode="=" horiz-adv-x="680" 
d="M60 253l5 66h555l-5 -66h-555zM60 472l5 66h555l-5 -66h-555z" />
    <glyph glyph-name="greater" unicode="&#x3e;" horiz-adv-x="680" 
d="M615 260l-545 -271l-7 64l486 231v2l-486 231l7 64l550 -269z" />
    <glyph glyph-name="question" unicode="?" horiz-adv-x="544" 
d="M305 249c-49.333 37.333 -85.5 70.5039 -108.5 99.5039s-34.5 58.833 -34.5 89.5c0 19.333 4.33301 37.166 13 53.499s19.834 31.666 33.501 45.999s28.5 27.666 44.5 39.999l46 35.5l40.5 31.5c13 9.66699 24.167 19.667 33.5 30s16.833 22.333 22.5 36
s8.5 30.167 8.5 49.5c0 28 -9 50.167 -27 66.5s-41 24.5 -69 24.5c-30 0 -54.667 -7 -74 -21s-37.666 -33 -54.999 -57h-6c-14 5.33301 -28 14.166 -42 26.499s-21 26.166 -21 41.499c0 16.667 5.66699 31.167 17 43.5s25 22.833 41 31.5s32.833 15.167 50.5 19.5
s32.834 6.5 45.501 6.5c26.667 0 54.167 -7 82.5 -21s54.166 -32.167 77.499 -54.5s42.5 -47.333 57.5 -75s22.5 -55.167 22.5 -82.5c0 -21.333 -4.5 -40.333 -13.5 -57s-20.5 -32.167 -34.5 -46.5s-29.333 -27.666 -46 -39.999s-32.334 -24.5 -47.001 -36.5
c-28 -21.333 -50.167 -41 -66.5 -59s-24.5 -39.667 -24.5 -65c0 -24 5.66699 -46 17 -66s26.666 -39.667 45.999 -59zM188 63.0039c0 22 7.5 40.833 22.5 56.5s33.167 23.5 54.5 23.5s39.5 -7.83301 54.5 -23.5s22.5 -34.5 22.5 -56.5s-7.5 -40.833 -22.5 -56.5
s-33.167 -23.5 -54.5 -23.5s-39.5 7.83301 -54.5 23.5s-22.5 34.5 -22.5 56.5z" />
    <glyph glyph-name="at" unicode="@" horiz-adv-x="1197" 
d="M842 576c-12 -38.667 -23.165 -79.9932 -33.498 -123.993s-19.333 -87.333 -27 -130s-13.667 -83 -18 -121s-6.5 -70.333 -6.5 -97c0 -21.333 5 -36 15 -44s22.333 -12 37 -12c42.667 0 79.667 12.167 111 36.5s57.333 54.833 78 91.5s36.167 76 46.5 118
s15.5 80.667 15.5 116c0 54 -9.5 103.667 -28.5 149s-45.5 84.166 -79.5 116.499s-74.333 57.666 -121 75.999s-97.667 27.5 -153 27.5c-78 0 -148.667 -14 -212 -42s-117.333 -66.167 -162 -114.5s-79.167 -104.833 -103.5 -169.5s-36.5 -133.334 -36.5 -206.001
c0 -69.333 11.167 -134 33.5 -194s54 -112.333 95 -157s90.667 -79.834 149 -105.501s123.5 -38.5 195.5 -38.5c40 0 81.167 4.66699 123.5 14s80.833 23.666 115.5 42.999l21 -39c-44 -30 -93 -52 -147 -66s-108 -21 -162 -21c-77.333 0 -147.833 13.333 -211.5 40
s-118.5 63.5 -164.5 110.5s-81.667 102.5 -107 166.5s-38 133 -38 207c0 58 7.16699 114 21.5 168s34.666 104.5 60.999 151.5s58.333 89.833 96 128.5s79.834 71.834 126.501 99.501s97.334 49 152.001 64s112.334 22.5 173.001 22.5c62 0 119.667 -10.667 173 -32
s99.5 -50.833 138.5 -88.5s69.5 -82.334 91.5 -134.001s33 -107.834 33 -168.501c0 -52.667 -8.66699 -105 -26 -157s-42.333 -98.5 -75 -139.5s-72.167 -74.333 -118.5 -100s-98.5 -38.5 -156.5 -38.5c-25.333 0 -46.833 5.83301 -64.5 17.5s-26.834 31.5 -27.501 59.5
c0 12 0.666992 27.667 2 47s3.66602 39.666 6.99902 60.999l-2 2c-58.667 -66.667 -106.667 -114.667 -144 -144s-63.333 -44 -78 -44s-28.334 4.66699 -41.001 14s-23.834 21.666 -33.501 36.999s-17.167 32.833 -22.5 52.5s-8 40.167 -8 61.5
c0 49.333 7.33301 94.333 22 135s33.5 77.167 56.5 109.5s48.333 60.5 76 84.5s54.5 44 80.5 60s49.667 27.833 71 35.5s36.666 11.5 45.999 11.5c10.667 0 21.834 -1.16699 33.501 -3.5s23.167 -5.16602 34.5 -8.49902c24.667 3.33301 49 7.33301 73 12zM729.002 486.007
c-6 4 -15.834 7.83301 -29.501 11.5s-27.167 5.5 -40.5 5.5c-28 0 -54.333 -9.33301 -79 -28s-46.5 -42.667 -65.5 -72s-34 -62 -45 -98s-16.5 -71.333 -16.5 -106c0 -8 0.5 -17.667 1.5 -29s3.16699 -22 6.5 -32s8 -18.667 14 -26s14.333 -11 25 -11
c13.333 0 35.333 10.833 66 32.5s68 56.5 112 104.5c6.66699 44 14.334 87.167 23.001 129.5s18 81.833 28 118.5z" />
    <glyph glyph-name="A" unicode="A" horiz-adv-x="962" 
d="M618 355l-332.998 0.000976562l-77 -197c-13.333 -38 -20 -62 -20 -72c0 -17.333 8.16699 -29.333 24.5 -36s45.5 -11 87.5 -13l-3 -36c-24.667 0 -52.334 0.333008 -83.001 1s-61 1 -91 1c-24.667 0 -50.167 -0.333008 -76.5 -1s-51.833 -1 -76.5 -1l-2 34
c26 2 47.333 5.16699 64 9.5s31.167 12.333 43.5 24s24 27.667 35 48s23.833 47.5 38.5 81.5l277 677c8 20 16.5 37.5 25.5 52.5s16.833 31.167 23.5 48.5l63 8c7.33301 -32 15.166 -61.333 23.499 -88l23.5 -73l225 -652c10 -29.333 19 -52.333 27 -69
s17.333 -29.5 28 -38.5s24.167 -15.167 40.5 -18.5s37.5 -6 63.5 -8l-3 -36c-28 0 -58.833 0.333008 -92.5 1s-67.5 1 -101.5 1c-28 0 -56.333 -0.333008 -85 -1s-57 -1 -85 -1l-3 34c37.333 2.66699 64 7.16699 80 13.5s24 18.166 24 35.499
c0 7.33301 -1.33301 15.833 -4 25.5s-6 20.5 -10 32.5zM308.002 413.001h291l-131 396h-3z" />
    <glyph glyph-name="B" unicode="B" horiz-adv-x="847" 
d="M57 960c10.667 0 23.334 -0.162109 38.001 -0.495117s30 -0.5 46 -0.5c16.667 0 33.667 -0.166992 51 -0.5s34.333 -0.5 51 -0.5c26.667 0 56.667 1.66699 90 5s68.333 5 105 5c42 0 82.333 -3.83301 121 -11.5s72.834 -20.334 102.501 -38.001
s53.167 -40.834 70.5 -69.501s26 -64 26 -106c0 -34.667 -6 -64.167 -18 -88.5s-27.167 -44.833 -45.5 -61.5s-38.333 -30.167 -60 -40.5s-42.167 -18.5 -61.5 -24.5v-4c74.667 -11.333 132.334 -38.333 173.001 -81s61 -99.334 61 -170.001
c0 -51.333 -10.833 -94.833 -32.5 -130.5s-50.334 -64.834 -86.001 -87.501s-76.334 -39.167 -122.001 -49.5s-92.5 -15.5 -140.5 -15.5c-15.333 0 -31.5 0.666992 -48.5 2l-51.5 4l-52 4c-17.333 1.33301 -33.333 2 -48 2c-13.333 0 -27.5 -0.166992 -42.5 -0.5
s-30.167 -0.5 -45.5 -0.5s-30 -0.166992 -44 -0.5s-26.333 -0.5 -37 -0.5l-3 34c28 2 50.667 5 68 9s30.666 10.667 39.999 20s15.5 21.833 18.5 37.5s4.5 36.167 4.5 61.5v673c0 16 -1.33301 29.333 -4 40s-8.5 19.5 -17.5 26.5s-22.167 12.167 -39.5 15.5
s-40.333 5.66602 -69 6.99902zM301 153.005c0 -22 1.16699 -40.167 3.5 -54.5s8 -25.5 17 -33.5s22.333 -13.5 40 -16.5s42.167 -4.5 73.5 -4.5c70 0 126.167 17.667 168.5 53s63.5 87.666 63.5 156.999c0 40.667 -7 75.834 -21 105.501s-33.5 54 -58.5 73s-55 33 -90 42
s-73.833 13.5 -116.5 13.5h-80v-335zM301 539.005h82.998c82.667 0 143.167 15.833 181.5 47.5s57.5 78.5 57.5 140.5c0 22.667 -3.16699 45.167 -9.5 67.5s-17.666 42.5 -33.999 60.5s-39.166 32.667 -68.499 44s-67 17 -113 17c-24 0 -42.667 -1.5 -56 -4.5
s-23 -7.33301 -29 -13s-9.5 -12.667 -10.5 -21s-1.5 -17.833 -1.5 -28.5v-310z" />
    <glyph glyph-name="C" unicode="C" horiz-adv-x="1013" 
d="M207 498c0 -64 8.00195 -124.168 24.002 -180.501s40.167 -105.333 72.5 -147s72.833 -74.667 121.5 -99s106 -36.5 172 -36.5c36 0 70.5 5 103.5 15s62.167 26.333 87.5 49c24 21.333 44.833 47.5 62.5 78.5s35.167 67.5 52.5 109.5l40 -10
c-11.333 -44 -20.333 -85.333 -27 -124s-12.334 -80 -17.001 -124c-52.667 -15.333 -104.834 -27.333 -156.501 -36s-103.5 -13 -155.5 -13c-75.333 0 -144.833 11.667 -208.5 35s-118.667 56.333 -165 99s-82.5 94.167 -108.5 154.5s-39 127.5 -39 201.5
c0 85.333 15.667 159.833 47 223.5s73.833 116.834 127.5 159.501s115.834 74.5 186.501 95.5s145.334 31.5 224.001 31.5c40.667 0 84.167 -3 130.5 -9s89.5 -14.333 129.5 -25c-4 -42.667 -6.5 -83.167 -7.5 -121.5s-1.5 -78.833 -1.5 -121.5l-42 -4
c-2.66699 39.333 -10.5 73.5 -23.5 102.5s-30.333 53 -52 72s-46.834 33 -75.501 42s-60 13.5 -94 13.5c-66.667 0 -125.334 -10.5 -176.001 -31.5s-93.167 -50.333 -127.5 -88s-60.333 -83 -78 -136s-26.5 -111.5 -26.5 -175.5z" />
    <glyph glyph-name="D" unicode="D" horiz-adv-x="1080" 
d="M53 960c24 0 53.167 -0.333984 87.5 -1.00098s68.5 -1 102.5 -1s69.667 1.83301 107 5.5s73.333 5.5 108 5.5c72 0 141.333 -7.66699 208 -23s125.834 -40.666 177.501 -75.999s93 -81.5 124 -138.5s46.5 -126.833 46.5 -209.5c0 -85.333 -15.333 -161 -46 -227
s-72 -121.667 -124 -167s-112.5 -79.833 -181.5 -103.5s-141.833 -35.5 -218.5 -35.5c-34 0 -70.333 2.16699 -109 6.5s-75 6.5 -109 6.5c-13.333 0 -27.5 -0.166992 -42.5 -0.5s-30.167 -0.5 -45.5 -0.5s-30 -0.166992 -44 -0.5s-26.333 -0.5 -37 -0.5l-3 34
c28 2 50.667 5 68 9s30.666 10.667 39.999 20s15.5 21.833 18.5 37.5s4.5 36.167 4.5 61.5v669c0 18 -1.33301 32.667 -4 44s-8.5 20.5 -17.5 27.5s-22.5 12 -40.5 15s-42 5.16699 -72 6.5zM301 177.999c0 -19.333 0.666992 -37.165 2 -53.498s6.33301 -30.5 15 -42.5
s22.667 -21.333 42 -28s47 -10 83 -10c64.667 0 123.5 10.167 176.5 30.5s98.5 49.833 136.5 88.5s67.5 85.667 88.5 141s31.5 117.666 31.5 186.999c0 70.667 -10.833 132.5 -32.5 185.5s-51.5 97.333 -89.5 133s-83 62.5 -135 80.5s-108.333 27 -169 27
c-21.333 0 -41 -1.33301 -59 -4s-33.667 -6.33398 -47 -11.001s-23.833 -9.66699 -31.5 -15s-11.5 -11 -11.5 -17v-692z" />
    <glyph glyph-name="E" unicode="E" horiz-adv-x="816" 
d="M300 163c0 -22.667 1.49707 -41.3359 4.49707 -56.0029s9 -26.167 18 -34.5s21.667 -14.166 38 -17.499s38.166 -5 65.499 -5h73c38.667 0 70.167 3.16699 94.5 9.5s44.833 17 61.5 32s31.5 34.833 44.5 59.5s27.167 55 42.5 91l39 -9
c-5.33301 -19.333 -10.333 -40 -15 -62s-9 -43.667 -13 -65s-7.33301 -41.333 -10 -60s-4.33398 -34 -5.00098 -46c-132.667 0 -240.167 0.333008 -322.5 1s-143.833 1 -184.5 1c-12 0 -26.167 -0.166992 -42.5 -0.5s-33.166 -0.5 -50.499 -0.5
s-34.166 -0.166992 -50.499 -0.5s-30.166 -0.5 -41.499 -0.5l-3 34c30.667 2 55.334 5.16699 74.001 9.5s33 11 43 20s16.667 21.333 20 37s5 36.167 5 61.5v673c0 16 -1.5 29.333 -4.5 40s-9 19.5 -18 26.5s-22 12.167 -39 15.5s-39.833 5.66602 -68.5 6.99902l3 36
c12.667 0 27.167 -0.166992 43.5 -0.5s32.833 -0.5 49.5 -0.5c17.333 0 34.166 -0.166992 50.499 -0.5s31.5 -0.5 45.5 -0.5c26 0 80.667 0.333008 164 1s189.333 1 318 1c-4 -34 -7 -69.667 -9 -107s-3.33301 -77 -4 -119l-40 -1c-6 34.667 -12.667 63.334 -20 86.001
s-17.666 40.834 -30.999 54.501s-30.666 23.334 -51.999 29.001s-49 8.5 -83 8.5h-143c-20 0 -32.833 -2 -38.5 -6s-8.5 -14.333 -8.5 -31v-346l338 10l7 -7l-2 -83c-60.667 5.33301 -120.5 9 -179.5 11s-113.5 3.66699 -163.5 5v-301z" />
    <glyph glyph-name="F" unicode="F" horiz-adv-x="744" 
d="M50 960c14 0 29.498 -0.162109 46.498 -0.495117s34.167 -0.5 51.5 -0.5s34.666 -0.166992 51.999 -0.5s33 -0.5 47 -0.5c26 0 77.167 0.333008 153.5 1s180.833 1 313.5 1c-4 -34 -7 -70.333 -9 -109s-3.33301 -79 -4 -121l-40 -1c-6 35.333 -12.667 64.666 -20 87.999
s-17.666 42 -30.999 56s-30.666 23.833 -51.999 29.5s-49 8.5 -83 8.5h-128c-20 0 -32.833 -2 -38.5 -6s-8.5 -14.333 -8.5 -31v-367l323 10l7 -7l-2 -84c-60.667 5.33301 -118 9.16602 -172 11.499s-106 4.16602 -156 5.49902v-316c0 -16 1.5 -29.667 4.5 -41
s10 -20.5 21 -27.5s27.167 -12.333 48.5 -16s50.666 -5.83398 87.999 -6.50098l-2 -36c-13.333 0 -30 0.166992 -50 0.5s-41 0.5 -63 0.5s-43.333 0.166992 -64 0.5s-38 0.5 -52 0.5c-11.333 0 -24.666 -0.166992 -39.999 -0.5s-31 -0.5 -47 -0.5
s-31.667 -0.166992 -47 -0.5s-28.666 -0.5 -39.999 -0.5l-3 34c28 2 50.5 5.16699 67.5 9.5s30.167 11.166 39.5 20.499s15.666 21.833 18.999 37.5s5 35.834 5 60.501v673c0 16 -1.5 29.333 -4.5 40s-9.16699 19.5 -18.5 26.5s-23.166 12.167 -41.499 15.5
s-42.833 5.66602 -73.5 6.99902z" />
    <glyph glyph-name="G" unicode="G" horiz-adv-x="1061" 
d="M881 696c-2.66699 39.333 -11.501 73.6738 -26.501 103.007s-34.5 53.666 -58.5 72.999s-52 33.666 -84 42.999s-66.333 14 -103 14c-68.667 0 -128.334 -10.5 -179.001 -31.5s-92.667 -50.333 -126 -88s-58.166 -83 -74.499 -136s-24.5 -111.5 -24.5 -175.5
s8.33301 -124.167 25 -180.5s41.667 -105.333 75 -147s75.5 -74.667 126.5 -99s110.5 -36.5 178.5 -36.5c9.33301 0 24.833 1 46.5 3s43.834 5.66699 66.501 11s42.5 12.333 59.5 21s25.5 19.667 25.5 33v198c0 16 -2 29.333 -6 40s-12 19.5 -24 26.5
s-29.167 12.167 -51.5 15.5s-51.833 5.66602 -88.5 6.99902l2 36c16 0 33.5 -0.166992 52.5 -0.5s37.833 -0.5 56.5 -0.5c19.333 0 38 -0.166992 56 -0.5s34.333 -0.5 49 -0.5c13.333 0 27.333 0.166992 42 0.5s29 0.5 43 0.5s27.333 0.166992 40 0.5s24 0.5 34 0.5l3 -34
c-19.333 -2 -35 -5 -47 -9s-21.5 -10.667 -28.5 -20s-11.667 -21.833 -14 -37.5s-3.5 -35.834 -3.5 -60.501v-64c0 -32 0.333008 -62.833 1 -92.5s2.66699 -53.834 6 -72.501c-54 -14.667 -109.167 -27.667 -165.5 -39s-110.833 -17 -163.5 -17
c-78 0 -149.833 11.667 -215.5 35s-122.334 56.333 -170.001 99s-84.834 94.167 -111.501 154.5s-40 127.5 -40 201.5c0 85.333 15.167 159.833 45.5 223.5s71.833 116.834 124.5 159.501s114.334 74.5 185.001 95.5s146.667 31.5 228 31.5c20.667 0 43.334 -1 68.001 -3
s49.5 -4.83301 74.5 -8.5s49.667 -7.83398 74 -12.501s46.5 -9.66699 66.5 -15c-4 -42.667 -6.16699 -82.834 -6.5 -120.501s-0.5 -77.834 -0.5 -120.501z" />
    <glyph glyph-name="H" unicode="H" horiz-adv-x="1135" 
d="M835 535l-0.000976562 300.001c0 16 -1.16699 29.333 -3.5 40s-7.66602 19.5 -15.999 26.5s-20.5 12.167 -36.5 15.5s-38 5.66602 -66 6.99902l2 36c10.667 0 23.5 -0.166992 38.5 -0.5s30.833 -0.5 47.5 -0.5c17.333 0 35 -0.166992 53 -0.5s35 -0.5 51 -0.5
c12.667 0 26.667 0.166992 42 0.5s30.333 0.5 45 0.5c15.333 0 29.666 0.166992 42.999 0.5s24.666 0.5 33.999 0.5l2 -34c-26 -2 -46.833 -5.16699 -62.5 -9.5s-27.834 -11 -36.501 -20s-14.5 -21.5 -17.5 -37.5s-4.5 -36.333 -4.5 -61v-673c0 -16 1.33301 -29.333 4 -40
s8.16699 -19.5 16.5 -26.5s20.833 -12.167 37.5 -15.5s39 -5.66602 67 -6.99902l-2 -36c-10.667 0 -23.667 0.166992 -39 0.5s-31.666 0.5 -48.999 0.5s-35 0.166992 -53 0.5s-35 0.5 -51 0.5c-13.333 0 -27.5 -0.166992 -42.5 -0.5s-29.833 -0.5 -44.5 -0.5
s-28.5 -0.166992 -41.5 -0.5s-24.167 -0.5 -33.5 -0.5l-3 34c26 2 46.667 5.16699 62 9.5s27.333 11 36 20s14.334 21.333 17.001 37s4 36.167 4 61.5v314h-535v-351c0 -16 1.16699 -29.333 3.5 -40s7.66602 -19.5 15.999 -26.5s20.5 -12.167 36.5 -15.5
s38 -5.66602 66 -6.99902l-2 -36c-10.667 0 -23.5 0.166992 -38.5 0.5s-31 0.666016 -48 0.999023l-52.5 1c-18 0.333008 -35 0.5 -51 0.5c-12.667 0 -26.667 -0.166992 -42 -0.5s-30.666 -0.5 -45.999 -0.5c-14.667 0 -28.667 -0.166992 -42 -0.5
s-24.666 -0.5 -33.999 -0.5l-2 34c26 2 46.833 5.16699 62.5 9.5s27.834 11 36.501 20s14.5 21.333 17.5 37s4.5 36.167 4.5 61.5v672c0 16 -1.33301 29.333 -4 40s-8.16699 19.5 -16.5 26.5s-20.833 12.167 -37.5 15.5s-39 5.66602 -67 6.99902l2 36h44
c16.667 0 33.5 -0.166992 50.5 -0.5s33.5 -0.5 49.5 -0.5h46h42c15.333 0 30.5 0.166992 45.5 0.5s29.167 0.5 42.5 0.5h34l3 -34c-26 -2 -46.667 -5.16699 -62 -9.5s-27.333 -11 -36 -20s-14.334 -21.5 -17.001 -37.5s-4 -36.333 -4 -61v-263h535z" />
    <glyph glyph-name="I" unicode="I" horiz-adv-x="485" 
d="M61 34c26 2 46.9941 5.16797 62.9941 9.50098s28.5 11 37.5 20s15.167 21.333 18.5 37s5 36.167 5 61.5v673c0 16 -1.33301 29.333 -4 40s-8.5 19.5 -17.5 26.5s-21.833 12.167 -38.5 15.5s-38.667 5.66602 -66 6.99902l2 36c10.667 0 23.667 -0.166992 39 -0.5
s31.666 -0.5 48.999 -0.5c18 0 36.167 -0.166992 54.5 -0.5s35.5 -0.5 51.5 -0.5c12.667 0 26.834 0.166992 42.501 0.5s31.167 0.5 46.5 0.5s29.833 0.166992 43.5 0.5s25.167 0.5 34.5 0.5l4 -34c-26 -2 -47.167 -5.16699 -63.5 -9.5s-29.166 -11 -38.499 -20
s-15.666 -21.333 -18.999 -37s-5 -35.834 -5 -60.501v-674c0 -16 1.33301 -29.333 4 -40s8.33398 -19.5 17.001 -26.5s21.334 -12.167 38.001 -15.5s39 -5.66602 67 -6.99902v-36c-10.667 0 -24 0.166992 -40 0.5s-33 0.5 -51 0.5c-17.333 0 -35 0.166992 -53 0.5
s-35 0.5 -51 0.5c-13.333 0 -27.666 -0.166992 -42.999 -0.5s-30.666 -0.5 -45.999 -0.5s-29.833 -0.166992 -43.5 -0.5s-25.167 -0.5 -34.5 -0.5z" />
    <glyph glyph-name="J" unicode="J" horiz-adv-x="460" 
d="M52 960c10.667 0 23.6689 -0.161133 39.002 -0.494141s31.666 -0.5 48.999 -0.5s35.166 -0.166992 53.499 -0.5s35.5 -0.5 51.5 -0.5h42c16 0 31.833 0.166992 47.5 0.5s30.5 0.5 44.5 0.5h38l3 -34c-26.667 -2 -48.334 -5.16699 -65.001 -9.5s-29.834 -11 -39.501 -20
s-16.167 -21.5 -19.5 -37.5s-5 -36.333 -5 -61v-404c0 -28.667 0.166992 -57.834 0.5 -87.501s0.5 -59.5 0.5 -89.5c0 -28.667 0.166992 -54.834 0.5 -78.501s0.5 -43.834 0.5 -60.501v-30c0 -64.667 -9 -121 -27 -169s-42 -88 -72 -120
c-24.667 -28 -54.334 -48.833 -89.001 -62.5s-71 -20.5 -109 -20.5c-11.333 0 -22.833 1.16699 -34.5 3.5s-22.5 6.33301 -32.5 12s-18.167 13.167 -24.5 22.5s-9.5 20.666 -9.5 33.999c0 16 6.5 29.333 19.5 40s27.167 17.667 42.5 21h3
c12.667 -11.333 29.334 -22.5 50.001 -33.5s42.334 -16.5 65.001 -16.5c12.667 0 25 2.16699 37 6.5s22 12.166 30 23.499c8.66699 11.333 15.334 25.166 20.001 41.499s8 34 10 53s3.16699 38.833 3.5 59.5s0.5 41.334 0.5 62.001v831c0 16 -1.33301 29.333 -4 40
s-8.5 19.5 -17.5 26.5s-21.833 12.167 -38.5 15.5s-38.667 5.66602 -66 6.99902z" />
    <glyph glyph-name="K" unicode="K" horiz-adv-x="992" 
d="M426 926c-26.667 -2 -48.1748 -5.16211 -64.5078 -9.49512s-29 -11 -38 -20s-15.167 -21.333 -18.5 -37s-5 -35.834 -5 -60.501v-285c19.333 3.33301 36.833 9 52.5 17s33.167 20.667 52.5 38l66 64l69.5 71.5l66.5 72.5c21.333 24 40.333 46.333 57 67
c9.33301 12 16.166 22.667 20.499 32s4.16602 17.5 -0.500977 24.5s-14.167 12.5 -28.5 16.5s-35.166 6.66699 -62.499 8l3 35c9.33301 0 21.166 -0.166992 35.499 -0.5s29.5 -0.5 45.5 -0.5c16.667 0 33.5 -0.166992 50.5 -0.5s32.833 -0.5 47.5 -0.5
c12.667 0 27.5 0.166992 44.5 0.5s33.833 0.5 50.5 0.5c17.333 0 33.333 0.166992 48 0.5s26.667 0.5 36 0.5l3 -34c-24 -2 -45.833 -5.33301 -65.5 -10s-38.667 -11.334 -57 -20.001s-36.5 -19.5 -54.5 -32.5s-37 -28.833 -57 -47.5l-53.5 -51l-68 -68.5l-76.5 -78
l-78 -79.5l89.5 -110l94 -112.5l87 -101c27 -31 49.5 -55.833 67.5 -74.5c20 -20.667 36.833 -37.334 50.5 -50.001s26.834 -22.834 39.501 -30.501s26.334 -13.167 41.001 -16.5s33.334 -6 56.001 -8l-2 -36c-25.333 0 -53.166 0.333008 -83.499 1s-60.5 1 -90.5 1
c-9.33301 0 -19.166 -0.166992 -29.499 -0.5s-20.166 -0.833008 -29.499 -1.5c-5.33301 10 -14.666 24 -27.999 42l-48 62l-61.5 75.5l-69 83l-71 84l-66.5 78.5c-13.333 15.333 -25.5 26.166 -36.5 32.499s-22.167 9.5 -33.5 9.5c-7.33301 0 -15 -1 -23 -3v-339
c0 -16 1.16699 -29.333 3.5 -40s7.83301 -19.5 16.5 -26.5s21.334 -12.167 38.001 -15.5s39.334 -5.66602 68.001 -6.99902v-36c-10.667 0 -23.667 0.166992 -39 0.5s-32 0.5 -50 0.5s-36.167 0.166992 -54.5 0.5s-35.5 0.5 -51.5 0.5
c-13.333 0 -27.833 -0.166992 -43.5 -0.5s-31.5 -0.5 -47.5 -0.5s-31 -0.166992 -45 -0.5s-25.667 -0.5 -35 -0.5l-3 34c28 2 50.333 5.16699 67 9.5s29.5 11 38.5 20s15 21.333 18 37s4.5 36.167 4.5 61.5v673c0 16 -1.33301 29.333 -4 40s-8.5 19.5 -17.5 26.5
s-22.167 12.167 -39.5 15.5s-40.333 5.66602 -69 6.99902l2 36c10.667 0 24 -0.166992 40 -0.5s33 -0.5 51 -0.5s36.333 -0.166992 55 -0.5s36 -0.5 52 -0.5c12.667 0 26.834 0.166992 42.501 0.5s31.167 0.5 46.5 0.5c16 0 31.333 0.166992 46 0.5s26.667 0.5 36 0.5v-34z
" />
    <glyph glyph-name="L" unicode="L" horiz-adv-x="780" 
d="M430 926c-27.333 -2 -49.499 -5.16602 -66.499 -9.49902s-30.167 -11 -39.5 -20s-15.666 -21.5 -18.999 -37.5s-5 -36.333 -5 -61v-635c0 -22.667 1.5 -41.334 4.5 -56.001s9 -26.167 18 -34.5s21.667 -14.166 38 -17.499s38.166 -5 65.499 -5h52
c38.667 0 70.334 3.16699 95.001 9.5s45.5 17 62.5 32s31.833 34.833 44.5 59.5s26.667 55 42 91l38 -9c-5.33301 -19.333 -10.333 -40 -15 -62s-9 -43.667 -13 -65s-7.33301 -41.333 -10 -60s-4.33398 -34 -5.00098 -46h-152c-44 0 -82 0.166992 -114 0.5
s-59.333 0.5 -82 0.5s-42.334 0.166992 -59.001 0.5s-31.334 0.5 -44.001 0.5h-35c-13.333 0 -28 -0.166992 -44 -0.5s-32 -0.5 -48 -0.5s-31.167 -0.166992 -45.5 -0.5s-26.166 -0.5 -35.499 -0.5l-3 34c27.333 2 49.5 5.16699 66.5 9.5s30.167 11 39.5 20
s15.666 21.333 18.999 37s5 36.167 5 61.5v673c0 16 -1.5 29.333 -4.5 40s-9 19.5 -18 26.5s-22 12.167 -39 15.5s-39.833 5.66602 -68.5 6.99902l3 36c10.667 0 23.834 -0.166992 39.501 -0.5s32.5 -0.5 50.5 -0.5s36.333 -0.166992 55 -0.5s36 -0.5 52 -0.5
c12.667 0 27 0.166992 43 0.5s32 0.5 48 0.5s31 0.166992 45 0.5s25.667 0.5 35 0.5z" />
    <glyph glyph-name="M" unicode="M" horiz-adv-x="1272" 
d="M33 960c8 0 21.8262 -0.169922 41.4932 -0.50293s41.5 -0.5 65.5 -0.5s48.333 -0.166992 73 -0.5s46 -0.5 64 -0.5l36.5 -85l37.5 -85l283 -630h3l277 643l33 78.5l32 78.5c12.667 0 30.834 0.166992 54.501 0.5s47.834 0.5 72.501 0.5c25.333 0 49 0.166992 71 0.5
s37.667 0.5 47 0.5l2 -34c-29.333 -2 -52.833 -5.16699 -70.5 -9.5s-31.167 -11 -40.5 -20s-15.333 -21.5 -18 -37.5s-3.66699 -36.333 -3 -61l21 -673c0.666992 -16 2.83398 -29.333 6.50098 -40s10.334 -19.5 20.001 -26.5s23.334 -12.167 41.001 -15.5
s41.167 -5.66602 70.5 -6.99902l-2 -36c-12 0 -26 0.166992 -42 0.5s-33 0.5 -51 0.5c-17.333 0 -35 0.166992 -53 0.5s-35 0.5 -51 0.5c-13.333 0 -27.166 -0.166992 -41.499 -0.5s-28.5 -0.5 -42.5 -0.5s-27.333 -0.166992 -40 -0.5s-23.667 -0.5 -33 -0.5l-3 34
c24 2 43.167 5.16699 57.5 9.5s25.333 11.166 33 20.499s12.334 21.833 14.001 37.5s2.16699 35.834 1.5 60.501l-18 635l-3 3l-173.5 -402.5l-170.5 -405.5l-48 -6l-170.5 385l-173.5 382l-4 -2l-20 -576c-1.33301 -31.333 -0.666016 -55.833 2.00098 -73.5
s8.33398 -31 17.001 -40s21 -15 37 -18s36.667 -5.5 62 -7.5l-2 -36c-21.333 0 -44.333 0.333008 -69 1s-53 1 -85 1c-25.333 0 -51.833 -0.333008 -79.5 -1s-53.167 -1 -76.5 -1l-3 34c27.333 2.66699 49.666 5.83398 66.999 9.50098s31 11.167 41 22.5s17 28.333 21 51
s6.66699 54 8 94l21 517c0.666992 24 0.666992 44.5 0 61.5s-2.33398 31.667 -5.00098 44s-6.33398 22.833 -11.001 31.5s-10.667 16.667 -18 24c-12.667 12.667 -28.667 21.334 -48 26.001s-41.666 7.66699 -66.999 9z" />
    <glyph glyph-name="N" unicode="N" horiz-adv-x="1098" 
d="M881 -14l-51.9941 71.5c-17.333 23 -35.666 46.167 -54.999 69.5l-535 635l-4 -2v-585c0 -31.333 1.83301 -55.833 5.5 -73.5s10.5 -31 20.5 -40s23.5 -15 40.5 -18s39.167 -5.5 66.5 -7.5l-2 -36c-21.333 -0 -46.5 0.333008 -75.5 1s-59.5 1 -91.5 1
c-25.333 0 -51.833 -0.333008 -79.5 -1s-53.167 -1 -76.5 -1l-3 34c26.667 2.66699 48.667 5.83398 66 9.50098s31.166 11.167 41.499 22.5s17.5 28.333 21.5 51s6 54 6 94v501c0 28 -0.333008 50.667 -1 68s-2.16699 31.5 -4.5 42.5s-5.5 20.167 -9.5 27.5
s-9.33301 15 -16 23c-6.66699 8.66699 -13.334 16 -20.001 22s-14.334 11 -23.001 15s-19.334 7 -32.001 9s-28.334 3.66699 -47.001 5l2 36c8 0 19.833 -0.166992 35.5 -0.5s33.167 -0.5 52.5 -0.5s39.333 -0.166992 60 -0.5s40 -0.5 58 -0.5l640 -755l3 2v579
c0 31.333 -1.83301 55.833 -5.5 73.5s-10.5 31 -20.5 40s-23.667 15 -41 18s-39.666 5.5 -66.999 7.5l2 36c21.333 0 46.666 -0.333008 75.999 -1s60 -1 92 -1c12.667 0 26 0.166992 40 0.5l41.5 1c13.667 0.333008 26.667 0.666016 39 0.999023s23.166 0.5 32.499 0.5
l1 -34c-26 -2.66699 -47.333 -6 -64 -10s-29.834 -11.667 -39.501 -23s-16.5 -28.333 -20.5 -51s-6 -54 -6 -94v-752z" />
    <glyph glyph-name="O" unicode="O" horiz-adv-x="1122" 
d="M561 980c72.667 0 139.503 -11.5 200.503 -34.5s113.167 -55.833 156.5 -98.5s77.166 -94.167 101.499 -154.5s36.5 -127.833 36.5 -202.5c0 -74 -12 -142.167 -36 -204.5s-57.667 -116.166 -101 -161.499s-95.333 -80.666 -156 -105.999s-128 -38 -202 -38
c-72.667 0 -139.334 11.5 -200.001 34.5s-112.834 55.833 -156.501 98.5s-77.667 94.167 -102 154.5s-36.5 127.833 -36.5 202.5c0 74 12 142.167 36 204.5s57.667 116.166 101 161.499s95.333 80.666 156 105.999s128 38 202 38zM555.003 926
c-46 0 -90.167 -7.5 -132.5 -22.5s-79.666 -39.167 -111.999 -72.5s-58.166 -76.5 -77.499 -129.5s-29 -117.5 -29 -193.5c0 -89.333 11 -164.333 33 -225s50.333 -109.5 85 -146.5s73.5 -63.333 116.5 -79s85.833 -23.5 128.5 -23.5c46 0 90.167 7.5 132.5 22.5
s79.666 39.167 111.999 72.5s58.166 76.5 77.499 129.5s29 117.5 29 193.5c0 89.333 -11 164.333 -33 225s-50.333 109.5 -85 146.5s-73.5 63.333 -116.5 79s-85.833 23.5 -128.5 23.5z" />
    <glyph glyph-name="P" unicode="P" horiz-adv-x="805" 
d="M300 127c0 -16 0.99707 -29.498 2.99707 -40.498s8 -20.167 18 -27.5s25.167 -12.833 45.5 -16.5s48.833 -5.83398 85.5 -6.50098l-2 -36c-36 0 -73.667 0.333008 -113 1s-75 1 -107 1c-12.667 0 -26.667 -0.166992 -42 -0.5s-30.666 -0.5 -45.999 -0.5
c-14.667 0 -28.667 -0.166992 -42 -0.5s-24.666 -0.5 -33.999 -0.5l-2 34c26 2 46.833 5.16699 62.5 9.5s27.834 11 36.501 20s14.5 21.333 17.5 37s4.5 36.167 4.5 61.5v673c0 16 -1.33301 29.333 -4 40s-8.16699 19.5 -16.5 26.5s-20.833 12.167 -37.5 15.5
s-39 5.66602 -67 6.99902l2 36c10.667 0 23.167 -0.166992 37.5 -0.5s29.833 -0.5 46.5 -0.5s33.667 -0.166992 51 -0.5s34 -0.5 50 -0.5c24 0 51.333 1.66699 82 5s61 5 91 5c47.333 0 92.5 -4.66699 135.5 -14s80.667 -24.666 113 -45.999s58.166 -49.5 77.499 -84.5
s29 -77.833 29 -128.5c0 -51.333 -10.333 -96 -31 -134s-47.667 -69.667 -81 -95s-70.666 -44.333 -111.999 -57s-83 -19 -125 -19c-25.333 0 -49.5 1.66699 -72.5 5s-40.833 7.66602 -53.5 12.999v-281zM299.997 458.002c15.333 -4.66699 31.6689 -8.16602 49.002 -10.499
s36.666 -3.5 57.999 -3.5c26 0 52.667 4 80 12s52.166 21.5 74.499 40.5s40.833 44.167 55.5 75.5s22 70.666 22 117.999c0 76.667 -20.833 133.334 -62.5 170.001s-99.834 55 -174.501 55c-23.333 0 -41.666 -1.33301 -54.999 -4s-23.5 -6.83398 -30.5 -12.501
s-11.5 -13.167 -13.5 -22.5s-3 -21 -3 -35v-383z" />
    <glyph glyph-name="Q" unicode="Q" horiz-adv-x="1121" 
d="M561 980c72.667 0 139.504 -11.499 200.504 -34.499s113.167 -55.833 156.5 -98.5s77.166 -94 101.499 -154s36.5 -127.333 36.5 -202c0 -65.333 -10.333 -126.166 -31 -182.499s-49.334 -106.333 -86.001 -150s-80.334 -79.834 -131.001 -108.501s-106 -48 -166 -58
l-2 -7c38.667 -15.333 76.667 -31.5 114 -48.5l110 -50.5c40.667 -19.333 77.667 -35.833 111 -49.5s64.333 -25 93 -34s55.667 -15.667 81 -20s50 -6.5 74 -6.5c30 0 59.333 3.83301 88 11.5s60 18.167 94 31.5l18 -33c-62 -38.667 -116.167 -67.5 -162.5 -86.5
s-90.5 -28.5 -132.5 -28.5c-22 0 -43.333 2 -64 6s-42 10.5 -64 19.5s-45.5 20.5 -70.5 34.5s-52.5 31 -82.5 51l-140 89.5c-40 24.333 -75.667 44.5 -107 60.5s-59.166 28.667 -83.499 38s-47.5 16.333 -69.5 21c-56 11.333 -107.333 30.666 -154 57.999
s-86.834 61.5 -120.501 102.5s-59.834 88.333 -78.501 142s-28 112.834 -28 177.501c0 74 12 142 36 204s57.667 115.667 101 161s95.333 80.666 156 105.999s128 38 202 38zM555.004 926.001c-46 0 -90.1689 -7.5 -132.502 -22.5s-79.666 -39 -111.999 -72
s-58.166 -76 -77.499 -129s-29 -117.5 -29 -193.5c0 -89.333 11.333 -164.333 34 -225s51.667 -109.334 87 -146.001s75 -62.834 119 -78.501s87.333 -23.5 130 -23.5c46 0 89.833 7.5 131.5 22.5s78.167 39 109.5 72s56.333 76 75 129s28 117.5 28 193.5
c0 89.333 -11 164.333 -33 225s-50.333 109.334 -85 146.001s-73.5 62.834 -116.5 78.501s-85.833 23.5 -128.5 23.5z" />
    <glyph glyph-name="R" unicode="R" horiz-adv-x="915" 
d="M300 127c0 -16 0.666992 -29.5 2 -40.5s6 -20.167 14 -27.5s20.5 -12.833 37.5 -16.5s41.167 -5.83398 72.5 -6.50098v-36c-32 0 -64.667 0.333008 -98 1s-66 1 -98 1c-12.667 0 -26.667 -0.166992 -42 -0.5s-30.666 -0.5 -45.999 -0.5
c-14.667 0 -28.667 -0.166992 -42 -0.5s-24.666 -0.5 -33.999 -0.5l-2 34c26 2 46.833 5.16699 62.5 9.5s27.834 11 36.501 20s14.5 21.333 17.5 37s4.5 36.167 4.5 61.5v673c0 16 -1.33301 29.333 -4 40s-8.16699 19.5 -16.5 26.5s-20.833 12.167 -37.5 15.5
s-39 5.66602 -67 6.99902l2 36c10.667 0 23.167 -0.166992 37.5 -0.5s29.833 -0.5 46.5 -0.5s33.667 -0.166992 51 -0.5s34 -0.5 50 -0.5c26.667 0 53.5 1.83301 80.5 5.5s54.5 5.5 82.5 5.5c40 0 80 -3.33301 120 -10s76.167 -18.667 108.5 -36s58.5 -40.833 78.5 -70.5
s30 -67.5 30 -113.5c0 -30.667 -4.83301 -59.667 -14.5 -87s-23.167 -52.166 -40.5 -74.499s-37.833 -42 -61.5 -59s-49.834 -30.833 -78.501 -41.5l63 -117l57.5 -102.5l48 -81.5c14.333 -23.333 26.166 -41.666 35.499 -54.999c12.667 -17.333 23.667 -31.166 33 -41.499
s19.5 -18.333 30.5 -24s23.833 -9.83398 38.5 -12.501s33.667 -5 57 -7l-2 -36c-20 -0 -46.167 0.333008 -78.5 1s-63.5 1 -93.5 1c-9.33301 0 -19.5 -0.166992 -30.5 -0.5s-21.167 -0.833008 -30.5 -1.5c-6.66699 14 -17 34.5 -31 61.5l-50 94l-64 116.5l-73 128
c-4 6.66699 -7.83301 12.667 -11.5 18s-8.33398 9.83301 -14.001 13.5s-13.167 6.5 -22.5 8.5s-21.666 3 -36.999 3h-30c-5.33301 0 -11.833 0.166992 -19.5 0.5s-16.834 0.833008 -27.501 1.5v-318zM300 493c5.33301 -0.666992 10.668 -1.16699 16.001 -1.5
s10.666 -0.5 15.999 -0.5h32c78.667 0 139.5 18 182.5 54s64.5 94.333 64.5 175c0 68 -20.5 117.667 -61.5 149s-95.5 47 -163.5 47c-20.667 0 -36.834 -1.83301 -48.501 -5.5s-20.167 -9.16699 -25.5 -16.5s-8.66602 -16.333 -9.99902 -27s-2 -22.667 -2 -36v-338z" />
    <glyph glyph-name="S" unicode="S" horiz-adv-x="707" 
d="M84 279c13.333 -34.667 27.501 -66.668 42.501 -96.001s33 -54.833 54 -76.5s45.5 -38.667 73.5 -51s61.667 -18.5 101 -18.5c26 0 50 4.33301 72 13s41.333 21 58 37s29.667 34.833 39 56.5s14 45.5 14 71.5c0 32.667 -6 60.667 -18 84s-28 43.5 -48 60.5
s-42.667 31.833 -68 44.5s-51.333 25 -78 37c-30 13.333 -60.167 28 -90.5 44s-57.5 35 -81.5 57s-43.667 47.333 -59 76s-23 62.667 -23 102c0 42 8.5 79.167 25.5 111.5s40 59.5 69 81.5s62.667 38.667 101 50s79.166 17 122.499 17c42 0 80.833 -3.16699 116.5 -9.5
s73.834 -14.833 114.501 -25.5c-2 -21.333 -3.66699 -41.166 -5 -59.499s-2.16602 -36.333 -2.49902 -54l-1 -54c-0.333008 -18.333 -0.5 -38.166 -0.5 -59.499l-42 -4c-6 70.667 -27.5 123.5 -64.5 158.5s-86.833 52.5 -149.5 52.5c-24 0 -46 -3.66699 -66 -11
s-37.333 -18 -52 -32s-26.167 -30.667 -34.5 -50s-12.5 -41 -12.5 -65c0 -32 5.16699 -58.833 15.5 -80.5s24.5 -40.5 42.5 -56.5s38.833 -29.833 62.5 -41.5s48.5 -23.167 74.5 -34.5c32 -14 64.167 -29.333 96.5 -46s61.333 -36.334 87 -59.001s46.5 -49 62.5 -79
s24 -65.333 24 -106c0 -45.333 -9.33301 -85.5 -28 -120.5s-43.334 -64.667 -74.001 -89s-66 -42.833 -106 -55.5s-81 -19 -123 -19c-36.667 0 -74.667 3.66699 -114 11s-81 17.333 -125 30c-4.66699 44 -10.334 85.333 -17.001 124s-15.667 80 -27 124z" />
    <glyph glyph-name="T" unicode="T" horiz-adv-x="878" 
d="M426 958c22.667 0 51.668 0.166992 87.001 0.5s71 0.5 107 0.5c36.667 0 74.667 0.166992 114 0.5s79 0.5 119 0.5l-5.5 -64.5c-1.66699 -19.667 -3 -39 -4 -58s-1.66699 -38.167 -2 -57.5s-0.5 -40.333 -0.5 -63l-38 -2c-6 36 -12.5 66.333 -19.5 91
s-17.167 44.834 -30.5 60.501s-31.333 26.834 -54 33.501s-52.667 10 -90 10h-114v-785c0 -16 1.33301 -29.333 4 -40s8.66699 -19.5 18 -26.5s23.5 -12.167 42.5 -15.5s44.833 -5.66602 77.5 -6.99902l-2 -36c-14 0 -29.833 0.166992 -47.5 0.5s-35.834 0.5 -54.501 0.5
s-37.167 0.166992 -55.5 0.5s-35.5 0.5 -51.5 0.5c-13.333 0 -27.833 -0.166992 -43.5 -0.5s-31.5 -0.5 -47.5 -0.5s-32 -0.166992 -48 -0.5s-30.333 -0.5 -43 -0.5l-3 34c30.667 2 55.334 5 74.001 9s32.667 10.667 42 20s15.5 21.833 18.5 37.5s4.5 36.167 4.5 61.5v748
h-111c-37.333 0 -67.5 -3.33301 -90.5 -10s-41.5 -17.834 -55.5 -33.501s-24.667 -35.834 -32 -60.501s-14 -55 -20 -91l-38 2v63c0 30 -0.5 58.667 -1.5 86s-3.16699 58.666 -6.5 93.999c40 0 79.333 -0.166992 118 -0.5s76 -0.5 112 -0.5s67.667 -0.166992 95 -0.5
s52.666 -0.5 75.999 -0.5z" />
    <glyph glyph-name="U" unicode="U" horiz-adv-x="1047" 
d="M284 329c0 -48 8.00293 -89.1631 24.0029 -123.496s37.167 -62.333 63.5 -84s56.166 -37.667 89.499 -48s67.666 -15.5 102.999 -15.5c36 0 70.333 5.5 103 16.5s61.667 28.667 87 53s45.5 55.666 60.5 93.999s22.5 84.5 22.5 138.5v420c0 29.333 -2.16699 53 -6.5 71
s-12.333 32 -24 42s-27.834 17 -48.501 21s-47.334 7 -80.001 9l2 36c23.333 0 51.5 -0.333008 84.5 -1s67.5 -1 103.5 -1c29.333 0 60 0.5 92 1.5s58.667 1.5 80 1.5l1 -34c-29.333 -2.66699 -53.166 -5.83398 -71.499 -9.50098s-33 -10.834 -44 -21.501
s-18.5 -26.334 -22.5 -47.001s-6 -49 -6 -85v-423c0 -65.333 -11 -120.666 -33 -165.999s-50.833 -82.5 -86.5 -111.5s-76 -50 -121 -63s-90.833 -19.5 -137.5 -19.5c-46 0 -90 6.33301 -132 19s-79.167 32 -111.5 58s-58.166 58.667 -77.499 98s-29 85.666 -29 138.999v534
c0 16 -1.5 29.667 -4.5 41s-9.33301 20.833 -19 28.5s-23.5 13.5 -41.5 17.5s-42 6.66699 -72 8l2 36c12 0 26.167 -0.166992 42.5 -0.5s33.5 -0.5 51.5 -0.5c18.667 0 37.5 -0.166992 56.5 -0.5s36.833 -0.5 53.5 -0.5c13.333 0 28.166 0.166992 44.499 0.5
s32.833 0.5 49.5 0.5s32.5 0.166992 47.5 0.5s28.167 0.5 39.5 0.5l3 -34c-28.667 -2 -52 -5.33301 -70 -10s-32 -12 -42 -22s-16.833 -23.167 -20.5 -39.5s-5.5 -36.833 -5.5 -61.5v-463z" />
    <glyph glyph-name="V" unicode="V" horiz-adv-x="962" 
d="M360 926c-38 -3.33301 -64.665 -8.1709 -79.998 -14.5039s-23 -18.166 -23 -35.499c0 -7.33301 1.16699 -15.666 3.5 -24.999s5.5 -20 9.5 -32l234 -661h3l244 647c5.33301 15.333 9.66602 28.666 12.999 39.999s5 21.333 5 30s-1.83301 15.834 -5.5 21.501
s-9.83398 10.334 -18.501 14.001s-20.334 6.5 -35.001 8.5s-33 3.66699 -55 5l2 36c24.667 0 52.334 -0.333008 83.001 -1s61 -1 91 -1c24.667 0 50.167 0.333008 76.5 1s51.833 1 76.5 1l3 -34c-26 -2 -47.167 -5.16699 -63.5 -9.5s-30.5 -12.333 -42.5 -24
s-23 -27.667 -33 -48s-22 -47.5 -36 -81.5l-154.5 -385.5l-152.5 -386.5l-60 -6l-147 403l-149 402c-10.667 28.667 -20 51.334 -28 68.001s-17.333 29.5 -28 38.5s-24 15.333 -40 19s-37 6.5 -63 8.5l2 36c28 0 58.833 -0.333008 92.5 -1s67.5 -1 101.5 -1
c28 0 56.5 0.333008 85.5 1s57.5 1 85.5 1z" />
    <glyph glyph-name="W" unicode="W" horiz-adv-x="1375" 
d="M478 164l192 479l-48 147c-9.33301 28.667 -17.833 51.5 -25.5 68.5s-16.667 30 -27 39s-22.833 15.167 -37.5 18.5s-34 6 -58 8l2 36c28 0 58.833 -0.333008 92.5 -1s67.5 -1 101.5 -1c28 0 56.167 0.333008 84.5 1s56.5 1 84.5 1l3 -34
c-41.333 -3.33301 -70.333 -8.33301 -87 -15s-25 -19 -25 -37c0 -7.33301 3.66699 -25.666 11 -54.999l205 -655h2l218 640c11.333 36 17 59.667 17 71c0 17.333 -8.83301 29.166 -26.5 35.499s-49.5 10.833 -95.5 13.5l2 36c30 0 60.333 -0.333008 91 -1s61 -1 91 -1
c24.667 0 50.167 0.333008 76.5 1s51.833 1 76.5 1l3 -34c-26 -2 -47.5 -5.16699 -64.5 -9.5s-31.833 -12 -44.5 -23s-24.167 -26.667 -34.5 -47s-21.833 -47.833 -34.5 -82.5l-139 -386.5l-137 -387.5l-60 -5l-96.5 291.5l-91.5 277.5l-55 -133l-60 -150.5l-58 -149.5
l-49 -131l-58 -5l-132 403l-135 402c-9.33301 28.667 -18 51.5 -26 68.5s-17.5 30 -28.5 39s-24.5 15.167 -40.5 18.5s-37 6 -63 8l2 36c28 0 58.833 -0.333008 92.5 -1s67.5 -1 101.5 -1c28 0 56.167 0.333008 84.5 1s56.5 1 84.5 1l3 -34
c-38 -3.33301 -64.667 -8.33301 -80 -15s-23 -18.667 -23 -36c0 -7.33301 1.16699 -15.5 3.5 -24.5l8.5 -31.5l205 -655h2z" />
    <glyph glyph-name="X" unicode="X" horiz-adv-x="966" 
d="M328 0c-20.667 0 -47.6709 0.326172 -81.0039 0.993164s-65.333 1 -96 1c-33.333 0 -61.333 -0.333008 -84 -1s-45.667 -1 -69 -1l-2 36c28 1.33301 51.5 5 70.5 11s36.333 14.833 52 26.5s30.834 26.834 45.501 45.501l51 67l211 289l-226 325l-44.5 62.5
c-11.667 15.667 -23.834 27.834 -36.501 36.501s-27.167 14.667 -43.5 18s-38.166 5.66602 -65.499 6.99902l2 36c10 0 22.833 -0.166992 38.5 -0.5s32.5 -0.5 50.5 -0.5s36 -0.166992 54 -0.5s34.667 -0.5 50 -0.5c30.667 0 62 0.333008 94 1s58.333 1 79 1l3 -34
c-36 -3.33301 -60.5 -7.66602 -73.5 -12.999s-19.5 -12.666 -19.5 -21.999s6.66699 -23.666 20 -42.999l189 -277l178 259c9.33301 13.333 16.5 24.666 21.5 33.999s7.5 17.666 7.5 24.999c0 10.667 -6.83301 18.667 -20.5 24s-37.5 9.66602 -71.5 12.999l3 34
c20.667 0 46.334 -0.333008 77.001 -1s61.334 -1 92.001 -1s56.5 0.333008 77.5 1s41.833 1 62.5 1l2 -36c-27.333 -1.33301 -50 -4.66602 -68 -9.99902s-34.333 -13.666 -49 -24.999s-28.834 -25.833 -42.501 -43.5l-48.5 -65.5l-187 -259l244 -355
c18.667 -27.333 34.667 -49.166 48 -65.499s27 -29.166 41 -38.499s29.833 -15.666 47.5 -18.999s40.5 -5.66602 68.5 -6.99902l-2 -36c-12 0 -25.833 0.166992 -41.5 0.5s-32.167 0.5 -49.5 0.5s-35.166 0.166992 -53.499 0.5s-35.833 0.5 -52.5 0.5
c-15.333 0 -31.833 -0.166992 -49.5 -0.5s-35.5 -0.5 -53.5 -0.5c-17.333 0 -33.666 -0.166992 -48.999 -0.5s-28 -0.5 -38 -0.5l-5 33c39.333 3.33301 66.333 7.5 81 12.5s22 12.5 22 22.5s-6.33301 24.333 -19 43l-213 312l-200 -293
c-9.33301 -13.333 -16.333 -24.5 -21 -33.5s-7 -17.167 -7 -24.5c0 -11.333 7.66699 -19.833 23 -25.5s42.333 -10.167 81 -13.5z" />
    <glyph glyph-name="Y" unicode="Y" horiz-adv-x="870" 
d="M380 314c0 19.333 -0.335938 35.8301 -1.00293 49.4971s-2.83398 27.334 -6.50098 41.001s-9.16699 28.5 -16.5 44.5s-17.666 36 -30.999 60l-65.5 116l-97.5 166c-15.333 26 -28.5 47.167 -39.5 63.5s-22.667 29.333 -35 39s-26.833 16.667 -43.5 21s-38 7.5 -64 9.5
l2 36c28 0 58.833 -0.333008 92.5 -1s67.5 -1 101.5 -1c28 0 56.5 0.333008 85.5 1s57.5 1 85.5 1l3 -34c-36 -2.66699 -60.833 -7 -74.5 -13s-20.5 -15 -20.5 -27c0 -8 2.33301 -17.333 7 -28s11 -23.667 19 -39l182 -335l176 318c10.667 19.333 18.834 35.5 24.501 48.5
s8.5 24.167 8.5 33.5c0 12.667 -7.5 21.834 -22.5 27.501s-41.5 9.83398 -79.5 12.501l2 36c24.667 0 50.667 -0.333008 78 -1s56 -1 86 -1c24.667 0 50.167 0.333008 76.5 1s51.833 1 76.5 1l3 -34c-26 -2 -47.5 -5.33301 -64.5 -10s-32.167 -12.667 -45.5 -24
s-26.5 -26.666 -39.5 -45.999s-28.833 -44.666 -47.5 -75.999l-88 -150.5c-24.667 -43.667 -44 -79.5 -58 -107.5c-14 -27.333 -24.667 -49.333 -32 -66s-12.666 -31.334 -15.999 -44.001s-5.16602 -24.834 -5.49902 -36.501s-0.5 -25.834 -0.5 -42.501v-198
c0 -16 1.33301 -29.333 4 -40s8.66699 -19.5 18 -26.5s23.5 -12.167 42.5 -15.5s44.833 -5.66602 77.5 -6.99902l-2 -36c-14 0 -29.833 0.166992 -47.5 0.5s-35.834 0.5 -54.501 0.5s-37.167 0.166992 -55.5 0.5s-35.5 0.5 -51.5 0.5
c-13.333 0 -27.833 -0.166992 -43.5 -0.5s-31.5 -0.5 -47.5 -0.5s-32 -0.166992 -48 -0.5s-30.333 -0.5 -43 -0.5l-3 34c30.667 2 55.334 5 74.001 9s32.667 10.667 42 20s15.5 21.833 18.5 37.5s4.5 36.167 4.5 61.5v152z" />
    <glyph glyph-name="Z" unicode="Z" horiz-adv-x="908" 
d="M50 16l53.998 72l73 101.5l85.5 120.5l90 128.5l87 125l76.5 110l58 84l33 47.5l72 104h-297c-39.333 0 -71.333 -1.66699 -96 -5s-45 -11.5 -61 -24.5s-28.667 -32.5 -38 -58.5s-18 -61.333 -26 -106l-38 2v65c0 30 -0.666992 58.333 -2 85s-3.33301 57.667 -6 93
c46 0 91.5 -0.166992 136.5 -0.5s86.833 -0.5 125.5 -0.5c40 0 74.333 -0.166992 103 -0.5s49.667 -0.5 63 -0.5h34c15.333 0 33 0.166992 53 0.5s40.667 0.5 62 0.5c22 0 42.833 0.166992 62.5 0.5s36.834 0.5 51.501 0.5h32l12 -16l-49.5 -66.5l-71.5 -99.5l-85 -120.5
l-90.5 -130l-88.5 -127l-78 -111.5l-59 -84.5l-32 -45.5l-74 -106h363c27.333 0 53.166 2.83301 77.499 8.5s47.333 16 69 31s42.167 35.5 61.5 61.5s37.333 59 54 99l39 -10c-16 -51.333 -28.333 -98.833 -37 -142.5s-13.667 -77.167 -15 -100.5
c-56.667 0 -110.667 0.166992 -162 0.5s-99 0.5 -143 0.5c-42.667 0 -80.167 0.166992 -112.5 0.5s-57.166 0.5 -74.499 0.5h-37c-15.333 0 -32.666 -0.166992 -51.999 -0.5s-39.333 -0.5 -60 -0.5c-20 0 -39.167 -0.166992 -57.5 -0.5s-34.5 -0.5 -48.5 -0.5h-28z" />
    <glyph glyph-name="bracketleft" unicode="[" horiz-adv-x="499" 
d="M121 1038h260l4 -38c-41.333 -3.33301 -73.666 -6.83301 -96.999 -10.5s-40.666 -10.167 -51.999 -19.5s-18.333 -22.5 -21 -39.5s-4 -40.167 -4 -69.5v-946c0 -29.333 1.33301 -52.5 4 -69.5s9.66699 -30.167 21 -39.5s28.666 -15.833 51.999 -19.5
s55.666 -7.16699 96.999 -10.5l-4 -38h-260v1300z" />
    <glyph glyph-name="backslash" unicode="\" horiz-adv-x="540" 
d="M476 -130l-68 -11l-316 1131l69 11z" />
    <glyph glyph-name="bracketright" unicode="]" horiz-adv-x="499" 
d="M377 -263l-259 1l-4 38c41.333 3.33301 73.666 6.83301 96.999 10.5s40.666 10.167 51.999 19.5s18.333 22.5 21 39.5s4 40.167 4 69.5v946c0 29.333 -1.33301 52.5 -4 69.5s-9.66699 30.167 -21 39.5s-28.666 15.833 -51.999 19.5s-55.666 7.16699 -96.999 10.5l4 38
l259 -1v-1300z" />
    <glyph glyph-name="asciicircum" unicode="^" horiz-adv-x="680" 
d="M366 970l270 -550l-64 -7l-231 486h-2l-231 -486l-64 7l271 545z" />
    <glyph glyph-name="underscore" unicode="_" horiz-adv-x="1024" 
d="M1024 -171v-65h-1024v65h1024z" />
    <glyph glyph-name="grave" unicode="`" horiz-adv-x="476" 
d="M334 648l-3 -6l-35 -6l-155 245l5 11l105 9z" />
    <glyph glyph-name="a" unicode="a" horiz-adv-x="620" 
d="M392 323c0.666992 4.66699 1.00098 10.3311 1.00098 16.998v23v50c0 34 -8.16699 62.167 -24.5 84.5s-42.5 33.5 -78.5 33.5c-19.333 0 -35.833 -3.5 -49.5 -10.5s-25 -16.167 -34 -27.5s-15.667 -24.333 -20 -39s-6.5 -30 -6.5 -46
c-10.667 -8.66699 -25.334 -13 -44.001 -13c-15.333 0 -29.833 3.5 -43.5 10.5s-20.5 17.5 -20.5 31.5c0 10.667 4.16699 21.667 12.5 33s19.333 22.5 33 33.5s28.834 21.5 45.501 31.5s33.667 18.667 51 26c44.667 19.333 88.667 29 132 29
c21.333 0 41.333 -2.83301 60 -8.5s35 -14.667 49 -27s25 -28.166 33 -47.499s12 -42.333 12 -69c0 -40 -0.666992 -86.167 -2 -138.5s-2 -110.5 -2 -174.5c0 -26 5 -46.333 15 -61s24 -22 42 -22c16 0 33.333 5.66699 52 17l18 -27
c-15.333 -14.667 -34.166 -26.667 -56.499 -36s-44.833 -14 -67.5 -14c-23.333 0 -44.833 6.33301 -64.5 19s-32.834 34.334 -39.501 65.001l-31 -21c-14 -9.33301 -30 -18.833 -48 -28.5s-37.333 -18.167 -58 -25.5s-40.334 -11 -59.001 -11c-22 0 -42 4 -60 12
s-33.5 18.833 -46.5 32.5s-23 29.334 -30 47.001s-10.5 36.5 -10.5 56.5c0 34 9.83301 63.167 29.5 87.5s45.5 43.166 77.5 56.499c23.333 9.33301 54.5 18.833 93.5 28.5s85.5 17.167 139.5 22.5zM390.001 113.997c0 28 0.333008 55.333 1 82s1 54 1 82
c-18 -2 -36.167 -4.5 -54.5 -7.5s-36.166 -6.83301 -53.499 -11.5s-33.666 -10.667 -48.999 -18s-28.333 -16 -39 -26c-16.667 -14.667 -25 -33.667 -25 -57c0 -28 7.16699 -51.667 21.5 -71s36.5 -29 66.5 -29c21.333 0 43.666 5 66.999 15s44.666 23.667 63.999 41z" />
    <glyph glyph-name="b" unicode="b" horiz-adv-x="722" 
d="M228 1073c-2 -16.667 -3.83203 -36.334 -5.49902 -59.001s-3 -45.167 -4 -67.5s-1.83301 -43.5 -2.5 -63.5s-1 -36 -1 -48v-308c32 21.333 64 37.166 96 47.499s63 15.5 93 15.5c39.333 0 75.166 -7.66699 107.499 -23s60 -36 83 -62s40.833 -56 53.5 -90s19 -70 19 -108
c0 -48.667 -9 -93 -27 -133s-42.5 -74.333 -73.5 -103s-67.5 -51 -109.5 -67s-87.333 -24 -136 -24c-34 0 -69.833 3.83301 -107.5 11.5s-73.5 20.167 -107.5 37.5c1.33301 50.667 2 88.334 2 113.001v54v696c0 19.333 -1 34.833 -3 46.5s-6.5 20.834 -13.5 27.501
s-16.833 11.667 -29.5 15s-30 6.66602 -52 9.99902l-4 29c15.333 2.66699 32.333 6.33398 51 11.001s37.5 9.66699 56.5 15s37.5 11 55.5 17s34 12 48 18zM215.001 123c0 -12 3.83301 -23.502 11.5 -34.502s17.834 -20.667 30.501 -29s27.5 -15 44.5 -20
s34.833 -7.5 53.5 -7.5c32.667 0 61.167 6.83301 85.5 20.5s44.333 31.834 60 54.501s27.334 48.5 35.001 77.5s11.5 58.833 11.5 89.5c0 32 -4.66699 62.333 -14 91s-22.833 53.834 -40.5 75.501s-39.334 38.834 -65.001 51.501s-54.834 19 -87.501 19
c-19.333 0 -39.5 -2.33301 -60.5 -7s-42.5 -13.334 -64.5 -26.001v-355z" />
    <glyph glyph-name="c" unicode="c" horiz-adv-x="584" 
d="M566 127c-11.333 -23.333 -25.999 -43.9961 -43.999 -61.9961s-37.833 -33.333 -59.5 -46s-44.5 -22.334 -68.5 -29.001s-48 -10 -72 -10c-40 0 -76.667 7.83301 -110 23.5s-62 36.5 -86 62.5s-42.667 56.167 -56 90.5s-20 70.5 -20 108.5c0 46 9.16699 88.667 27.5 128
s43 73.666 74 102.999s66.833 52.333 107.5 69s83.667 25 129 25c22 0 44.167 -2 66.5 -6s44.166 -11.667 65.499 -23c9.33301 -4.66699 15.833 -10.834 19.5 -18.501s5.5 -15.167 5.5 -22.5c0 -12 -4.66699 -24.5 -14 -37.5s-24.666 -24.833 -45.999 -35.5h-5
c-24.667 25.333 -48.334 44 -71.001 56s-49 18 -79 18c-28 0 -52.5 -5.66699 -73.5 -17s-38.5 -26.333 -52.5 -45s-24.667 -40.167 -32 -64.5s-11 -49.5 -11 -75.5c0 -32.667 4.83301 -64 14.5 -94s23.5 -56.333 41.5 -79s40.167 -40.834 66.5 -54.501
s56.5 -20.5 90.5 -20.5c32 0 62.667 6.66699 92 20s53 34 71 62z" />
    <glyph glyph-name="d" unicode="d" horiz-adv-x="733" 
d="M623 1073c-2 -16.667 -3.83008 -36.3301 -5.49707 -58.9971s-3 -45.334 -4 -68.001s-1.83301 -44 -2.5 -64s-1 -36 -1 -48v-684c0 -19.333 1 -34.5 3 -45.5s6.66699 -19.5 14 -25.5s18.166 -10.5 32.499 -13.5s33.5 -6.16699 57.5 -9.5l4 -28l-65 -10.5
c-22 -3.66699 -42.5 -7.5 -61.5 -11.5s-35.667 -7.83301 -50 -11.5s-24.833 -6.5 -31.5 -8.5l-10 8v65c-32.667 -27.333 -65.5 -47.166 -98.5 -59.499s-66.167 -18.5 -99.5 -18.5c-34.667 0 -67.334 6.66699 -98.001 20s-57.5 32 -80.5 56s-41.167 53.167 -54.5 87.5
s-20 72.5 -20 114.5c0 48 9.16699 92.167 27.5 132.5s43.333 75.166 75 104.499s68.5 52.333 110.5 69s87 25 135 25c9.33301 0 24 -0.833008 44 -2.5s39.667 -4.83398 59 -9.50098v332c0 18.667 -1 33.5 -3 44.5s-6.83301 19.667 -14.5 26s-18.667 11.166 -33 14.499
s-33.833 7 -58.5 11l-3 28c24.667 4 49 8.33301 73 13l66.5 13.5c20.333 4.33301 37.666 8.33301 51.999 12s24.5 6.5 30.5 8.5zM503.003 477.004c-18 20.667 -39.667 36.001 -65 46.001s-51 15 -77 15c-32 0 -59.667 -6.66699 -83 -20s-42.666 -31 -57.999 -53
s-26.833 -47.333 -34.5 -76s-11.5 -58.334 -11.5 -89.001c0 -31.333 4.16699 -61.5 12.5 -90.5s20.833 -54.5 37.5 -76.5s37.167 -39.667 61.5 -53s52.166 -20 83.499 -20c28 0 53.167 4.16699 75.5 12.5s41.833 19.5 58.5 33.5v371z" />
    <glyph glyph-name="e" unicode="e" horiz-adv-x="604" 
d="M559 111c-21.333 -28 -43.3301 -50.498 -65.9971 -67.498s-44.334 -30.167 -65.001 -39.5s-39.667 -15.666 -57 -18.999s-31 -5 -41 -5c-42 0 -80.333 8 -115 24s-64.334 37.5 -89.001 64.5s-43.834 58.667 -57.501 95s-20.5 74.833 -20.5 115.5
c0 44 8.16699 84.833 24.5 122.5s37.833 70.5 64.5 98.5s57.334 50 92.001 66s70.667 24 108 24c30 0 58.667 -4.83301 86 -14.5s51.166 -23.5 71.499 -41.5s36.666 -39.667 48.999 -65s18.5 -53.666 18.5 -84.999v-14c0 -8.66699 -0.333008 -13.334 -1 -14.001
c-3.33301 -18 -12.666 -27 -27.999 -27h-378c0.666992 -46 7.66699 -85.333 21 -118s30.5 -59.334 51.5 -80.001s44.5 -35.834 70.5 -45.501s51.667 -14.5 77 -14.5c27.333 0 53.333 4.66699 78 14s50.667 27.666 78 54.999zM411.003 374.002
c13.333 0 22.001 2.5 26.001 7.5s6 13.5 6 25.5c0 18 -3.16699 35 -9.5 51s-15.333 30 -27 42s-26 21.333 -43 28s-35.833 10 -56.5 10c-16 0 -31.833 -3.66699 -47.5 -11s-30.334 -18 -44.001 -32s-25.5 -31.167 -35.5 -51.5s-17 -43.5 -21 -69.5h252z" />
    <glyph glyph-name="f" unicode="f" horiz-adv-x="417" 
d="M247 503l0.00195312 -389.005c0 -16.667 1.66699 -30 5 -40s9.66602 -17.5 18.999 -22.5s22.5 -8.5 39.5 -10.5s39.5 -3.33301 67.5 -4l-3 -37c-10.667 0 -23.334 0.166992 -38.001 0.5s-30.334 0.5 -47.001 0.5s-33.834 0.166992 -51.501 0.5s-34.5 0.5 -50.5 0.5
c-26 0 -52 -0.333008 -78 -1s-48.333 -1 -67 -1l-3 32c22 2 39.5 4.83301 52.5 8.5s23 9.83398 30 18.501s11.667 20.5 14 35.5s3.5 35.167 3.5 60.5v348h-95l-7 7l4 38l98 8v156c0 62.667 9 117.334 27 164.001s43 86 75 118c28 28 59.333 48.667 94 62s72 20 112 20
c10 0 21.5 -1 34.5 -3s25.167 -5.5 36.5 -10.5s21 -12 29 -21s12 -20.167 12 -33.5c0 -21.333 -5.5 -36.666 -16.5 -45.999s-25.833 -17.666 -44.5 -24.999h-3c-16.667 15.333 -37 28.833 -61 40.5s-48 17.5 -72 17.5c-13.333 0 -26.166 -2.16699 -38.499 -6.5
s-23.166 -11.166 -32.499 -20.499c-11.333 -11.333 -20 -25.333 -26 -42s-10.5 -34.667 -13.5 -54s-4.66699 -39.5 -5 -60.5s-0.5 -41.167 -0.5 -60.5v-193l165 3l8 -7l-3 -51h-170z" />
    <glyph glyph-name="g" unicode="g" horiz-adv-x="682" 
d="M67 353c0 33.333 6.83008 64.498 20.4971 93.498s32 54.167 55 75.5s49.5 38 79.5 50s61.667 18 95 18c53.333 0 99.333 -11.333 138 -34c7.33301 -4.66699 14.166 -7.83398 20.499 -9.50098s13.833 -2.5 22.5 -2.5c7.33301 0.666992 12.666 1 15.999 1l153 11l7 -8
l-6 -58h-141c27.333 -35.333 41 -74.333 41 -117c0 -39.333 -7.83301 -74 -23.5 -104s-36 -55.167 -61 -75.5s-52.667 -35.666 -83 -45.999s-60.166 -15.5 -89.499 -15.5c-26 0 -53.667 3.33301 -83 10c-15.333 -7.33301 -28.166 -18.166 -38.499 -32.499
s-15.5 -27.833 -15.5 -40.5c0 -9.33301 3.5 -17.5 10.5 -24.5s15.667 -12.833 26 -17.5s21.333 -8 33 -10s22.167 -3 31.5 -3c26 0 53.167 0.5 81.5 1.5s54.833 1.5 79.5 1.5c26.667 0 53.334 -2.5 80.001 -7.5s50.834 -14 72.501 -27s39.167 -30.833 52.5 -53.5
s20 -51.334 20 -86.001c0 -42 -9.33301 -81.5 -28 -118.5s-44.667 -69 -78 -96s-73.166 -48.333 -119.499 -64s-97.166 -23.5 -152.499 -23.5c-28.667 0 -58.167 3.83301 -88.5 11.5s-57.833 19.334 -82.5 35.001s-44.834 35.334 -60.501 59.001s-23.5 51.5 -23.5 83.5
c0 22.667 4.33301 43.5 13 62.5s20 36.5 34 52.5s29.667 30.667 47 44s34.666 26 51.999 38c-27.333 10 -50.833 23.333 -70.5 40s-29.5 37.667 -29.5 63c0 11.333 3.83301 23.333 11.5 36s16.834 25 27.501 37s22 23 34 33l31 26c-74 37.333 -111 101 -111 191z
M333.997 -85.002c-22 0 -40.1699 -0.166992 -54.5029 -0.5s-26.166 -1.5 -35.499 -3.5s-17.666 -5 -24.999 -9s-15 -9.33301 -23 -16c-20.667 -17.333 -36 -36.833 -46 -58.5s-15 -44.167 -15 -67.5c0 -27.333 6.66699 -50.333 20 -69s30.333 -33.834 51 -45.501
s43.667 -20.167 69 -25.5s50 -8 74 -8c30 0 58.333 3.16699 85 9.5s50 16.5 70 30.5s35.833 32 47.5 54s17.5 48.333 17.5 79c0 28 -6 51.333 -18 70s-29.333 32.667 -52 42c-19.333 8.66699 -40.666 13.834 -63.999 15.501s-50.333 2.5 -81 2.5h-20zM326.994 175.998
c21.333 0 39.666 5.00098 54.999 15.001s27.833 23 37.5 39s16.834 34 21.501 54s7 39.667 7 59c0 24 -2.5 48.167 -7.5 72.5s-13 46.166 -24 65.499s-25.333 35 -43 47s-39.5 18 -65.5 18c-22 0 -40.667 -4.83301 -56 -14.5s-27.833 -22.5 -37.5 -38.5
s-16.667 -33.833 -21 -53.5s-6.5 -39.5 -6.5 -59.5c0 -22.667 2.66699 -46 8 -70s13.5 -46 24.5 -66s25.333 -36.333 43 -49s39.167 -19 64.5 -19z" />
    <glyph glyph-name="h" unicode="h" horiz-adv-x="769" 
d="M254 1073c-2.66699 -16.667 -4.83203 -36.334 -6.49902 -59.001s-3 -45.334 -4 -68.001s-1.83301 -44 -2.5 -64s-1 -36 -1 -48v-325c34 22.667 71 41.834 111 57.501s79 23.5 117 23.5c24 0 46.667 -3.66699 68 -11s40 -19.166 56 -35.499s28.667 -37.666 38 -63.999
s14 -58.5 14 -96.5v-269c0 -16 0.833008 -28.833 2.5 -38.5s5.83398 -17.167 12.501 -22.5s16.667 -9 30 -11s31.333 -3.66699 54 -5l-2 -37c-21.333 0 -45.833 0.333008 -73.5 1s-57.5 1 -89.5 1c-26 0 -50.667 -0.333008 -74 -1s-44.333 -1 -63 -1l-3 32
c20.667 2 37.5 4.66699 50.5 8s23 8.83301 30 16.5s11.667 18.667 14 33s3.5 34.166 3.5 59.499v211c0 54 -12 92.667 -36 116s-55 35 -93 35c-25.333 0 -52.333 -4.5 -81 -13.5s-57.334 -21.833 -86.001 -38.5v-345c0 -16 1 -28.833 3 -38.5s6.33301 -17.167 13 -22.5
s16.5 -9 29.5 -11s30.5 -3.66699 52.5 -5l-3 -37c-21.333 -0 -45.166 0.333008 -71.499 1s-55.5 1 -87.5 1c-26 0 -51.333 -0.333008 -76 -1s-46.334 -1 -65.001 -1l-2 32c22 2 39.5 5 52.5 9s23.167 10.167 30.5 18.5s12.166 20 14.499 35s3.5 35.167 3.5 60.5v745
c0 19.333 -1.16699 34.5 -3.5 45.5s-7 19.5 -14 25.5s-17.5 10.667 -31.5 14s-32.333 7 -55 11l-3 29c18.667 3.33301 38.5 7.33301 59.5 12s41.167 9.5 60.5 14.5s37.5 10 54.5 15s30.833 9.83301 41.5 14.5z" />
    <glyph glyph-name="i" unicode="i" horiz-adv-x="375" 
d="M355 0c-21.333 0 -46.9971 0.332031 -76.9971 0.999023s-61 1 -93 1c-26 0 -51.333 -0.333008 -76 -1s-46.334 -1 -65.001 -1l-2 32c22 2 39.5 4.83301 52.5 8.5s23.167 9.83398 30.5 18.501s12.166 20.5 14.499 35.5s3.5 35.167 3.5 60.5v263
c0 18.667 -1 33.334 -3 44.001s-6.16699 19 -12.5 25s-15.666 10.667 -27.999 14s-28.5 6.66602 -48.5 9.99902l-3 29l62.5 12.5c21 4.33301 40.667 8.83301 59 13.5s34.666 9 48.999 13s25.166 7.66699 32.499 11l10 -8c-2 -16.667 -3.66699 -34.334 -5 -53.001
s-2.33301 -37.167 -3 -55.5s-1.16699 -35.666 -1.5 -51.999s-0.5 -30.5 -0.5 -42.5v-265c0 -16 1 -28.833 3 -38.5s6.5 -17.167 13.5 -22.5s17.5 -9 31.5 -11s33.333 -3.66699 58 -5zM122.003 829.999c0 22 6.66699 39.833 20 53.5s31 20.5 53 20.5
c23.333 0 41.833 -6.83301 55.5 -20.5s20.5 -31.5 20.5 -53.5s-6.83301 -39.833 -20.5 -53.5s-32.167 -20.5 -55.5 -20.5c-22 0 -39.667 6.83301 -53 20.5s-20 31.5 -20 53.5z" />
    <glyph glyph-name="j" unicode="j" horiz-adv-x="349" 
d="M256 582c-2 -16.667 -3.66504 -34.667 -4.99805 -54s-2.5 -38.5 -3.5 -57.5s-1.66699 -36.833 -2 -53.5s-0.5 -31 -0.5 -43v-256c0 -34 0.166992 -65.5 0.5 -94.5s0.5 -53.5 0.5 -73.5v-41c0 -30 -2.66699 -58.5 -8 -85.5s-12 -50.833 -20 -71.5
c-15.333 -38 -41.833 -76 -79.5 -114s-81.834 -72 -132.501 -102l-24 36c40 28 70.667 57.5 92 88.5s36.833 64 46.5 99s15 72.333 16 112s1.5 82.5 1.5 128.5v418c0 18.667 -1 33.334 -3 44.001s-6.16699 19 -12.5 25s-15.666 10.667 -27.999 14
s-28.5 6.66602 -48.5 9.99902l-3 29l62.5 12.5c21 4.33301 40.667 8.83301 59 13.5s34.666 9 48.999 13s25.166 7.66699 32.499 11zM116.002 830c0 22 6.66699 39.833 20 53.5s31 20.5 53 20.5c23.333 0 41.833 -6.83301 55.5 -20.5s20.5 -31.5 20.5 -53.5
s-6.83301 -39.833 -20.5 -53.5s-32.167 -20.5 -55.5 -20.5c-22 0 -39.667 6.83301 -53 20.5s-20 31.5 -20 53.5z" />
    <glyph glyph-name="k" unicode="k" horiz-adv-x="725" 
d="M260 293c-13.333 0 -20.0029 -2.66895 -20.0029 -8.00195v-171c0 -16 0.833008 -28.833 2.5 -38.5s5.66699 -17.167 12 -22.5s15.833 -9 28.5 -11s30.334 -3.66699 53.001 -5l-2 -37c-21.333 0 -45 0.333008 -71 1s-55 1 -87 1c-26 0 -52.5 -0.333008 -79.5 -1
s-49.833 -1 -68.5 -1l-2 32c23.333 2 42.166 4.83301 56.499 8.5s25.333 9.83398 33 18.501s12.667 20.5 15 35.5s3.5 35.167 3.5 60.5v747c0 19.333 -1 34.5 -3 45.5s-6.5 19.5 -13.5 25.5s-17.167 10.667 -30.5 14s-31.333 7 -54 11l-4 29l60.5 13l60.5 14
c19.333 4.66699 37.166 9.33398 53.499 14.001s29.5 9 39.5 13l11 -8c-2.66699 -17.333 -5 -37.166 -7 -59.499s-3.5 -44.833 -4.5 -67.5s-1.66699 -44 -2 -64s-0.5 -36 -0.5 -48v-495c0 -3.33301 1 -5.5 3 -6.5s7 -1.5 15 -1.5c16.667 0 32.5 4.33301 47.5 13
s32.167 23.334 51.5 44.001l53 57c16.667 18 28.5 31.667 35.5 41s10.5 17 10.5 23c0 8.66699 -5.66699 15.167 -17 19.5s-26.666 7.5 -45.999 9.5l3 30h19c8.66699 0 17.5 -0.166992 26.5 -0.5s17.5 -0.5 25.5 -0.5h57c18.667 0 39.667 0.166992 63 0.5s52.333 1.5 87 3.5
l3 -34l-39.5 -5.5c-12.333 -1.66699 -24.333 -4.16699 -36 -7.5s-23.5 -8 -35.5 -14s-24.667 -14.333 -38 -25c-30 -23.333 -56 -46.333 -78 -69l-52 -54c-8 -8 -12 -14 -12 -18c0 -4.66699 2.33301 -9.33398 7 -14.001l139 -164l58.5 -67
c15 -16.667 28.667 -29.334 41 -38.001s25.5 -14.5 39.5 -17.5s32 -5.16699 54 -6.5l-2 -37c-18 -0 -42 0.333008 -72 1s-62 1 -96 1c-24 0 -46.667 -0.333008 -68 -1s-41.666 -1 -60.999 -1l-4 32c16.667 2 30.834 4.16699 42.501 6.5s17.5 8.16602 17.5 17.499
c0 5.33301 -1.66699 10.333 -5 15s-8.66602 11.334 -15.999 20.001l-156 183c-6 6.66699 -13 11.5 -21 14.5s-16 4.5 -24 4.5z" />
    <glyph glyph-name="l" unicode="l" horiz-adv-x="367" 
d="M254 1073c-2.66699 -17.333 -5 -37.1689 -7 -59.502s-3.5 -44.833 -4.5 -67.5s-1.66699 -44 -2 -64s-0.5 -36 -0.5 -48v-720c0 -16 1 -28.833 3 -38.5s6.66699 -17.167 14 -22.5s18 -9 32 -11s33.333 -3.66699 58 -5l-2 -37c-21.333 0 -46.833 0.333008 -76.5 1
s-60.5 1 -92.5 1c-26 0 -51.667 -0.333008 -77 -1s-47.333 -1 -66 -1l-3 32c22.667 2 40.834 4.83301 54.501 8.5s24.167 9.83398 31.5 18.501s12.166 20.5 14.499 35.5s3.5 35.167 3.5 60.5v747c0 19.333 -1 34.5 -3 45.5s-6.66699 19.5 -14 25.5s-17.833 10.667 -31.5 14
s-32.167 7 -55.5 11l-3 29l62 13l61.5 14c19.667 4.66699 37.5 9.33398 53.5 14.001s29 9 39 13z" />
    <glyph glyph-name="m" unicode="m" horiz-adv-x="1148" 
d="M346 0c-21.333 0 -45.3398 0.338867 -72.0068 1.00586s-56 1 -88 1c-26 0 -51.833 -0.333008 -77.5 -1s-47.834 -1 -66.501 -1l-3 32c22.667 2 40.834 5 54.501 9s24.334 10.167 32.001 18.5s12.667 20 15 35s3.5 35.167 3.5 60.5v259c0 18.667 -1 33.334 -3 44.001
s-6.16699 19.167 -12.5 25.5s-15.666 11.166 -27.999 14.499s-28.5 6.66602 -48.5 9.99902l-3 28c16.667 3.33301 34.5 7.33301 53.5 12s37.5 9.5 55.5 14.5l50.5 14.5c15.667 4.66699 28.5 9 38.5 13l12 -8c-2 -14 -3.66699 -27.833 -5 -41.5s-2 -27.5 -2 -41.5
c34.667 28.667 71.334 51 110.001 67s75.667 24 111 24c33.333 0 63.166 -8.16699 89.499 -24.5s46.166 -42.5 59.499 -78.5c38 32.667 77.333 58 118 76s80.334 27 119.001 27c22.667 0 44.167 -3.83301 64.5 -11.5s37.833 -19.834 52.5 -36.501
s26.334 -37.834 35.001 -63.501s13 -56.834 13 -93.501v-271c0 -16 1 -28.833 3 -38.5s6.16699 -17.167 12.5 -22.5s15.833 -9 28.5 -11s29.667 -3.66699 51 -5l-2 -37c-21.333 0 -44.833 0.333008 -70.5 1s-54.167 1 -85.5 1c-26 0 -50.833 -0.333008 -74.5 -1
s-44.834 -1 -63.501 -1l-3 32c20.667 2 37.334 4.66699 50.001 8s22.334 8.83301 29.001 16.5s11 18.667 13 33s3 34.166 3 59.499v211c0 53.333 -11.167 91.833 -33.5 115.5s-50.833 35.5 -85.5 35.5c-24.667 0 -51 -5.66699 -79 -17s-56 -26.666 -84 -45.999
c1.33301 -9.33301 2.5 -18.833 3.5 -28.5s1.5 -19.834 1.5 -30.501v-275c0 -16 1 -28.833 3 -38.5s6.16699 -17.167 12.5 -22.5s15.833 -9 28.5 -11s29.667 -3.66699 51 -5l-2 -37c-21.333 0 -44.833 0.333008 -70.5 1s-54.167 1 -85.5 1c-26 0 -50.833 -0.333008 -74.5 -1
s-44.834 -1 -63.501 -1l-11 32c20.667 2 37.834 4.66699 51.501 8s24.167 8.83301 31.5 16.5s12.5 18.667 15.5 33s4.5 34.166 4.5 59.499v211c0 53.333 -11.167 91.833 -33.5 115.5s-50.833 35.5 -85.5 35.5c-23.333 0 -48.666 -5.16699 -75.999 -15.5
s-54.666 -24.833 -81.999 -43.5v-338c0 -16 0.833008 -28.833 2.5 -38.5s5.83398 -17.167 12.501 -22.5s16.5 -9 29.5 -11s30.5 -3.66699 52.5 -5z" />
    <glyph glyph-name="n" unicode="n" horiz-adv-x="778" 
d="M346 0c-21.333 0 -45.3359 0.337891 -72.0029 1.00488s-56 1 -88 1c-26 0 -51.833 -0.333008 -77.5 -1s-47.834 -1 -66.501 -1l-3 32c22.667 2 40.834 5 54.501 9s24.334 10.167 32.001 18.5s12.667 20 15 35s3.5 35.167 3.5 60.5v259c0 18.667 -1 33.334 -3 44.001
s-6.16699 19.167 -12.5 25.5s-15.666 11.166 -27.999 14.499s-28.5 6.66602 -48.5 9.99902l-3 28c16.667 3.33301 34.5 7.33301 53.5 12s37.5 9.5 55.5 14.5l50.5 14.5c15.667 4.66699 28.5 9 38.5 13l12 -8c-2 -14 -3.66699 -27.833 -5 -41.5s-2 -27.5 -2 -41.5
c36 28.667 74.167 51 114.5 67s78.833 24 115.5 24c24 0 46.5 -3.83301 67.5 -11.5s39.167 -19.834 54.5 -36.501s27.5 -37.834 36.5 -63.501s13.5 -56.834 13.5 -93.501v-271c0 -16 1 -28.833 3 -38.5s6.16699 -17.167 12.5 -22.5s15.833 -9 28.5 -11
s29.667 -3.66699 51 -5l-2 -37c-21.333 0 -44.833 0.333008 -70.5 1s-54.5 1 -86.5 1c-26 0 -50.833 -0.333008 -74.5 -1s-44.834 -1 -63.501 -1l-3 32c20.667 2 37.334 4.66699 50.001 8s22.334 8.83301 29.001 16.5s11 18.667 13 33s3 34.166 3 59.499v211
c0 53.333 -11.833 91.833 -35.5 115.5s-53.5 35.5 -89.5 35.5c-25.333 0 -52.333 -5.16699 -81 -15.5s-57.334 -24.833 -86.001 -43.5v-338c0 -16 0.833008 -28.833 2.5 -38.5s5.83398 -17.167 12.501 -22.5s16.5 -9 29.5 -11s30.5 -3.66699 52.5 -5z" />
    <glyph glyph-name="o" unicode="o" horiz-adv-x="711" 
d="M54 279c0 42.667 7.83496 83 23.502 121s37 71 64 99s58.833 50.167 95.5 66.5s76 24.5 118 24.5c45.333 0 86.666 -7.83301 123.999 -23.5s69.166 -37 95.499 -64s46.666 -58.667 60.999 -95s21.5 -75.166 21.5 -116.499c0 -43.333 -7.83301 -83.833 -23.5 -121.5
s-37 -70.5 -64 -98.5s-59 -50.167 -96 -66.5s-76.5 -24.5 -118.5 -24.5c-45.333 0 -86.5 7.83301 -123.5 23.5s-68.667 37 -95 64s-46.666 58.667 -60.999 95s-21.5 75.166 -21.5 116.499zM368.002 29c29.333 0 54.5 6.99902 75.5 20.999s38.333 32 52 54
s23.667 46.667 30 74s9.5 54.666 9.5 81.999c0 32 -3.5 64.667 -10.5 98s-18.167 63.5 -33.5 90.5s-35.166 49.167 -59.499 66.5s-53.833 26 -88.5 26c-30 0 -55.5 -6.83301 -76.5 -20.5s-38.167 -31.5 -51.5 -53.5s-23.166 -46.667 -29.499 -74s-9.5 -54.666 -9.5 -81.999
c0 -30.667 3.66699 -62.667 11 -96s18.666 -63.666 33.999 -90.999s35.166 -50 59.499 -68s53.5 -27 87.5 -27z" />
    <glyph glyph-name="p" unicode="p" horiz-adv-x="742" 
d="M243 582c-1.33301 -11.333 -2.66797 -21.3281 -4.00098 -29.9951s-2 -20.667 -2 -36v-4l1 2c30.667 26.667 62 46 94 58s63.667 18 95 18c34.667 0 67.834 -7 99.501 -21s59.5 -33.333 83.5 -58s43.167 -54.167 57.5 -88.5s21.5 -71.5 21.5 -111.5
c0 -48.667 -9.16699 -93.334 -27.5 -134.001s-43.333 -75.5 -75 -104.5s-68.5 -51.667 -110.5 -68s-87 -24.5 -135 -24.5c-4.66699 0 -10.834 0.333008 -18.501 1s-16.167 1.66699 -25.5 3s-19.166 3.16602 -29.499 5.49902s-20.5 5.16602 -30.5 8.49902v-325
c0 -16 1.16699 -29 3.5 -39s8 -17.833 17 -23.5s22.667 -9.83398 41 -12.501s43.5 -4.66699 75.5 -6l-2 -37c-10.667 0 -24 0.166992 -40 0.5s-33.333 0.5 -52 0.5c-18 0 -36.333 0.166992 -55 0.5s-36 0.5 -52 0.5c-26 0 -51.667 -0.333008 -77 -1s-47.333 -1 -66 -1l-3 32
c22.667 2 40.834 5 54.501 9s24.167 10.167 31.5 18.5s12.166 20 14.499 35s3.5 35.167 3.5 60.5v704c0 18.667 -1 33.334 -3 44.001s-6.66699 19.167 -14 25.5s-17.833 11.166 -31.5 14.499s-32.167 6.66602 -55.5 9.99902l-3 28c20 4 40.333 8.33301 61 13
s40.5 9.5 59.5 14.5s36 9.83301 51 14.5s26.833 8.66699 35.5 12zM237.998 93.0049c18 -20.667 39.666 -35.333 64.999 -44s51 -13 77 -13c32 0 59.667 6.33301 83 19s42.666 29.834 57.999 51.501s26.833 46.5 34.5 74.5s11.5 57.333 11.5 88
c0 31.333 -4.33301 61.5 -13 90.5s-21.167 54.667 -37.5 77s-36.666 40.166 -60.999 53.499s-52.166 20 -83.499 20c-55.333 0 -100 -14.333 -134 -43v-374z" />
    <glyph glyph-name="q" unicode="q" horiz-adv-x="721" 
d="M626 574c-2 -17.333 -3.83203 -36.668 -5.49902 -58.001s-3 -42.5 -4 -63.5s-1.83301 -40.833 -2.5 -59.5s-1 -34 -1 -46v-677c0 -16 1 -28.833 3 -38.5s6.5 -17.167 13.5 -22.5s17.5 -9 31.5 -11s33 -3.66699 57 -5l-3 -37c-21.333 0 -46.5 0.333008 -75.5 1
s-59.5 1 -91.5 1c-12.667 0 -26.667 -0.166992 -42 -0.5s-30.666 -0.5 -45.999 -0.5s-29.833 -0.166992 -43.5 -0.5s-25.167 -0.5 -34.5 -0.5l-3 32c30 2 53.333 5 70 9s29.334 10.167 38.001 18.5s14 20 16 35s3 35.167 3 60.5v338c-34 -24 -67.5 -41.333 -100.5 -52
s-65.5 -16 -97.5 -16c-38.667 0 -73.834 7.33301 -105.501 22s-58.667 34.5 -81 59.5s-39.5 54.5 -51.5 88.5s-18 70.333 -18 109c0 48.667 9.16699 93.167 27.5 133.5s43.5 75 75.5 104s69.333 51.667 112 68s88 24.5 136 24.5c17.333 0 40.5 -2.16699 69.5 -6.5
s57.167 -10.833 84.5 -19.5c9.33301 2 19.666 4.83301 30.999 8.5s20.666 6.83398 27.999 9.50098zM506.001 475.998c-19.333 20.667 -41.832 36.1689 -67.499 46.502s-52.5 15.5 -80.5 15.5c-20.667 0 -41.834 -4.33301 -63.501 -13s-41.5 -22.5 -59.5 -41.5
s-32.667 -43.667 -44 -74s-17 -67.5 -17 -111.5c0 -39.333 5.83301 -73.833 17.5 -103.5s27 -54.834 46 -75.501s40.167 -36.167 63.5 -46.5s47 -15.5 71 -15.5s47.5 3.16699 70.5 9.5s44.167 17.166 63.5 32.499v377z" />
    <glyph glyph-name="r" unicode="r" horiz-adv-x="512" 
d="M377 0c-10.667 0 -23.5 0.165039 -38.5 0.498047s-31.167 0.5 -48.5 0.5s-35 0.166992 -53 0.5s-35 0.5 -51 0.5c-26 0 -51 -0.333008 -75 -1s-45.333 -1 -64 -1l-3 32c22 2 39.5 4.83301 52.5 8.5s23 9.83398 30 18.501s11.667 20.5 14 35.5s3.5 35.167 3.5 60.5v259
c0 18.667 -1 33.334 -3 44.001s-6.16699 19.167 -12.5 25.5s-15.833 11.166 -28.5 14.499s-29.667 6.66602 -51 9.99902l-3 28c18 3.33301 36.667 7.16602 56 11.499s38 9 56 14s34.833 10 50.5 15s28.5 9.5 38.5 13.5l12 -8c-3.33301 -20.667 -5.33301 -41.167 -6 -61.5
s-1 -40.5 -1 -60.5c21.333 26 40.166 47.5 56.499 64.5s31.333 30.333 45 40s26.167 16.334 37.5 20.001s23 5.5 35 5.5c8.66699 0 17.667 -1 27 -3s18 -5.33301 26 -10s14.5 -10.5 19.5 -17.5s7.5 -15.5 7.5 -25.5c0 -13.333 -8.33301 -28 -25 -44s-35 -30.667 -55 -44
c-12 10.667 -23.333 18.834 -34 24.501s-23.667 8.5 -39 8.5s-32 -6.66699 -50 -20s-32.667 -32.666 -44 -57.999c-3.33301 -7.33301 -5.33301 -13.833 -6 -19.5s-1 -13.167 -1 -22.5v-245c0 -16 1.16699 -28.833 3.5 -38.5s7.83301 -17.167 16.5 -22.5
s21.334 -9 38.001 -11s39.667 -3.66699 69 -5z" />
    <glyph glyph-name="s" unicode="s" horiz-adv-x="522" 
d="M417 400c-2 20.667 -7.16504 39.832 -15.498 57.499s-19.333 32.834 -33 45.501s-29.5 22.5 -47.5 29.5s-37.333 10.5 -58 10.5c-12.667 0 -24.834 -2 -36.501 -6s-22 -9.66699 -31 -17s-16.167 -16.5 -21.5 -27.5s-8 -23.5 -8 -37.5
c0 -16.667 4.16699 -31.167 12.5 -43.5s19.333 -23.333 33 -33s29.334 -18.167 47.001 -25.5l54.5 -22c20.667 -8.66699 41.167 -17.834 61.5 -27.501s38.5 -21 54.5 -34s28.833 -28.5 38.5 -46.5s14.5 -39.333 14.5 -64c0 -31.333 -6.66699 -58.166 -20 -80.499
s-30.666 -40.833 -51.999 -55.5s-45.5 -25.5 -72.5 -32.5s-54.167 -10.5 -81.5 -10.5c-17.333 0 -34.833 1.33301 -52.5 4s-34.167 5.66699 -49.5 9l-40.5 9.5c-13 3 -27.167 5.16699 -42.5 6.5c-0.666992 11.333 -1.83398 25.666 -3.50098 42.999s-3.5 35 -5.5 53
s-4.16699 35.167 -6.5 51.5s-4.83301 29.166 -7.5 38.499l34 9c9.33301 -22.667 19.666 -44.667 30.999 -66s24.833 -40.166 40.5 -56.499s33.5 -29.5 53.5 -39.5s43.667 -15 71 -15c26 0 49 7.16699 69 21.5s30 36.166 30 65.499c0 16.667 -3.83301 31.5 -11.5 44.5
s-18 24.5 -31 34.5s-27.667 18.833 -44 26.5s-33.5 15.167 -51.5 22.5c-20.667 8.66699 -41.167 17.834 -61.5 27.501s-38.5 21 -54.5 34s-29 28.5 -39 46.5s-15 39.667 -15 65c0 30.667 6.5 57 19.5 79s29.667 40.167 50 54.5s43.5 24.833 69.5 31.5s52 10 78 10
c26.667 0 53.167 -2.66699 79.5 -8s56.166 -8.66602 89.499 -9.99902c-2 -21.333 -3.33301 -41.5 -4 -60.5s-1 -39.5 -1 -61.5v-49z" />
    <glyph glyph-name="t" unicode="t" horiz-adv-x="434" 
d="M231 780c-1.33301 -16 -2.50098 -34.5039 -3.50098 -55.5039s-1.83301 -42 -2.5 -63s-1.16699 -40.667 -1.5 -59s-0.5 -33.166 -0.5 -44.499l171 3l8 -7l-3 -51h-176v-322c0 -26 2.5 -47.333 7.5 -64s12 -30 21 -40s19.5 -16.833 31.5 -20.5s25 -5.5 39 -5.5
c14.667 0 30 1.66699 46 5l47 10l7 -36c-26 -12.667 -54 -23.5 -84 -32.5s-59 -13.5 -87 -13.5c-19.333 0 -37.166 2.5 -53.499 7.5s-30.833 13.5 -43.5 25.5s-22.5 27.833 -29.5 47.5s-10.5 43.834 -10.5 72.501v27c0 12 0.166992 31.333 0.5 58s0.5 62.334 0.5 107.001
v174h-90l-7 7l4 39l93 7v83c0 16.667 -0.166992 33.667 -0.5 51s-0.5 34 -0.5 50l31 12.5l31 12.5c10 4 18.833 7.83301 26.5 11.5s13.5 6.83398 17.5 9.50098z" />
    <glyph glyph-name="u" unicode="u" horiz-adv-x="755" 
d="M509 -6c1.33301 12 2.33496 26.166 3.00195 42.499s1 30.5 1 42.5c-34.667 -31.333 -71.834 -55.666 -111.501 -72.999s-77.834 -26 -114.501 -26c-24.667 0 -47.334 4 -68.001 12s-38.667 20.5 -54 37.5s-27.333 38.833 -36 65.5s-13 58.667 -13 96v239
c0 18.667 -1 33.334 -3 44.001s-6.16699 19.167 -12.5 25.5s-15.333 11 -27 14s-27.167 6.16699 -46.5 9.5l-2 29c21.333 2.66699 42.5 5.66699 63.5 9s40.667 6.66602 59 9.99902s34.333 6.66602 48 9.99902s24.167 6.33301 31.5 9l10 -8c-2 -16.667 -3.5 -34.5 -4.5 -53.5
l-3 -55.5c-1 -18 -1.66699 -35.167 -2 -51.5s-0.5 -30.5 -0.5 -42.5v-150c0 -31.333 3.16699 -57.833 9.5 -79.5s14.833 -39.167 25.5 -52.5s23.334 -22.833 38.001 -28.5s30.334 -8.5 47.001 -8.5c27.333 0 55.5 5.83301 84.5 17.5s56.167 27.167 81.5 46.5v306
c0 18.667 -1 33.334 -3 44.001s-6.33301 19.167 -13 25.5s-16.5 11 -29.5 14s-30.5 6.16699 -52.5 9.5l-2 29c22.667 2.66699 45.167 5.66699 67.5 9s42.833 6.83301 61.5 10.5l49 10c14 3 24 5.83301 30 8.5l11 -8c-2 -16.667 -3.66699 -34.5 -5 -53.5
s-2.5 -37.5 -3.5 -55.5s-1.66699 -35.167 -2 -51.5s-0.5 -30.5 -0.5 -42.5v-233c0 -19.333 1 -34.333 3 -45s6.5 -19 13.5 -25s17.167 -10.5 30.5 -13.5s31.666 -6.16699 54.999 -9.5l4 -29c-20 -2 -40.5 -4.5 -61.5 -7.5s-41 -6.16699 -60 -9.5s-36.167 -7 -51.5 -11
s-27 -7.33301 -35 -10z" />
    <glyph glyph-name="v" unicode="v" horiz-adv-x="644" 
d="M295 -19c-28.667 80.667 -58.499 158.332 -89.499 232.999l-94.5 224c-8.66699 20 -16.5 36 -23.5 48s-15 21.333 -24 28s-19.667 11.334 -32 14.001s-28.166 4.66699 -47.499 6l2 37c22 0 46.667 -0.333008 74 -1s56 -1 86 -1c26 0 49.833 0.333008 71.5 1
s42.167 1 61.5 1l2 -33c-26.667 -3.33301 -45.334 -7.33301 -56.001 -12s-16 -12.667 -16 -24c0 -5.33301 1.16699 -11.833 3.5 -19.5s5.16602 -16.167 8.49902 -25.5l128 -319l135 321c3.33301 8.66699 6.16602 16.5 8.49902 23.5s3.5 13.167 3.5 18.5
c0 10.667 -5.83301 19 -17.5 25s-32.5 9.66699 -62.5 11l2 34c20.667 0 41 -0.333008 61 -1s45.333 -1 76 -1c23.333 0 43.833 0.333008 61.5 1s34.834 1 51.501 1l2 -32c-20 -2.66699 -36 -5.66699 -48 -9s-22.5 -8.5 -31.5 -15.5s-17.167 -16.5 -24.5 -28.5
s-16 -28 -26 -48c-12 -23.333 -25.5 -51 -40.5 -83l-48 -106l-53.5 -125l-57 -139z" />
    <glyph glyph-name="w" unicode="w" horiz-adv-x="975" 
d="M735 571c20.667 0 42.1631 -0.328125 64.4961 -0.995117s48.833 -1 79.5 -1c23.333 0 43.833 0.333008 61.5 1s34.834 1 51.501 1l2 -32c-20 -2.66699 -36 -5.33398 -48 -8.00098s-22 -7 -30 -13s-15.167 -14.667 -21.5 -26s-13.5 -27 -21.5 -47l-36 -90.5l-42.5 -111.5
l-46.5 -125.5l-49 -132.5l-40 -4l-84 215.5l-87 218.5l-85.5 -209c-28.333 -68.667 -56.833 -142.334 -85.5 -221.001l-40 -4l-78 235c-26 78 -53.333 154.333 -82 229c-7.33301 18.667 -13.666 33.667 -18.999 45s-11.666 20 -18.999 26s-16.666 10.167 -27.999 12.5
s-27 4.16602 -47 5.49902l2 37c22 0 45 -0.333008 69 -1s51 -1 81 -1c26 0 51.5 0.333008 76.5 1s47.167 1 66.5 1l2 -33c-30.667 -2.66699 -52 -6.5 -64 -11.5s-18 -14.167 -18 -27.5c0 -14.667 2.33301 -26.334 7 -35.001l50 -154.5c17.333 -53 35.333 -104.833 54 -155.5
l80 192l87 210l44 5l79 -202c26.667 -68 56 -136.333 88 -205l27.5 72.5l28.5 78.5l27.5 79.5l24.5 74.5c5.33301 21.333 8 33.666 8 36.999c0 14 -6.66699 23.5 -20 28.5s-37 9.16699 -71 12.5z" />
    <glyph glyph-name="x" unicode="x" horiz-adv-x="673" 
d="M311 538c-18.667 -1.33301 -32.001 -3.83398 -40.001 -7.50098s-12 -9.16699 -12 -16.5c0 -8 4.33301 -18.333 13 -31l86 -126l80 117c10.667 14.667 16 26.667 16 36c0 14.667 -18.667 23.667 -56 27l2 34c21.333 0 43.166 -0.333008 65.499 -1s44.166 -1 65.499 -1
s41.333 0.333008 60 1s38.667 1 60 1l2 -32c-22 -2.66699 -40.667 -5.83398 -56 -9.50098s-29.5 -9.16699 -42.5 -16.5s-25.5 -17.166 -37.5 -29.499s-25.667 -28.5 -41 -48.5l-91 -118l129 -188c13.333 -19.333 24.833 -34.666 34.5 -45.999s19.834 -20.333 30.501 -27
s22.834 -11.167 36.501 -13.5s31.167 -4.16602 52.5 -5.49902l-2 -37c-21.333 0 -46.166 0.333008 -74.499 1s-55.166 1 -80.499 1s-50 -0.333008 -74 -1s-45.667 -1 -65 -1l-2 32c37.333 2.66699 56 12 56 28c0 3.33301 -1.16699 8.16602 -3.5 14.499
s-6.16602 13.833 -11.499 22.5l-96 140l-90 -132c-12 -17.333 -18 -31 -18 -41c0 -9.33301 5 -16.333 15 -21s26.667 -7.66699 50 -9l-2 -34c-21.333 -0 -44.333 0.333008 -69 1s-47.667 1 -69 1s-41.333 -0.333008 -60 -1s-38.667 -1 -60 -1l-2 32
c19.333 2 36 4.66699 50 8s26.833 8.5 38.5 15.5s23.167 16.167 34.5 27.5s24 26 38 44l116 151l-121 177c-11.333 16.667 -21 30 -29 40s-16.667 17.667 -26 23s-20.333 9 -33 11s-29.334 3.66699 -50.001 5l2 37c21.333 0 45 -0.333008 71 -1s51.333 -1 76 -1
c21.333 0 43.666 0.333008 66.999 1s45 1 65 1z" />
    <glyph glyph-name="y" unicode="y" horiz-adv-x="661" 
d="M687 539c-20 -2.66699 -36 -5.66895 -48 -9.00195s-22.5 -8.5 -31.5 -15.5s-17.167 -16.5 -24.5 -28.5s-16 -28 -26 -48c-15.333 -30.667 -32 -66.167 -50 -106.5l-55.5 -128.5l-57.5 -140.5l-56 -142.5l-41.5 -100.5c-14.333 -34.333 -29.166 -66.833 -44.499 -97.5
s-31 -58.167 -47 -82.5s-32 -42.833 -48 -55.5c-33.333 -28 -67 -42 -101 -42c-17.333 0 -32.5 5.33301 -45.5 16s-19.5 25.334 -19.5 44.001c0 14.667 4.16699 27.5 12.5 38.5s19.166 20.167 32.499 27.5l20 -3.5c6 -1 11.667 -1.5 17 -1.5
c15.333 0 29.833 2.16699 43.5 6.5s25.834 11.833 36.501 22.5c24 25.333 47.5 61 70.5 107s46.167 99.333 69.5 160l2 8l-3 14l-43 114l-46.5 120l-47 117l-44.5 106c-8.66699 20 -16.5 36 -23.5 48s-15 21.333 -24 28s-19.667 11.334 -32 14.001
s-28.166 4.66699 -47.499 6l2 37c22 0 46.667 -0.333008 74 -1s56 -1 86 -1c26 0 49.833 0.333008 71.5 1s42.167 1 61.5 1l2 -33c-26.667 -3.33301 -45.334 -7.33301 -56.001 -12s-16 -12.667 -16 -24c0 -5.33301 1.16699 -11.833 3.5 -19.5s5.16602 -16.167 8.49902 -25.5
l133 -346l146 348c7.33301 23.333 11 36.666 11 39.999c0 12.667 -5.66699 21.834 -17 27.501s-32 9.16699 -62 10.5l2 34c20.667 0 41 -0.333008 61 -1s45.333 -1 76 -1c23.333 0 44 0.333008 62 1s35.333 1 52 1z" />
    <glyph glyph-name="z" unicode="z" horiz-adv-x="605" 
d="M42 16l77 104.501l84.5 115.5l76.5 105.5l52 73.5l75 109h-115c-32 0 -58 -1.5 -78 -4.5s-36.167 -9.33301 -48.5 -19s-22.166 -23.334 -29.499 -41.001s-14.333 -40.834 -21 -69.501l-33 1c0 36 -0.333008 67.667 -1 95s-2.33398 55.333 -5.00098 84h127
c34 0 62.5 -0.166992 85.5 -0.5s41.833 -0.5 56.5 -0.5h43c10.667 0 23.167 0.166992 37.5 0.5s28.833 0.5 43.5 0.5s28.834 0.166992 42.501 0.5s25.167 0.5 34.5 0.5l12 -16l-77 -105.5l-84 -116.5l-75 -104.5l-49 -69.5l-78 -113h163c26.667 0 49.167 2.33301 67.5 7
s34.5 12.5 48.5 23.5s26.833 25.333 38.5 43s24.5 39.834 38.5 66.501l34 -9c-8 -29.333 -15.167 -60.333 -21.5 -93s-10.166 -60.667 -11.499 -84h-140c-36 0 -66.167 0.166992 -90.5 0.5s-44.833 0.5 -61.5 0.5h-93c-14.667 0 -29.334 -0.166992 -44.001 -0.5
s-28.334 -0.5 -41.001 -0.5h-31z" />
    <glyph glyph-name="braceleft" unicode="{" horiz-adv-x="499" 
d="M31 406c32.667 2 58.3301 7.49609 76.9971 16.4961s32.834 19.833 42.501 32.5s15.834 26.334 18.501 41.001s4 28.667 4 42c0 24.667 -1 50.167 -3 76.5s-4.33301 52.833 -7 79.5s-5 52.834 -7 78.501s-3 50.167 -3 73.5c0 44 7.16699 79 21.5 105
s32.833 45.667 55.5 59s47.334 22 74.001 26s52.667 6 78 6l2 -37c-30.667 -2 -55.167 -7.5 -73.5 -16.5s-32.333 -20.167 -42 -33.5s-16 -28 -19 -44s-4.5 -32.333 -4.5 -49c0 -22.667 1.16699 -45.5 3.5 -68.5s5 -46.167 8 -69.5s5.66699 -46.833 8 -70.5
s3.5 -47.167 3.5 -70.5c0 -21.333 -1.83301 -41.666 -5.5 -60.999s-10.5 -37.5 -20.5 -54.5s-23.667 -32.333 -41 -46s-39.333 -24.834 -66 -33.501v-3c26.667 -8.66699 48.667 -19.667 66 -33s31 -28.5 41 -45.5s16.833 -35.333 20.5 -55s5.5 -39.834 5.5 -60.501
c0 -23.333 -1.16699 -46.833 -3.5 -70.5s-5 -47.167 -8 -70.5s-5.66699 -46.666 -8 -69.999s-3.5 -46.333 -3.5 -69c0 -16 1.5 -32 4.5 -48s9.33301 -30.667 19 -44s23.667 -24.5 42 -33.5s42.833 -14.5 73.5 -16.5l-2 -37c-25.333 0 -51.333 2 -78 6
s-51.334 12.667 -74.001 26s-41.167 33 -55.5 59s-21.5 61 -21.5 105c0 23.333 1 47.833 3 73.5s4.33301 51.834 7 78.501s5 53.167 7 79.5s3 51.833 3 76.5c0 13.333 -1.33301 27.333 -4 42s-9 28.334 -19 41.001s-24.667 23.5 -44 32.5s-45.666 14.5 -78.999 16.5z" />
    <glyph glyph-name="bar" unicode="|" horiz-adv-x="385" 
d="M225 -463l-65 -4v1567l65 7v-1570z" />
    <glyph glyph-name="braceright" unicode="}" horiz-adv-x="499" 
d="M468 368c-32.667 -2 -58.3301 -7.49707 -76.9971 -16.4971s-32.834 -19.833 -42.501 -32.5s-15.834 -26.334 -18.501 -41.001s-4 -28.667 -4 -42c0 -24.667 1 -50.167 3 -76.5s4.33301 -52.833 7 -79.5s5 -52.834 7 -78.501s3 -50.167 3 -73.5
c0 -44 -7.16699 -79 -21.5 -105s-32.833 -45.667 -55.5 -59s-47.5 -22 -74.5 -26s-52.833 -6 -77.5 -6l-2 37c30.667 2 55.167 7.5 73.5 16.5s32.333 20.167 42 33.5s16 28 19 44s4.5 32.333 4.5 49c0 22.667 -1.16699 45.5 -3.5 68.5s-5 46.167 -8 69.5
s-5.66699 46.833 -8 70.5s-3.5 47.167 -3.5 70.5c0 20.667 1.83301 40.834 5.5 60.501s10.5 38 20.5 55s23.5 32.333 40.5 46s39.167 24.834 66.5 33.501v3c-27.333 8.66699 -49.5 19.667 -66.5 33s-30.5 28.5 -40.5 45.5s-16.833 35.167 -20.5 54.5
s-5.5 39.666 -5.5 60.999c0 23.333 1.16699 46.833 3.5 70.5s5 47.167 8 70.5s5.66699 46.5 8 69.5s3.5 46.167 3.5 69.5c0 16 -1.5 32 -4.5 48s-9.33301 30.667 -19 44s-23.667 24.5 -42 33.5s-42.833 14.5 -73.5 16.5l2 37c24.667 0 50.5 -2 77.5 -6
s51.833 -12.667 74.5 -26s41.167 -33 55.5 -59s21.5 -61 21.5 -105c0 -23.333 -1 -47.833 -3 -73.5s-4.33301 -51.834 -7 -78.501s-5 -53.167 -7 -79.5s-3 -51.833 -3 -76.5c0 -13.333 1.33301 -27.333 4 -42s9 -28.334 19 -41.001s24.667 -23.5 44 -32.5
s45.666 -14.5 78.999 -16.5z" />
    <glyph glyph-name="asciitilde" unicode="~" horiz-adv-x="680" 
d="M46 239c10.667 42 30.5 75.333 59.5 100s63.5 37 103.5 37c28 0 53.833 -5.16699 77.5 -15.5s46.5 -21.833 68.5 -34.5c20.667 -11.333 41.167 -21.666 61.5 -30.999s41.166 -14 62.499 -14c28 0 49 8.66699 63 26s26 40 36 68l56 -23
c-10.667 -42 -30.5 -75.333 -59.5 -100s-63.5 -37 -103.5 -37c-28 0 -53.833 5.16699 -77.5 15.5s-46.5 21.833 -68.5 34.5c-20.667 11.333 -41.167 21.666 -61.5 30.999s-41.166 14 -62.499 14c-28 0 -49 -8.66699 -63 -26s-26 -40 -36 -68z" />
    <glyph glyph-name="uni00A0" unicode="&#xa0;" horiz-adv-x="500" 
 />
    <glyph glyph-name="exclamdown" unicode="&#xa1;" horiz-adv-x="388" 
d="M107 -372l-7.00098 6.99805c8 48 15.5 101.833 22.5 161.5s13.333 120.167 19 181.5s10.834 121.333 15.501 180s8.66699 111.667 12 159l44 5c2 -44 4.66699 -96.167 8 -156.5s7 -122.166 11 -185.499s8.16699 -124.666 12.5 -183.999s8.5 -110 12.5 -152z
M267.999 509.998c0 -22 -7.5 -40.833 -22.5 -56.5s-33.167 -23.5 -54.5 -23.5s-39.5 7.83301 -54.5 23.5s-22.5 34.5 -22.5 56.5s7.5 40.833 22.5 56.5s33.167 23.5 54.5 23.5s39.5 -7.83301 54.5 -23.5s22.5 -34.5 22.5 -56.5z" />
    <glyph glyph-name="cent" unicode="&#xa2;" horiz-adv-x="680" 
d="M398 680l-0.00195312 -91.998c0.666992 0.666992 4 1 10 1h18c23.333 0 46.5 -1.83301 69.5 -5.5s45.5 -11.167 67.5 -22.5c9.33301 -4.66699 15.833 -10.834 19.5 -18.501s5.5 -15.167 5.5 -22.5c0 -12 -4.16699 -23.833 -12.5 -35.5s-23.166 -22.834 -44.499 -33.501
h-5c-21.333 19.333 -42.166 34.666 -62.499 45.999s-42.166 18.666 -65.499 21.999v-454c36.667 0 71.167 6.16699 103.5 18.5s58.5 33.5 78.5 63.5l29 -26c-20.667 -38 -50 -68.667 -88 -92s-79 -38.333 -123 -45v-89l-58 -6v93c-40.667 2 -77.667 11 -111 27
s-62 36.833 -86 62.5s-42.667 55.167 -56 88.5s-20 68.333 -20 105c0 38.667 7 75.334 21 110.001s33.167 65.667 57.5 93s53.166 50.833 86.499 70.5s69.333 33.834 108 42.501v94zM339.998 520.002c-27.333 -2.66699 -51.167 -10.166 -71.5 -22.499
s-37.333 -27.666 -51 -45.999s-24 -39.333 -31 -63s-10.5 -47.834 -10.5 -72.501c0 -28 3.66699 -55 11 -81s18 -49.833 32 -71.5s31.167 -40.334 51.5 -56.001s43.5 -27.167 69.5 -34.5v447z" />
    <glyph glyph-name="sterling" unicode="&#xa3;" horiz-adv-x="680" 
d="M513 761c-12.667 16.667 -29.833 29.1631 -51.5 37.4961s-42.5 12.5 -62.5 12.5c-23.333 0 -43.5 -5.5 -60.5 -16.5s-30.833 -25.5 -41.5 -43.5s-18.5 -38.167 -23.5 -60.5s-7.5 -44.833 -7.5 -67.5c0 -25.333 2.66699 -53.5 8 -84.5s8.66602 -64.5 9.99902 -100.5l219 8
l8 -7l-9 -56h-218c-2.66699 -38.667 -12.834 -77.5 -30.501 -116.5s-46.5 -78.5 -86.5 -118.5l2 -4c6 2.66699 18.667 4 38 4c20.667 0 40.834 -3.66699 60.501 -11s39.5 -15.333 59.5 -24s40 -16.667 60 -24s40.333 -11 61 -11c18.667 0 35.334 4 50.001 12
s27.5 18.5 38.5 31.5s20.667 27.5 29 43.5s15.833 32 22.5 48l38 -9c-4.66699 -15.333 -9.33398 -32.166 -14.001 -50.499s-9 -36.166 -13 -53.499s-7.16699 -33.5 -9.5 -48.5s-3.5 -26.833 -3.5 -35.5c-23.333 -10 -47.666 -18.5 -72.999 -25.5s-51 -10.5 -77 -10.5
c-37.333 0 -68.666 4.33301 -93.999 13s-48.166 18.167 -68.499 28.5l-58 28.5c-18.333 8.66699 -39.166 13 -62.499 13c-24.667 0 -46 -6.16699 -64 -18.5s-35.667 -28.166 -53 -47.499l-31 34c38.667 32.667 68.667 63.5 90 92.5s37.333 55.833 48 80.5s17.167 47 19.5 67
s3.5 37.667 3.5 53c0 9.33301 -0.333008 18.833 -1 28.5l-2 30.5h-117l-7 7l9 40l110 3c-3.33301 22.667 -6 44.667 -8 66s-3 42 -3 62c0 24 4 49 12 75s19.333 51.333 34 76s32.167 48.334 52.5 71.001s43.166 42.334 68.499 59.001s52.666 30 81.999 40s60 15 92 15
c6.66699 0 14.667 -0.833008 24 -2.5s18.166 -4.83398 26.499 -9.50098s15.333 -10.834 21 -18.501s8.5 -17.5 8.5 -29.5c0 -22.667 -5 -39.167 -15 -49.5s-22.667 -19.166 -38 -26.499h-2z" />
    <glyph glyph-name="currency" unicode="&#xa4;" horiz-adv-x="680" 
d="M114 742l86.001 -100c19.333 14.667 40.833 25.834 64.5 33.501s48.834 11.5 75.501 11.5c25.333 0 49.666 -3.83301 72.999 -11.5s44.666 -18.167 63.999 -31.5l82 85l65 -43l-99 -86c17.333 -20.667 30.833 -43.834 40.5 -69.501s14.5 -53.5 14.5 -83.5
s-4.83301 -57.667 -14.5 -83s-23.167 -48.333 -40.5 -69l82 -78l-43 -65l-86 99c-19.333 -14 -40.833 -24.833 -64.5 -32.5s-48.167 -11.5 -73.5 -11.5c-26.667 0 -51.667 4 -75 12s-44.333 19 -63 33l-82 -85l-65 43l99 86c-36 42 -54 92.333 -54 151s18 109 54 151l-83 79
zM176.001 448c0 -24.667 4 -47.667 12 -69s19.167 -40 33.5 -56s31.5 -28.667 51.5 -38s42.333 -14 67 -14s47 4.66699 67 14s37.167 22 51.5 38s25.5 34.667 33.5 56s12 44.333 12 69s-4 47.834 -12 69.501s-19.167 40.5 -33.5 56.5s-31.5 28.667 -51.5 38
s-42.333 14 -67 14s-47 -4.66699 -67 -14s-37.167 -22 -51.5 -38s-25.5 -34.833 -33.5 -56.5s-12 -44.834 -12 -69.501z" />
    <glyph glyph-name="yen" unicode="&#xa5;" horiz-adv-x="680" 
d="M70 414l193.998 0.00195312c-14 30 -26.5 55.5 -37.5 76.5s-22.167 41 -33.5 60l-36 59l-45 73.5c-15.333 26 -28.5 47 -39.5 63s-22.333 28.833 -34 38.5s-24.834 16.5 -39.501 20.5s-33 7 -55 9l2 36c22.667 0 49.667 -0.333008 81 -1s64 -1 98 -1
c28 0 54 0.333008 78 1s47.667 1 71 1l3 -34c-28 -2.66699 -48.333 -7 -61 -13s-19 -15 -19 -27c0 -8 2.33301 -17.667 7 -29s11 -24 19 -38l133 -235l127 221c12.667 21.333 21.167 37.666 25.5 48.999s6.5 21.666 6.5 30.999c0 21.333 -29.667 34.333 -89 39l3 36
c12 0 23.333 -0.166992 34 -0.5s21.334 -0.5 32.001 -0.5c11.333 0 23 -0.166992 35 -0.5s25.667 -0.5 41 -0.5c24.667 0 48.5 0.333008 71.5 1s46.833 1 71.5 1l3 -34c-24 -2 -43.667 -5.33301 -59 -10s-29.5 -12.5 -42.5 -23.5s-26 -26.167 -39 -45.5
s-28.833 -44.333 -47.5 -75l-43 -72l-34.5 -60.5l-29.5 -56.5c-9.33301 -18.667 -18.666 -38.334 -27.999 -59.001h197l-4 -52h-201v-90h194l-4 -52h-190v-95c0 -16 1.33301 -29.333 4 -40s8.66699 -19.5 18 -26.5s23.5 -12.167 42.5 -15.5s44.833 -5.66602 77.5 -6.99902
l-2 -36c-14 0 -29.5 0.166992 -46.5 0.5s-34.833 0.5 -53.5 0.5c-18 0 -36.333 0.166992 -55 0.5s-36 0.5 -52 0.5c-13.333 0 -27.666 -0.166992 -42.999 -0.5s-31 -0.5 -47 -0.5s-31.833 -0.166992 -47.5 -0.5s-29.834 -0.5 -42.501 -0.5l-3 34c30.667 2 55.334 5 74.001 9
s32.667 10.667 42 20s15.5 21.833 18.5 37.5s4.5 36.167 4.5 61.5v58h-190l-4 52h194v90h-201z" />
    <glyph glyph-name="brokenbar" unicode="&#xa6;" horiz-adv-x="449" 
d="M180 210h89v-530h-89v530zM180 960h89v-530h-89v530z" />
    <glyph glyph-name="section" unicode="&#xa7;" horiz-adv-x="792" 
d="M514 842c-13.333 12.667 -30.6699 23.835 -52.0029 33.502s-42 14.5 -62 14.5c-16 0 -31.167 -2.5 -45.5 -7.5s-27 -12 -38 -21s-19.667 -20.333 -26 -34s-9.5 -28.834 -9.5 -45.501c0 -28.667 11.333 -54.334 34 -77.001l75 -74.5l79.5 -80
c26.333 -27 51.666 -54.333 75.999 -82s46.166 -54.834 65.499 -81.501c21.333 -30.667 38.5 -60.834 51.5 -90.501s19.5 -57.834 19.5 -84.501c0 -22 -2.33301 -42.667 -7 -62s-11.5 -38.333 -20.5 -57s-20.5 -37.334 -34.5 -56.001s-30.333 -38 -49 -58
c7.33301 -16.667 11 -33 11 -49c0 -29.333 -8.33301 -59.166 -25 -89.499s-37.834 -57.666 -63.501 -81.999s-54.167 -44.333 -85.5 -60s-61.666 -23.5 -90.999 -23.5c-11.333 0 -23.666 1.5 -36.999 4.5s-25.666 7.66699 -36.999 14s-20.833 14.5 -28.5 24.5
s-11.5 22.333 -11.5 37c0 16.667 6.33301 29.334 19 38.001s27 14.334 43 17.001h3c14.667 -13.333 31.834 -24.166 51.501 -32.499s39.5 -12.5 59.5 -12.5c16.667 0 32.167 3.16699 46.5 9.5s26.666 15.166 36.999 26.499s18.5 24.5 24.5 39.5s9 31.167 9 48.5
c0 7.33301 -0.666992 13.5 -2 18.5s-3.66602 10.833 -6.99902 17.5c-3.33301 6 -7 11.833 -11 17.5s-8.66699 11.167 -14 16.5l-74 73l-78 77.5c-26 26.333 -51 53 -75 80s-45.333 53.833 -64 80.5c-21.333 30.667 -38.5 60.5 -51.5 89.5s-19.5 56.833 -19.5 83.5
c0 22 2.16699 42.667 6.5 62s10.833 38.166 19.5 56.499s19.834 36.833 33.501 55.5s29.834 38.667 48.501 60c-8.66699 19.333 -13 38.333 -13 57c0 26.667 8.5 54.5 25.5 83.5s38.5 55.5 64.5 79.5s54.667 43.833 86 59.5s61 23.5 89 23.5
c14.667 0 29.5 -1.83301 44.5 -5.5s28.5 -8.66699 40.5 -15s21.667 -14.166 29 -23.499s11 -20 11 -32c0 -16 -6 -29.333 -18 -40s-28.667 -18 -50 -22h-3zM183.996 516.001c0 -26.667 6.33691 -53.8301 19.0039 -81.4971s28.667 -55.5 48 -83.5
c15.333 -22 32.166 -43.667 50.499 -65s37 -42 56 -62l56.5 -57.5l52 -51.5l43.5 -45.5c14.333 -15.667 27.166 -31.834 38.499 -48.501c11.333 11.333 22.5 26.5 33.5 45.5s16.5 43.167 16.5 72.5c0 26.667 -6.33301 54.167 -19 82.5s-28.667 56.5 -48 84.5
c-15.333 22 -32.333 44 -51 66s-37.834 43.5 -57.501 64.5l-58.5 60l-53 52.5l-41.5 42.5c-13.667 14.333 -25.834 29.166 -36.501 44.499c-11.333 -10.667 -22.333 -25.834 -33 -45.501s-16 -44.5 -16 -74.5z" />
    <glyph glyph-name="dieresis" unicode="&#xa8;" horiz-adv-x="700" 
d="M477 718c-18 0 -33.334 6.5 -46.001 19.5s-19 28.5 -19 46.5c0 18.667 6.33301 34.334 19 47.001s28 19 46 19c18.667 0 34.334 -6.33301 47.001 -19s19 -28.334 19 -47.001c0 -18 -6.5 -33.5 -19.5 -46.5s-28.5 -19.5 -46.5 -19.5zM221.999 718
c-18 0 -33.334 6.50098 -46.001 19.501s-19 28.5 -19 46.5s6.33301 33.5 19 46.5s28 19.5 46 19.5c18.667 0 34.334 -6.33301 47.001 -19s19 -28.334 19 -47.001c0 -18 -6.5 -33.5 -19.5 -46.5s-28.5 -19.5 -46.5 -19.5z" />
    <glyph glyph-name="copyright" unicode="&#xa9;" horiz-adv-x="1170" 
d="M100 481c0 66 12.833 127.833 38.5 185.5s60.5 107.834 104.5 150.501s95.5 76.334 154.5 101.001s121.833 37 188.5 37c66 0 128.333 -12.333 187 -37s110 -58.334 154 -101.001s78.833 -92.834 104.5 -150.501s38.5 -119.5 38.5 -185.5
c0 -66.667 -12.833 -128.834 -38.5 -186.501s-60.5 -108 -104.5 -151s-95.333 -76.833 -154 -101.5s-121 -37 -187 -37c-66.667 0 -129.5 12.333 -188.5 37s-110.5 58.5 -154.5 101.5s-78.833 93.333 -104.5 151s-38.5 119.834 -38.5 186.501zM164 480
c0 -59.333 11.167 -114.833 33.5 -166.5s52.5 -96.667 90.5 -135s82.5 -68.5 133.5 -90.5s105.5 -33 163.5 -33s112.5 11 163.5 33s95.5 52.167 133.5 90.5s68.167 83.333 90.5 135s33.5 107.167 33.5 166.5s-11.167 114.833 -33.5 166.5s-52.5 96.667 -90.5 135
s-82.5 68.5 -133.5 90.5s-105.5 33 -163.5 33s-112.5 -11 -163.5 -33s-95.5 -52.167 -133.5 -90.5s-68.167 -83.333 -90.5 -135s-33.5 -107.167 -33.5 -166.5zM735 589c-2.66699 40 -14.9971 69.3271 -36.9971 87.9941s-49 28 -81 28
c-31.333 0 -58.833 -5.16699 -82.5 -15.5s-43.5 -25 -59.5 -44s-28.167 -41.667 -36.5 -68s-12.5 -55.166 -12.5 -86.499s3.83301 -60.833 11.5 -88.5s19.334 -52 35.001 -73s35.167 -37.5 58.5 -49.5s50.666 -18 81.999 -18c17.333 0 34.166 2.5 50.499 7.5
s30.5 13.5 42.5 25.5c11.333 10.667 21.166 24.334 29.499 41.001s16.5 35.334 24.5 56.001l31 -8c-6 -25.333 -10.833 -48.666 -14.5 -69.999s-6.5 -44.333 -8.5 -69c-30 -8 -58.667 -14.5 -86 -19.5s-56 -7.5 -86 -7.5c-41.333 0 -79.5 6 -114.5 18s-65.333 29.333 -91 52
s-45.834 50 -60.501 82s-22 67.667 -22 107c0 44.667 8.66699 83.834 26 117.501s40.666 61.834 69.999 84.501s63.5 39.5 102.5 50.5s80.167 16.5 123.5 16.5c22.667 0 46.834 -1.66699 72.501 -5s49.5 -8 71.5 -14c-2 -23.333 -3.33301 -45.833 -4 -67.5
s-1 -44.167 -1 -67.5z" />
    <glyph glyph-name="ordfeminine" unicode="&#xaa;" horiz-adv-x="534" 
d="M519 427c-12 -11.333 -26.1631 -20.6689 -42.4961 -28.002s-33.166 -11 -50.499 -11c-19.333 0 -36.5 4.16699 -51.5 12.5s-26.833 24.5 -35.5 48.5l-25.5 -15.5c-11.667 -7 -24.667 -14 -39 -21s-29.833 -13.167 -46.5 -18.5s-32.667 -8 -48 -8
c-18 0 -34.333 3.16699 -49 9.5s-27.167 14.666 -37.5 24.999s-18.5 22.333 -24.5 36s-9 28.167 -9 43.5c0 26.667 7.83301 49.5 23.5 68.5s36.167 33.167 61.5 42.5c19.333 7.33301 44.833 14.333 76.5 21s68.5 12.334 110.5 17.001c0.666992 0.666992 1 4.66699 1 12v50
c0 24 -6 43.833 -18 59.5s-30.667 23.5 -56 23.5c-28 0 -47.833 -8.66699 -59.5 -26s-17.834 -37.666 -18.501 -60.999c-8.66699 -6.66699 -23 -10 -43 -10c-14.667 0 -28.834 2.66699 -42.501 8s-20.5 13.666 -20.5 24.999s7.33301 24 22 38s33 27 55 39
s45.5 22.167 70.5 30.5s48.167 12.5 69.5 12.5c17.333 0 34.166 -2.16699 50.499 -6.5s30.666 -11.166 42.999 -20.499s22.166 -21.166 29.499 -35.499s11 -31.5 11 -51.5v-236c0 -20.667 3 -36 9 -46s16.333 -15 31 -15c10 0 22.667 4.66699 38 14zM330.004 493.997
c0 19.333 0.332031 38.332 0.999023 56.999s1 37.334 1 56.001c-12.667 -1.33301 -25.667 -3 -39 -5s-26.166 -4.66699 -38.499 -8s-23.833 -7.33301 -34.5 -12s-19.667 -10.334 -27 -17.001c-12 -12 -18 -25.333 -18 -40c0 -19.333 5.16699 -35.666 15.5 -48.999
s25.833 -20 46.5 -20c15.333 0 31.333 3.5 48 10.5s31.667 16.167 45 27.5z" />
    <glyph glyph-name="guillemotleft" unicode="&#xab;" horiz-adv-x="657" 
d="M320 292c30 28 62.167 61.167 96.5 99.5l108.5 127.5l32 -20l-131 -214l131 -214l-32 -20l-108.5 127.5c-34.333 38.333 -66.5 71.5 -96.5 99.5v14zM100 292c30 28 62.167 61.167 96.5 99.5l108.5 127.5l32 -20l-131 -214l131 -214l-32 -20l-108.5 127.5
c-34.333 38.333 -66.5 71.5 -96.5 99.5v14z" />
    <glyph glyph-name="logicalnot" unicode="&#xac;" horiz-adv-x="680" 
d="M544 5v257h-483l5 66h544v-318z" />
    <glyph glyph-name="registered" unicode="&#xae;" horiz-adv-x="1170" 
d="M100 481c0 66 12.833 127.833 38.5 185.5s60.5 107.834 104.5 150.501s95.5 76.334 154.5 101.001s121.833 37 188.5 37c66 0 128.333 -12.333 187 -37s110 -58.334 154 -101.001s78.833 -92.834 104.5 -150.501s38.5 -119.5 38.5 -185.5
c0 -66.667 -12.833 -128.834 -38.5 -186.501s-60.5 -108 -104.5 -151s-95.333 -76.833 -154 -101.5s-121 -37 -187 -37c-66.667 0 -129.5 12.333 -188.5 37s-110.5 58.5 -154.5 101.5s-78.833 93.333 -104.5 151s-38.5 119.834 -38.5 186.501zM164 480
c0 -59.333 11.167 -114.833 33.5 -166.5s52.5 -96.667 90.5 -135s82.5 -68.5 133.5 -90.5s105.5 -33 163.5 -33s112.5 11 163.5 33s95.5 52.167 133.5 90.5s68.167 83.333 90.5 135s33.5 107.167 33.5 166.5s-11.167 114.833 -33.5 166.5s-52.5 96.667 -90.5 135
s-82.5 68.5 -133.5 90.5s-105.5 33 -163.5 33s-112.5 -11 -163.5 -33s-95.5 -52.167 -133.5 -90.5s-68.167 -83.333 -90.5 -135s-33.5 -107.167 -33.5 -166.5zM521 304c0 -8.66699 0.666016 -15.834 1.99902 -21.501s4.33301 -10.334 9 -14.001s11.667 -6.5 21 -8.5
s22 -3.33301 38 -4l-2 -28c-16 0 -33.5 0.166992 -52.5 0.5s-42.5 0.5 -70.5 0.5c-19.333 0 -39 -0.166992 -59 -0.5s-35 -0.5 -45 -0.5l-2 28c14 0.666992 25.333 2.16699 34 4.5s15.334 5.83301 20.001 10.5s7.83398 11 9.50098 19s2.5 18.333 2.5 31l3 340
c0 16.667 -4.33301 28.167 -13 34.5s-28 10.166 -58 11.499l2 29c11.333 0 27.166 -0.166992 47.499 -0.5s40.166 -0.5 59.499 -0.5c18 0 36.333 0.666992 55 2s38 2 58 2c20.667 0 42.667 -1.5 66 -4.5s44.666 -8.66699 63.999 -17s35.5 -20.333 48.5 -36
s19.5 -36.167 19.5 -61.5c0 -34 -10.333 -63 -31 -87s-46 -41.667 -76 -53l31.5 -58.5l28.5 -52.5l23.5 -42c7 -12 12.833 -21.333 17.5 -28c6 -8.66699 11.667 -15.667 17 -21s11.5 -9.5 18.5 -12.5s15 -5.16699 24 -6.5s20.167 -2.33301 33.5 -3l-2 -28
c-14 0 -32.167 0.166992 -54.5 0.5s-44.166 0.5 -65.499 0.5h-33c-6 0 -9.33301 -0.333008 -10 -1c-3.33301 6.66699 -8 16.834 -14 30.501s-13.5 29.5 -22.5 47.5l-30.5 59.5c-11.333 21.667 -23.666 43.834 -36.999 66.501c-5.33301 8.66699 -10.5 14.834 -15.5 18.501
s-13.167 5.5 -24.5 5.5h-35v-152zM520.999 493h34c34.667 0 63 10.167 85 30.5s33 49.5 33 87.5c0 30 -10.167 52.167 -30.5 66.5s-45.5 21.5 -75.5 21.5c-17.333 0 -29.333 -3.66699 -36 -11s-10 -19.333 -10 -36v-159z" />
    <glyph glyph-name="macron" unicode="&#xaf;" horiz-adv-x="700" 
d="M543 731h-386l-4 61h394z" />
    <glyph glyph-name="degree" unicode="&#xb0;" horiz-adv-x="529" 
d="M60 775c0 28 5.33301 54.5 16 79.5s25.334 46.667 44.001 65s40.334 33 65.001 44s51 16.5 79 16.5s54.5 -5.5 79.5 -16.5s46.833 -25.667 65.5 -44s33.334 -40 44.001 -65s16 -51.5 16 -79.5s-5.33301 -54.5 -16 -79.5s-25.334 -46.667 -44.001 -65
s-40.5 -32.833 -65.5 -43.5s-51.5 -16 -79.5 -16s-54.333 5.33301 -79 16s-46.334 25.167 -65.001 43.5s-33.334 40 -44.001 65s-16 51.5 -16 79.5zM120 775c0 -20.667 3.66699 -40 11 -58s17.5 -33.833 30.5 -47.5s28.333 -24.334 46 -32.001s36.5 -11.5 56.5 -11.5
s38.833 3.83301 56.5 11.5s33 18.334 46 32.001s23.333 29.5 31 47.5s11.5 37.333 11.5 58s-3.83301 40.167 -11.5 58.5s-18 34.166 -31 47.499s-28.333 24 -46 32s-36.5 12 -56.5 12s-38.833 -4 -56.5 -12s-33 -18.667 -46 -32s-23.167 -29.166 -30.5 -47.499
s-11 -37.833 -11 -58.5z" />
    <glyph glyph-name="plusminus" unicode="&#xb1;" horiz-adv-x="680" 
d="M373 322v-192l-66 -5v197h-246l5 66h241v192l66 5v-197h247l-5 -66h-242zM60 10l5 66h555l-5 -66h-555z" />
    <glyph glyph-name="twosuperior" unicode="&#xb2;" horiz-adv-x="525" 
d="M75 789c0 26.667 -0.329102 50.833 -0.996094 72.5s-2 42.834 -4 63.501c24 17.333 51.333 30.833 82 40.5s62 14.5 94 14.5c24 0 48.5 -3.5 73.5 -10.5s47.833 -17.333 68.5 -31s37.5 -30.834 50.5 -51.501s19.5 -44.334 19.5 -71.001c0 -27.333 -4.83301 -52 -14.5 -74
s-22.167 -42.5 -37.5 -61.5s-32.666 -37.167 -51.999 -54.5l-58 -53l-133 -120l213 4c8.66699 0 16.334 0.833008 23.001 2.5s13.167 5 19.5 10s12.666 12.333 18.999 22s13.5 22.5 21.5 38.5l31 -9c-3.33301 -11.333 -6.66602 -23.5 -9.99902 -36.5
s-6.5 -26.167 -9.5 -39.5s-5.5 -26.166 -7.5 -38.499s-3.33301 -22.833 -4 -31.5c-46 0 -83.333 0.166992 -112 0.5s-52.667 0.5 -72 0.5c-18.667 0 -34.334 0.166992 -47.001 0.5s-25.334 0.5 -38.001 0.5c-9.33301 0 -21.333 -0.166992 -36 -0.5
s-29.334 -0.5 -44.001 -0.5s-28.334 -0.166992 -41.001 -0.5s-22 -0.5 -28 -0.5l-7 21l165 156c28 26.667 53.667 52.334 77 77.001s41.666 50 54.999 76c6 12 10.833 25.5 14.5 40.5s5.5 29.833 5.5 44.5c0 35.333 -11.833 63.666 -35.5 84.999s-52.834 32 -87.501 32
c-34 0 -61.5 -11 -82.5 -33s-32.5 -51 -34.5 -87z" />
    <glyph glyph-name="threesuperior" unicode="&#xb3;" horiz-adv-x="525" 
d="M72 808c0 25.333 -0.162109 47.667 -0.495117 67s-1.16602 38.666 -2.49902 57.999c30 14.667 59.5 26.167 88.5 34.5s60.833 12.5 95.5 12.5c18.667 0 39.167 -2.16699 61.5 -6.5s43.166 -11.5 62.499 -21.5s35.333 -22.833 48 -38.5s19 -34.5 19 -56.5
c0 -30 -8.83301 -56 -26.5 -78s-39.834 -41.667 -66.501 -59v-3c40 -11.333 71.333 -31.5 94 -60.5s34 -62.5 34 -100.5c0 -36 -7.66699 -67.167 -23 -93.5s-35.5 -48.166 -60.5 -65.499s-53.5 -30.166 -85.5 -38.499s-64.333 -12.5 -97 -12.5c-14.667 0 -32 1.5 -52 4.5
s-39 8.33301 -57 16s-33.333 17.667 -46 30s-19 27.5 -19 45.5c0 13.333 6.33301 25.166 19 35.499s28 16.833 46 19.5h3c11.333 -30 29.166 -53.833 53.499 -71.5s51.5 -26.5 81.5 -26.5c18 0 34.667 3.33301 50 10s28.333 16 39 28s19 26.167 25 42.5s9 33.833 9 52.5
c0 44 -12.667 76.333 -38 97s-60 31 -104 31c-10.667 0 -21.334 -0.666992 -32.001 -2s-21.667 -3.33301 -33 -6l-7 41c20 3.33301 41.167 7.33301 63.5 12s42.666 11.667 60.999 21s33.666 21.666 45.999 36.999s18.5 35 18.5 59c0 14.667 -3 27.834 -9 39.501
s-14.167 21.5 -24.5 29.5s-22 14 -35 18s-26.5 6 -40.5 6c-33.333 0 -61.833 -9.66699 -85.5 -29s-36.167 -46 -37.5 -80z" />
    <glyph glyph-name="acute" unicode="&#xb4;" horiz-adv-x="700" 
d="M405 901l105 -9l5 -11l-155 -245l-35 6l-3 6z" />
    <glyph glyph-name="mu" unicode="&#xb5;" horiz-adv-x="755" 
d="M509 -6c1.33301 12 2.33398 26.167 3.00098 42.5s1 30.5 1 42.5c-34.667 -31.333 -71.834 -55.666 -111.501 -72.999s-77.834 -26 -114.501 -26c-22.667 0 -44 3.66699 -64 11v-297c0 -16 1 -29 3 -39s7.5 -17.833 16.5 -23.5s22.667 -9.83398 41 -12.501
s43.833 -4.66699 76.5 -6l-3 -37c-10.667 0 -24 0.166992 -40 0.5s-33.333 0.5 -52 0.5c-18 0 -36.333 0.166992 -55 0.5s-36 0.5 -52 0.5c-25.333 0 -50.666 -0.333008 -75.999 -1s-47.666 -1 -66.999 -1l-2 32c22.667 2 40.667 5 54 9s23.666 10.167 30.999 18.5
s12.166 20 14.499 35s3.5 35.167 3.5 60.5v699c0 18.667 -1 33.334 -3 44.001s-6.16699 19.167 -12.5 25.5s-15.333 11 -27 14s-27.167 6.16699 -46.5 9.5l-2 29c21.333 2.66699 42.5 5.66699 63.5 9s40.667 6.66602 59 9.99902s34.333 6.66602 48 9.99902
s24.167 6.33301 31.5 9l10 -8c-2 -16.667 -3.5 -34.5 -4.5 -53.5l-3 -55.5c-1 -18 -1.66699 -35.167 -2 -51.5s-0.5 -30.5 -0.5 -42.5v-150c0 -31.333 3.16699 -57.833 9.5 -79.5s14.833 -39.167 25.5 -52.5s23.334 -22.833 38.001 -28.5s30.334 -8.5 47.001 -8.5
c27.333 0 55.5 5.83301 84.5 17.5s56.167 27.167 81.5 46.5v306c0 18.667 -1 33.334 -3 44.001s-6.33301 19.167 -13 25.5s-16.5 11 -29.5 14s-30.5 6.16699 -52.5 9.5l-2 29c22.667 2.66699 45.167 5.66699 67.5 9s42.833 6.83301 61.5 10.5l49 10c14 3 24 5.83301 30 8.5
l11 -8c-2 -16.667 -3.66699 -34.5 -5 -53.5s-2.5 -37.5 -3.5 -55.5s-1.66699 -35.167 -2 -51.5s-0.5 -30.5 -0.5 -42.5v-233c0 -19.333 1 -34.333 3 -45s6.5 -19 13.5 -25s17.167 -10.5 30.5 -13.5s31.666 -6.16699 54.999 -9.5l4 -29c-20 -2 -40.5 -4.5 -61.5 -7.5
s-41 -6.16699 -60 -9.5s-36.167 -7 -51.5 -11s-27 -7.33301 -35 -10z" />
    <glyph glyph-name="paragraph" unicode="&#xb6;" horiz-adv-x="879" 
d="M426 200c-51.333 10 -98.1699 26.1611 -140.503 48.4941s-78.666 49.833 -108.999 82.5s-54 69.834 -71 111.501s-25.5 86.5 -25.5 134.5c0 54.667 9.66699 105.834 29 153.501s49.833 89 91.5 124s95.334 62.667 161.001 83s145.167 30.5 238.5 30.5
c24.667 0 49.834 -0.5 75.501 -1.5s52.5 -3.16699 80.5 -6.5l3 -34c-21.333 -1.33301 -38.833 -3.5 -52.5 -6.5s-24.667 -6.5 -33 -10.5s-14.5 -8.16699 -18.5 -12.5s-7 -8.16602 -9 -11.499c-17.333 -36 -32.166 -76.833 -44.499 -122.5s-22.333 -92.5 -30 -140.5
s-13.334 -95.167 -17.001 -141.5s-5.5 -87.833 -5.5 -124.5c0 -43.333 1.83301 -89.666 5.5 -138.999s10.667 -99.666 21 -150.999s24.833 -103 43.5 -155s43 -102 73 -150v-3c-5.33301 -18.667 -15.333 -34.334 -30 -47.001s-31.334 -19 -50.001 -19
c-20 0 -34.667 6.83301 -44 20.5s-16.333 29.167 -21 46.5c-8.66699 31.333 -16.5 67.666 -23.5 108.999s-12.833 84.833 -17.5 130.5s-8.33398 92.167 -11.001 139.5s-4 92.666 -4 135.999c0 56.667 1.66699 112.5 5 167.5s9.33301 109.333 18 163
s20.334 106.334 35.001 158.001s33.334 102.834 56.001 153.501h-59c-38.667 -86.667 -68.334 -181.167 -89.001 -283.5s-31 -216.166 -31 -341.499c0 -14.667 -0.166992 -29.667 -0.5 -45s-0.166016 -30.666 0.500977 -45.999z" />
    <glyph glyph-name="periodcentered" unicode="&#xb7;" horiz-adv-x="342" 
d="M90 327c0 11.333 2.16699 22.166 6.5 32.499s10.166 19.333 17.499 27s15.833 13.667 25.5 18s20.167 6.5 31.5 6.5c10.667 0 21 -2.16699 31 -6.5s18.667 -10.333 26 -18s13.166 -16.667 17.499 -27s6.5 -21.166 6.5 -32.499s-2.16699 -22.166 -6.5 -32.499
s-10.166 -19.333 -17.499 -27s-16 -13.667 -26 -18s-20.333 -6.5 -31 -6.5c-11.333 0 -21.833 2.16699 -31.5 6.5s-18.167 10.333 -25.5 18s-13.166 16.667 -17.499 27s-6.5 21.166 -6.5 32.499z" />
    <glyph glyph-name="cedilla" unicode="&#xb8;" horiz-adv-x="700" 
d="M389 2v-4.00293c-19.333 -10 -32.833 -19.667 -40.5 -29s-11.5 -18.666 -11.5 -27.999s4 -17.666 12 -24.999s17 -16.333 27 -27c10.667 -11.333 20.667 -23.666 30 -36.999s14 -25.666 14 -36.999c0 -12 -4.33301 -26.667 -13 -44s-20.334 -34 -35.001 -50
s-31.667 -29.5 -51 -40.5s-39.333 -16.5 -60 -16.5c-7.33301 0 -15 1.16699 -23 3.5s-15.5 5.83301 -22.5 10.5s-12.833 10.5 -17.5 17.5s-7 15.167 -7 24.5c0 11.333 5.33301 22.333 16 33s21.667 17.667 33 21c10.667 -14.667 21.667 -26 33 -34s24.333 -12 39 -12
c20 0 30 10.333 30 31c0 12 -4 23.167 -12 33.5s-17.333 20.833 -28 31.5c-11.333 11.333 -21.666 22.5 -30.999 33.5s-14 22.167 -14 33.5c0 12 6.5 27.167 19.5 45.5s37.5 40.166 73.5 65.499h39z" />
    <glyph glyph-name="onesuperior" unicode="&#xb9;" horiz-adv-x="525" 
d="M83 900c42.667 10.667 83.9971 22.333 123.997 35l120 40l7 -6c-1.33301 -12 -2.5 -24.833 -3.5 -38.5s-1.66699 -27.167 -2 -40.5s-0.666016 -26 -0.999023 -38s-0.5 -22 -0.5 -30v-345c0 -11.333 0.833008 -21.166 2.5 -29.499s6.16699 -15.166 13.5 -20.499
s18.5 -9.5 33.5 -12.5s36.167 -4.83301 63.5 -5.5l-1 -34c-7.33301 0 -15.666 0.166992 -24.999 0.5s-20.666 0.5 -33.999 0.5c-12.667 0 -27.5 0.166992 -44.5 0.5s-36.833 0.5 -59.5 0.5c-44.667 0 -81 -0.333008 -109 -1s-48.667 -1 -62 -1l-2 33
c29.333 0.666992 52.5 2.5 69.5 5.5s29.667 8.16699 38 15.5s13.5 17.666 15.5 30.999s3 30.666 3 51.999v369l-138 -20z" />
    <glyph glyph-name="ordmasculine" unicode="&#xba;" horiz-adv-x="596" 
d="M60 614c0 32.667 6.16699 63.335 18.5 92.002s29.166 53.667 50.499 75s46.333 38.166 75 50.499s59.667 18.5 93 18.5c36 0 68.833 -6 98.5 -18s54.834 -28.333 75.501 -49s36.667 -44.834 48 -72.501s17 -57.167 17 -88.5c0 -32.667 -6.16699 -63.334 -18.5 -92.001
s-29.333 -53.667 -51 -75s-47 -38.166 -76 -50.499s-60.167 -18.5 -93.5 -18.5c-36 0 -68.5 6 -97.5 18s-53.833 28.167 -74.5 48.5s-36.667 44.333 -48 72s-17 57.5 -17 89.5zM307 430.001c20.667 0 38.665 5.16699 53.998 15.5s27.833 23.5 37.5 39.5
s16.834 34.167 21.501 54.5s7 40.5 7 60.5c0 23.333 -2.5 47.166 -7.5 71.499s-13 46.5 -24 66.5s-25.167 36.333 -42.5 49s-38.333 19 -63 19c-21.333 0 -39.666 -5 -54.999 -15s-27.833 -23 -37.5 -39s-16.667 -34.167 -21 -54.5s-6.5 -40.5 -6.5 -60.5
c0 -22.667 2.66699 -46.167 8 -70.5s13.5 -46.666 24.5 -66.999s25.167 -37 42.5 -50s38 -19.5 62 -19.5z" />
    <glyph glyph-name="guillemotright" unicode="&#xbb;" horiz-adv-x="657" 
d="M557 278c-30 -28 -62.167 -61.167 -96.5 -99.5l-108.5 -127.5l-32 20l131 214l-131 214l32 20l108.5 -127.5c34.333 -38.333 66.5 -71.5 96.5 -99.5v-14zM337 278c-30 -28 -62.167 -61.167 -96.5 -99.5l-108.5 -127.5l-32 20l131 214l-131 214l32 20l108.5 -127.5
c34.333 -38.333 66.5 -71.5 96.5 -99.5v-14z" />
    <glyph glyph-name="onequarter" unicode="&#xbc;" horiz-adv-x="1250" 
d="M83 900c42.667 10.667 83.9971 22.333 123.997 35l120 40l7 -6c-1.33301 -12 -2.5 -24.833 -3.5 -38.5s-1.66699 -27.167 -2 -40.5s-0.666016 -26 -0.999023 -38s-0.5 -22 -0.5 -30v-345c0 -11.333 0.833008 -21.166 2.5 -29.499s6.16699 -15.166 13.5 -20.499
s18.5 -9.5 33.5 -12.5s36.167 -4.83301 63.5 -5.5l-1 -34c-7.33301 0 -15.666 0.166992 -24.999 0.5s-20.666 0.5 -33.999 0.5c-12.667 0 -27.5 0.166992 -44.5 0.5s-36.833 0.5 -59.5 0.5c-44.667 0 -81 -0.333008 -109 -1s-48.667 -1 -62 -1l-2 33
c29.333 0.666992 52.5 2.5 69.5 5.5s29.667 8.16699 38 15.5s13.5 17.666 15.5 30.999s3 30.666 3 51.999v369l-138 -20zM974.997 978.999l-652 -1033l-48 33l648 1032zM929.997 108.999l-273 -0.99707l-14 34l88.5 112l93 120.5l90 118l79.5 104.5l42 -9
c-2.66699 -20.667 -4.66699 -41.334 -6 -62.001s-2 -43.334 -2 -68.001v-281l81 1l9 -9l-4 -61h-86v-122c-16.667 -0.666992 -32.667 -1.5 -48 -2.5l-52 -3.5c0.666992 12.667 1.16699 23.667 1.5 33s0.5 16.666 0.5 21.999v74zM929.997 432.002l-4 1l-97.5 -126l-97.5 -135
l199 4v256z" />
    <glyph glyph-name="onehalf" unicode="&#xbd;" horiz-adv-x="1250" 
d="M83 900c42.667 10.667 83.9971 22.333 123.997 35l120 40l7 -6c-1.33301 -12 -2.5 -24.833 -3.5 -38.5s-1.66699 -27.167 -2 -40.5s-0.666016 -26 -0.999023 -38s-0.5 -22 -0.5 -30v-345c0 -11.333 0.833008 -21.166 2.5 -29.499s6.16699 -15.166 13.5 -20.499
s18.5 -9.5 33.5 -12.5s36.167 -4.83301 63.5 -5.5l-1 -34c-7.33301 0 -15.666 0.166992 -24.999 0.5s-20.666 0.5 -33.999 0.5c-12.667 0 -27.5 0.166992 -44.5 0.5s-36.833 0.5 -59.5 0.5c-44.667 0 -81 -0.333008 -109 -1s-48.667 -1 -62 -1l-2 33
c29.333 0.666992 52.5 2.5 69.5 5.5s29.667 8.16699 38 15.5s13.5 17.666 15.5 30.999s3 30.666 3 51.999v369l-138 -20zM974.997 978.999l-652 -1033l-48 33l648 1032zM799.997 414.999c0 26.667 -0.330078 50.833 -0.99707 72.5s-2 42.834 -4 63.501
c24 17.333 51.333 30.833 82 40.5s62 14.5 94 14.5c24 0 48.5 -3.5 73.5 -10.5s47.833 -17.333 68.5 -31s37.5 -30.834 50.5 -51.501s19.5 -44.334 19.5 -71.001c0 -27.333 -4.83301 -52 -14.5 -74s-22.167 -42.5 -37.5 -61.5s-32.666 -37.167 -51.999 -54.5l-58 -53
l-133 -120l213 4c8.66699 0 16.334 0.833008 23.001 2.5s13.167 5 19.5 10s12.666 12.333 18.999 22s13.5 22.5 21.5 38.5l31 -9c-3.33301 -11.333 -6.66602 -23.5 -9.99902 -36.5s-6.5 -26.167 -9.5 -39.5s-5.5 -26.166 -7.5 -38.499s-3.33301 -22.833 -4 -31.5
c-46 0 -83.333 0.166992 -112 0.5s-52.667 0.5 -72 0.5c-18.667 0 -34.334 0.166992 -47.001 0.5s-25.334 0.5 -38.001 0.5c-9.33301 0 -21.333 -0.166992 -36 -0.5s-29.334 -0.5 -44.001 -0.5s-28.5 -0.166992 -41.5 -0.5s-22.5 -0.5 -28.5 -0.5l-6 21l165 156
c28 26.667 53.667 52.334 77 77.001s41.666 50 54.999 76c6 12 10.833 25.5 14.5 40.5s5.5 29.833 5.5 44.5c0 35.333 -11.833 63.666 -35.5 84.999s-52.834 32 -87.501 32c-34 0 -61.5 -11 -82.5 -33s-32.5 -51 -34.5 -87z" />
    <glyph glyph-name="threequarters" unicode="&#xbe;" horiz-adv-x="1250" 
d="M72 808c0 25.333 -0.162109 47.667 -0.495117 67s-1.16602 38.666 -2.49902 57.999c30 14.667 59.5 26.167 88.5 34.5s60.833 12.5 95.5 12.5c18.667 0 39.167 -2.16699 61.5 -6.5s43.166 -11.5 62.499 -21.5s35.333 -22.833 48 -38.5s19 -34.5 19 -56.5
c0 -30 -8.83301 -56 -26.5 -78s-39.834 -41.667 -66.501 -59v-3c40 -11.333 71.333 -31.5 94 -60.5s34 -62.5 34 -100.5c0 -36 -7.66699 -67.167 -23 -93.5s-35.5 -48.166 -60.5 -65.499s-53.5 -30.166 -85.5 -38.499s-64.333 -12.5 -97 -12.5c-14.667 0 -32 1.5 -52 4.5
s-39 8.33301 -57 16s-33.333 17.667 -46 30s-19 27.5 -19 45.5c0 13.333 6.33301 25.166 19 35.499s28 16.833 46 19.5h3c11.333 -30 29.166 -53.833 53.499 -71.5s51.5 -26.5 81.5 -26.5c18 0 34.667 3.33301 50 10s28.333 16 39 28s19 26.167 25 42.5s9 33.833 9 52.5
c0 44 -12.667 76.333 -38 97s-60 31 -104 31c-10.667 0 -21.334 -0.666992 -32.001 -2s-21.667 -3.33301 -33 -6l-7 41c20 3.33301 41.167 7.33301 63.5 12s42.666 11.667 60.999 21s33.666 21.666 45.999 36.999s18.5 35 18.5 59c0 14.667 -3 27.834 -9 39.501
s-14.167 21.5 -24.5 29.5s-22 14 -35 18s-26.5 6 -40.5 6c-33.333 0 -61.833 -9.66699 -85.5 -29s-36.167 -46 -37.5 -80zM975.005 979.001l-652 -1033l-48 33l648 1032zM930.005 109.001l-273 -0.99707l-14 34l88.5 112l93 120.5l90 118l79.5 104.5l42 -9
c-2.66699 -20.667 -4.66699 -41.334 -6 -62.001s-2 -43.334 -2 -68.001v-281l81 1l9 -9l-4 -61h-86v-122c-16.667 -0.666992 -32.667 -1.5 -48 -2.5l-52 -3.5c0.666992 12.667 1.16699 23.667 1.5 33s0.5 16.666 0.5 21.999v74zM930.005 432.004l-4 1l-97.5 -126l-97.5 -135
l199 4v256z" />
    <glyph glyph-name="questiondown" unicode="&#xbf;" horiz-adv-x="524" 
d="M239 324c48.667 -38 84.666 -71.1738 107.999 -99.5068s35 -58.166 35 -89.499c0 -19.333 -4.5 -37.166 -13.5 -53.499s-20.167 -31.666 -33.5 -45.999s-28 -27.666 -44 -39.999l-46 -35.5l-40.5 -31.5c-13 -9.66699 -24.167 -19.667 -33.5 -30
s-16.833 -22.333 -22.5 -36s-8.5 -30.167 -8.5 -49.5c0 -28 9 -50.167 27 -66.5s41 -24.5 69 -24.5c30 0 54.667 7 74 21s37.666 33 54.999 57h6c14 -5.33301 26.667 -14.166 38 -26.499s17 -26.166 17 -41.499c0 -16.667 -5.16699 -31.334 -15.5 -44.001
s-23 -23.167 -38 -31.5s-31 -14.666 -48 -18.999s-31.833 -6.5 -44.5 -6.5c-26.667 0 -54.167 7 -82.5 21s-54.166 32.167 -77.499 54.5s-42.5 47.333 -57.5 75s-22.5 55.167 -22.5 82.5c0 20.667 4.5 39.334 13.5 56.001s20.5 32.334 34.5 47.001s29.167 28.167 45.5 40.5
l47.5 36.5l37 30c11.333 9.33301 21 18.666 29 27.999s14.167 19.333 18.5 30s6.5 22.667 6.5 36c0 24 -5.66699 46 -17 66s-26.666 39.667 -45.999 59zM355.999 509.993c0 -22 -7.5 -40.833 -22.5 -56.5s-33.167 -23.5 -54.5 -23.5s-39.5 7.83301 -54.5 23.5
s-22.5 34.5 -22.5 56.5s7.5 40.833 22.5 56.5s33.167 23.5 54.5 23.5s39.5 -7.83301 54.5 -23.5s22.5 -34.5 22.5 -56.5z" />
    <glyph glyph-name="Agrave" unicode="&#xc0;" horiz-adv-x="962" 
d="M618 355l-332.998 0.000976562l-77 -197c-13.333 -38 -20 -62 -20 -72c0 -17.333 8.16699 -29.333 24.5 -36s45.5 -11 87.5 -13l-3 -36c-24.667 0 -52.334 0.333008 -83.001 1s-61 1 -91 1c-24.667 0 -50.167 -0.333008 -76.5 -1s-51.833 -1 -76.5 -1l-2 34
c26 2 47.333 5.16699 64 9.5s31.167 12.333 43.5 24s24 27.667 35 48s23.833 47.5 38.5 81.5l277 677c8 20 16.5 37.5 25.5 52.5s16.833 31.167 23.5 48.5l63 8c7.33301 -32 15.166 -61.333 23.499 -88l23.5 -73l225 -652c10 -29.333 19 -52.333 27 -69
s17.333 -29.5 28 -38.5s24.167 -15.167 40.5 -18.5s37.5 -6 63.5 -8l-3 -36c-28 0 -58.833 0.333008 -92.5 1s-67.5 1 -101.5 1c-28 0 -56.333 -0.333008 -85 -1s-57 -1 -85 -1l-3 34c37.333 2.66699 64 7.16699 80 13.5s24 18.166 24 35.499
c0 7.33301 -1.33301 15.833 -4 25.5s-6 20.5 -10 32.5zM308.002 413.001h291l-131 396h-3zM576.002 1052l2 -7l-21 -25l-267 116l-2 12l78 66z" />
    <glyph glyph-name="Aacute" unicode="&#xc1;" horiz-adv-x="962" 
d="M618 355l-332.998 0.000976562l-77 -197c-13.333 -38 -20 -62 -20 -72c0 -17.333 8.16699 -29.333 24.5 -36s45.5 -11 87.5 -13l-3 -36c-24.667 0 -52.334 0.333008 -83.001 1s-61 1 -91 1c-24.667 0 -50.167 -0.333008 -76.5 -1s-51.833 -1 -76.5 -1l-2 34
c26 2 47.333 5.16699 64 9.5s31.167 12.333 43.5 24s24 27.667 35 48s23.833 47.5 38.5 81.5l277 677c8 20 16.5 37.5 25.5 52.5s16.833 31.167 23.5 48.5l63 8c7.33301 -32 15.166 -61.333 23.499 -88l23.5 -73l225 -652c10 -29.333 19 -52.333 27 -69
s17.333 -29.5 28 -38.5s24.167 -15.167 40.5 -18.5s37.5 -6 63.5 -8l-3 -36c-28 0 -58.833 0.333008 -92.5 1s-67.5 1 -101.5 1c-28 0 -56.333 -0.333008 -85 -1s-57 -1 -85 -1l-3 34c37.333 2.66699 64 7.16699 80 13.5s24 18.166 24 35.499
c0 7.33301 -1.33301 15.833 -4 25.5s-6 20.5 -10 32.5zM308.002 413.001h291l-131 396h-3zM648.002 1214l78 -66l-2 -12l-267 -116l-31 25v7z" />
    <glyph glyph-name="Acircumflex" unicode="&#xc2;" horiz-adv-x="962" 
d="M618 355l-332.998 0.000976562l-77 -197c-13.333 -38 -20 -62 -20 -72c0 -17.333 8.16699 -29.333 24.5 -36s45.5 -11 87.5 -13l-3 -36c-24.667 0 -52.334 0.333008 -83.001 1s-61 1 -91 1c-24.667 0 -50.167 -0.333008 -76.5 -1s-51.833 -1 -76.5 -1l-2 34
c26 2 47.333 5.16699 64 9.5s31.167 12.333 43.5 24s24 27.667 35 48s23.833 47.5 38.5 81.5l277 677c8 20 16.5 37.5 25.5 52.5s16.833 31.167 23.5 48.5l63 8c7.33301 -32 15.166 -61.333 23.499 -88l23.5 -73l225 -652c10 -29.333 19 -52.333 27 -69
s17.333 -29.5 28 -38.5s24.167 -15.167 40.5 -18.5s37.5 -6 63.5 -8l-3 -36c-28 0 -58.833 0.333008 -92.5 1s-67.5 1 -101.5 1c-28 0 -56.333 -0.333008 -85 -1s-57 -1 -85 -1l-3 34c37.333 2.66699 64 7.16699 80 13.5s24 18.166 24 35.499
c0 7.33301 -1.33301 15.833 -4 25.5s-6 20.5 -10 32.5zM308.002 413.001h291l-131 396h-3zM357.002 1014l-38 10l-4 6l154 178l82 6l148 -184l-4 -6l-38 -10l-150 115z" />
    <glyph glyph-name="Atilde" unicode="&#xc3;" horiz-adv-x="962" 
d="M618 355l-332.998 0.000976562l-77 -197c-13.333 -38 -20 -62 -20 -72c0 -17.333 8.16699 -29.333 24.5 -36s45.5 -11 87.5 -13l-3 -36c-24.667 0 -52.334 0.333008 -83.001 1s-61 1 -91 1c-24.667 0 -50.167 -0.333008 -76.5 -1s-51.833 -1 -76.5 -1l-2 34
c26 2 47.333 5.16699 64 9.5s31.167 12.333 43.5 24s24 27.667 35 48s23.833 47.5 38.5 81.5l277 677c8 20 16.5 37.5 25.5 52.5s16.833 31.167 23.5 48.5l63 8c7.33301 -32 15.166 -61.333 23.499 -88l23.5 -73l225 -652c10 -29.333 19 -52.333 27 -69
s17.333 -29.5 28 -38.5s24.167 -15.167 40.5 -18.5s37.5 -6 63.5 -8l-3 -36c-28 0 -58.833 0.333008 -92.5 1s-67.5 1 -101.5 1c-28 0 -56.333 -0.333008 -85 -1s-57 -1 -85 -1l-3 34c37.333 2.66699 64 7.16699 80 13.5s24 18.166 24 35.499
c0 7.33301 -1.33301 15.833 -4 25.5s-6 20.5 -10 32.5zM308.002 413.001h291l-131 396h-3zM720.002 1156c-7.33301 -15.333 -15.5 -30.0029 -24.5 -44.0029s-19.167 -26.167 -30.5 -36.5s-23.666 -18.666 -36.999 -24.999s-27.666 -9.5 -42.999 -9.5
c-12.667 0 -24.834 2.33301 -36.501 7l-37.5 15l-60.5 24c-12.333 4.66699 -22.833 7 -31.5 7c-18 0 -33.167 -5.16699 -45.5 -15.5s-23.5 -23.166 -33.5 -38.499l-37 17c6.66699 15.333 14.5 29.833 23.5 43.5s19.167 25.834 30.5 36.501s23.666 19 36.999 25
s27.666 9 42.999 9c12.667 0 24.834 -2.33301 36.501 -7l37.5 -15l61 -24c12 -4.66699 22.333 -7 31 -7c18.667 0 34 5.33301 46 16s23.333 23.667 34 39z" />
    <glyph glyph-name="Adieresis" unicode="&#xc4;" horiz-adv-x="962" 
d="M618 355l-332.998 0.000976562l-77 -197c-13.333 -38 -20 -62 -20 -72c0 -17.333 8.16699 -29.333 24.5 -36s45.5 -11 87.5 -13l-3 -36c-24.667 0 -52.334 0.333008 -83.001 1s-61 1 -91 1c-24.667 0 -50.167 -0.333008 -76.5 -1s-51.833 -1 -76.5 -1l-2 34
c26 2 47.333 5.16699 64 9.5s31.167 12.333 43.5 24s24 27.667 35 48s23.833 47.5 38.5 81.5l277 677c8 20 16.5 37.5 25.5 52.5s16.833 31.167 23.5 48.5l63 8c7.33301 -32 15.166 -61.333 23.499 -88l23.5 -73l225 -652c10 -29.333 19 -52.333 27 -69
s17.333 -29.5 28 -38.5s24.167 -15.167 40.5 -18.5s37.5 -6 63.5 -8l-3 -36c-28 0 -58.833 0.333008 -92.5 1s-67.5 1 -101.5 1c-28 0 -56.333 -0.333008 -85 -1s-57 -1 -85 -1l-3 34c37.333 2.66699 64 7.16699 80 13.5s24 18.166 24 35.499
c0 7.33301 -1.33301 15.833 -4 25.5s-6 20.5 -10 32.5zM308.002 413.001h291l-131 396h-3zM644.002 1040c-18 0 -33.334 6.5 -46.001 19.5s-19 28.5 -19 46.5c0 18.667 6.33301 34.334 19 47.001s28 19 46 19c18.667 0 34.334 -6.33301 47.001 -19s19 -28.334 19 -47.001
c0 -18 -6.5 -33.5 -19.5 -46.5s-28.5 -19.5 -46.5 -19.5zM369.001 1040c-18 0 -33.334 6.50098 -46.001 19.501s-19 28.5 -19 46.5s6.33301 33.5 19 46.5s28 19.5 46 19.5c18.667 0 34.334 -6.33301 47.001 -19s19 -28.334 19 -47.001c0 -18 -6.5 -33.5 -19.5 -46.5
s-28.5 -19.5 -46.5 -19.5z" />
    <glyph glyph-name="Aring" unicode="&#xc5;" horiz-adv-x="962" 
d="M618 355l-332.998 0.000976562l-77 -197c-13.333 -38 -20 -62 -20 -72c0 -17.333 8.16699 -29.333 24.5 -36s45.5 -11 87.5 -13l-3 -36c-24.667 0 -52.334 0.333008 -83.001 1s-61 1 -91 1c-24.667 0 -50.167 -0.333008 -76.5 -1s-51.833 -1 -76.5 -1l-2 34
c26 2 47.333 5.16699 64 9.5s31.167 12.333 43.5 24s24 27.667 35 48s23.833 47.5 38.5 81.5l277 677c8 20 16.5 37.5 25.5 52.5s16.833 31.167 23.5 48.5l63 8c7.33301 -32 15.166 -61.333 23.499 -88l23.5 -73l225 -652c10 -29.333 19 -52.333 27 -69
s17.333 -29.5 28 -38.5s24.167 -15.167 40.5 -18.5s37.5 -6 63.5 -8l-3 -36c-28 0 -58.833 0.333008 -92.5 1s-67.5 1 -101.5 1c-28 0 -56.333 -0.333008 -85 -1s-57 -1 -85 -1l-3 34c37.333 2.66699 64 7.16699 80 13.5s24 18.166 24 35.499
c0 7.33301 -1.33301 15.833 -4 25.5s-6 20.5 -10 32.5zM308.002 413.001h291l-131 396h-3zM384.002 1119c0 14.667 3.33301 28.501 10 41.501s15.834 24.167 27.501 33.5s24.834 16.666 39.501 21.999s30 8 46 8c18 0 34.5 -2.66699 49.5 -8s28 -12.666 39 -21.999
s19.5 -20 25.5 -32s9 -25 9 -39c0 -14.667 -3.33301 -28.334 -10 -41.001s-15.834 -23.5 -27.501 -32.5s-24.834 -16.167 -39.501 -21.5s-30 -8 -46 -8c-36 0 -65.5 9.5 -88.5 28.5s-34.5 42.5 -34.5 70.5zM575.002 1119c0 19.333 -5.66504 36.168 -16.998 50.501
s-28.333 21.5 -51 21.5s-41.834 -6.5 -57.501 -19.5s-23.5 -29.167 -23.5 -48.5c0 -21.333 8.16699 -38.333 24.5 -51s35.166 -19 56.499 -19c22.667 0 39.667 6.16699 51 18.5s17 28.166 17 47.499z" />
    <glyph glyph-name="AE" unicode="&#xc6;" horiz-adv-x="1336" 
d="M1301 233c-5.33301 -19.333 -10.333 -39.9961 -15 -61.9961s-9 -43.667 -13 -65s-7.33301 -41.333 -10 -60s-4.33398 -34 -5.00098 -46c-66.667 0 -126 0.166992 -178 0.5s-98.333 0.5 -139 0.5s-75.834 0.166992 -105.501 0.5s-54.5 0.5 -74.5 0.5
c-13.333 0 -28.666 -0.166992 -45.999 -0.5s-34.666 -0.5 -51.999 -0.5s-33.833 -0.166992 -49.5 -0.5s-28.167 -0.5 -37.5 -0.5l-3 34c30.667 2 55.334 5.16699 74.001 9.5s33 11 43 20s16.667 21.333 20 37s5 36.167 5 61.5v257h-131c-22 0 -45.667 -0.166992 -71 -0.5
s-54.333 -0.833008 -87 -1.5l-182 -260c-14 -20 -25.167 -37.167 -33.5 -51.5s-12.5 -26.166 -12.5 -35.499c0 -11.333 7 -19.5 21 -24.5s38.333 -8.16699 73 -9.5l-3 -36c-24.667 0 -51.334 0.333008 -80.001 1s-58 1 -88 1c-24.667 0 -51.167 -0.333008 -79.5 -1
s-54.833 -1 -79.5 -1l-2 34c26.667 1.33301 49.5 4.66602 68.5 9.99902s36.833 14.166 53.5 26.499s33.5 28.666 50.5 48.999s36.833 46.166 59.5 77.499l495 688c3.33301 5.33301 5 9.66602 5 12.999c0 8.66699 -10 14.834 -30 18.501s-49 6.16699 -87 7.5l3 36
c12.667 0 27.334 -0.166992 44.001 -0.5s33.667 -0.5 51 -0.5c18 0 35.833 -0.166992 53.5 -0.5s34.5 -0.5 50.5 -0.5c26 0 78 0.333008 156 1s183.333 1 316 1c-4 -34 -7 -70.667 -9 -110s-3.33301 -83 -4 -131l-39 -1c-6 39.333 -12.667 71.5 -20 96.5
s-17.666 44.667 -30.999 59s-30.666 24.166 -51.999 29.499s-49 8 -83 8h-134c-20 0 -32.833 -2 -38.5 -6s-8.5 -14.333 -8.5 -31v-394l329 11l7 -7l-2 -81c-56.667 5.33301 -112.334 9 -167.001 11s-110.334 3.33301 -167.001 4v-255c0 -22.667 1.33301 -41.334 4 -56.001
s8.5 -26.167 17.5 -34.5s21.667 -14.166 38 -17.499s38.166 -5 65.499 -5h64c38.667 0 70.167 3.16699 94.5 9.5s44.833 17 61.5 32s31.5 34.833 44.5 59.5s27.167 55 42.5 91zM461 468.004l254 8v358z" />
    <glyph glyph-name="Ccedilla" unicode="&#xc7;" horiz-adv-x="1013" 
d="M197 498c0 -64 8.00293 -124.171 24.0029 -180.504s40.167 -105.333 72.5 -147s72.833 -74.667 121.5 -99s106 -36.5 172 -36.5c36 0 70.5 5 103.5 15s62.167 26.333 87.5 49c24 21.333 44.833 47.5 62.5 78.5s35.167 67.5 52.5 109.5l40 -10
c-11.333 -44 -20.333 -85.333 -27 -124s-12.334 -80 -17.001 -124c-50 -14.667 -99.833 -26.167 -149.5 -34.5s-98.834 -13.166 -147.501 -14.499c-8.66699 -6.66699 -14.667 -13.167 -18 -19.5s-5 -12.833 -5 -19.5c0 -9.33301 4 -17.666 12 -24.999s17 -16.333 27 -27
c10.667 -11.333 20.667 -23.666 30 -36.999s14 -25.666 14 -36.999c0 -12 -4.33301 -26.667 -13 -44s-20.334 -34 -35.001 -50s-31.667 -29.5 -51 -40.5s-39.333 -16.5 -60 -16.5c-7.33301 0 -15 1.16699 -23 3.5s-15.5 5.83301 -22.5 10.5s-12.833 10.5 -17.5 17.5
s-7 15.167 -7 24.5c0 11.333 5.33301 22.333 16 33s21.667 17.667 33 21c10.667 -14.667 21.667 -26 33 -34s24.333 -12 39 -12c20 0 30 10.333 30 31c0 12 -4 23.167 -12 33.5s-17.333 20.833 -28 31.5c-11.333 11.333 -21.666 22.5 -30.999 33.5s-14 22.167 -14 33.5
c0 10.667 4.5 23.5 13.5 38.5s25.833 32.167 50.5 51.5c-72.667 2.66699 -139.334 16.167 -200.001 40.5s-113 57.666 -157 99.999s-78.333 93 -103 152s-37 124.5 -37 196.5c0 85.333 15.667 159.833 47 223.5s73.833 116.834 127.5 159.501s115.834 74.5 186.501 95.5
s145.334 31.5 224.001 31.5c40.667 0 84.167 -3 130.5 -9s89.5 -14.333 129.5 -25c-4 -42.667 -6.5 -83.167 -7.5 -121.5s-1.5 -78.833 -1.5 -121.5l-42 -4c-2.66699 39.333 -10.5 73.5 -23.5 102.5s-30.333 53 -52 72s-46.834 33 -75.501 42s-60 13.5 -94 13.5
c-66.667 0 -125.334 -10.5 -176.001 -31.5s-93.167 -50.333 -127.5 -88s-60.333 -83 -78 -136s-26.5 -111.5 -26.5 -175.5z" />
    <glyph glyph-name="Egrave" unicode="&#xc8;" horiz-adv-x="816" 
d="M300 163c0 -22.667 1.49707 -41.3359 4.49707 -56.0029s9 -26.167 18 -34.5s21.667 -14.166 38 -17.499s38.166 -5 65.499 -5h73c38.667 0 70.167 3.16699 94.5 9.5s44.833 17 61.5 32s31.5 34.833 44.5 59.5s27.167 55 42.5 91l39 -9
c-5.33301 -19.333 -10.333 -40 -15 -62s-9 -43.667 -13 -65s-7.33301 -41.333 -10 -60s-4.33398 -34 -5.00098 -46c-132.667 0 -240.167 0.333008 -322.5 1s-143.833 1 -184.5 1c-12 0 -26.167 -0.166992 -42.5 -0.5s-33.166 -0.5 -50.499 -0.5
s-34.166 -0.166992 -50.499 -0.5s-30.166 -0.5 -41.499 -0.5l-3 34c30.667 2 55.334 5.16699 74.001 9.5s33 11 43 20s16.667 21.333 20 37s5 36.167 5 61.5v673c0 16 -1.5 29.333 -4.5 40s-9 19.5 -18 26.5s-22 12.167 -39 15.5s-39.833 5.66602 -68.5 6.99902l3 36
c12.667 0 27.167 -0.166992 43.5 -0.5s32.833 -0.5 49.5 -0.5c17.333 0 34.166 -0.166992 50.499 -0.5s31.5 -0.5 45.5 -0.5c26 0 80.667 0.333008 164 1s189.333 1 318 1c-4 -34 -7 -69.667 -9 -107s-3.33301 -77 -4 -119l-40 -1c-6 34.667 -12.667 63.334 -20 86.001
s-17.666 40.834 -30.999 54.501s-30.666 23.334 -51.999 29.001s-49 8.5 -83 8.5h-143c-20 0 -32.833 -2 -38.5 -6s-8.5 -14.333 -8.5 -31v-346l338 10l7 -7l-2 -83c-60.667 5.33301 -120.5 9 -179.5 11s-113.5 3.66699 -163.5 5v-301zM498.997 1052l2 -7l-21 -25l-267 116
l-2 12l78 66z" />
    <glyph glyph-name="Eacute" unicode="&#xc9;" horiz-adv-x="816" 
d="M300 163c0 -22.667 1.49707 -41.3359 4.49707 -56.0029s9 -26.167 18 -34.5s21.667 -14.166 38 -17.499s38.166 -5 65.499 -5h73c38.667 0 70.167 3.16699 94.5 9.5s44.833 17 61.5 32s31.5 34.833 44.5 59.5s27.167 55 42.5 91l39 -9
c-5.33301 -19.333 -10.333 -40 -15 -62s-9 -43.667 -13 -65s-7.33301 -41.333 -10 -60s-4.33398 -34 -5.00098 -46c-132.667 0 -240.167 0.333008 -322.5 1s-143.833 1 -184.5 1c-12 0 -26.167 -0.166992 -42.5 -0.5s-33.166 -0.5 -50.499 -0.5
s-34.166 -0.166992 -50.499 -0.5s-30.166 -0.5 -41.499 -0.5l-3 34c30.667 2 55.334 5.16699 74.001 9.5s33 11 43 20s16.667 21.333 20 37s5 36.167 5 61.5v673c0 16 -1.5 29.333 -4.5 40s-9 19.5 -18 26.5s-22 12.167 -39 15.5s-39.833 5.66602 -68.5 6.99902l3 36
c12.667 0 27.167 -0.166992 43.5 -0.5s32.833 -0.5 49.5 -0.5c17.333 0 34.166 -0.166992 50.499 -0.5s31.5 -0.5 45.5 -0.5c26 0 80.667 0.333008 164 1s189.333 1 318 1c-4 -34 -7 -69.667 -9 -107s-3.33301 -77 -4 -119l-40 -1c-6 34.667 -12.667 63.334 -20 86.001
s-17.666 40.834 -30.999 54.501s-30.666 23.334 -51.999 29.001s-49 8.5 -83 8.5h-143c-20 0 -32.833 -2 -38.5 -6s-8.5 -14.333 -8.5 -31v-346l338 10l7 -7l-2 -83c-60.667 5.33301 -120.5 9 -179.5 11s-113.5 3.66699 -163.5 5v-301zM570.997 1214l78 -66l-2 -12
l-267 -116l-21 25l2 7z" />
    <glyph glyph-name="Ecircumflex" unicode="&#xca;" horiz-adv-x="816" 
d="M300 163c0 -22.667 1.49707 -41.3359 4.49707 -56.0029s9 -26.167 18 -34.5s21.667 -14.166 38 -17.499s38.166 -5 65.499 -5h73c38.667 0 70.167 3.16699 94.5 9.5s44.833 17 61.5 32s31.5 34.833 44.5 59.5s27.167 55 42.5 91l39 -9
c-5.33301 -19.333 -10.333 -40 -15 -62s-9 -43.667 -13 -65s-7.33301 -41.333 -10 -60s-4.33398 -34 -5.00098 -46c-132.667 0 -240.167 0.333008 -322.5 1s-143.833 1 -184.5 1c-12 0 -26.167 -0.166992 -42.5 -0.5s-33.166 -0.5 -50.499 -0.5
s-34.166 -0.166992 -50.499 -0.5s-30.166 -0.5 -41.499 -0.5l-3 34c30.667 2 55.334 5.16699 74.001 9.5s33 11 43 20s16.667 21.333 20 37s5 36.167 5 61.5v673c0 16 -1.5 29.333 -4.5 40s-9 19.5 -18 26.5s-22 12.167 -39 15.5s-39.833 5.66602 -68.5 6.99902l3 36
c12.667 0 27.167 -0.166992 43.5 -0.5s32.833 -0.5 49.5 -0.5c17.333 0 34.166 -0.166992 50.499 -0.5s31.5 -0.5 45.5 -0.5c26 0 80.667 0.333008 164 1s189.333 1 318 1c-4 -34 -7 -69.667 -9 -107s-3.33301 -77 -4 -119l-40 -1c-6 34.667 -12.667 63.334 -20 86.001
s-17.666 40.834 -30.999 54.501s-30.666 23.334 -51.999 29.001s-49 8.5 -83 8.5h-143c-20 0 -32.833 -2 -38.5 -6s-8.5 -14.333 -8.5 -31v-346l338 10l7 -7l-2 -83c-60.667 5.33301 -120.5 9 -179.5 11s-113.5 3.66699 -163.5 5v-301zM279.997 1014l-38 10l-4 6l154 178
l82 6l148 -184l-4 -6l-38 -10l-154 115z" />
    <glyph glyph-name="Edieresis" unicode="&#xcb;" horiz-adv-x="816" 
d="M300 163c0 -22.667 1.49707 -41.3359 4.49707 -56.0029s9 -26.167 18 -34.5s21.667 -14.166 38 -17.499s38.166 -5 65.499 -5h73c38.667 0 70.167 3.16699 94.5 9.5s44.833 17 61.5 32s31.5 34.833 44.5 59.5s27.167 55 42.5 91l39 -9
c-5.33301 -19.333 -10.333 -40 -15 -62s-9 -43.667 -13 -65s-7.33301 -41.333 -10 -60s-4.33398 -34 -5.00098 -46c-132.667 0 -240.167 0.333008 -322.5 1s-143.833 1 -184.5 1c-12 0 -26.167 -0.166992 -42.5 -0.5s-33.166 -0.5 -50.499 -0.5
s-34.166 -0.166992 -50.499 -0.5s-30.166 -0.5 -41.499 -0.5l-3 34c30.667 2 55.334 5.16699 74.001 9.5s33 11 43 20s16.667 21.333 20 37s5 36.167 5 61.5v673c0 16 -1.5 29.333 -4.5 40s-9 19.5 -18 26.5s-22 12.167 -39 15.5s-39.833 5.66602 -68.5 6.99902l3 36
c12.667 0 27.167 -0.166992 43.5 -0.5s32.833 -0.5 49.5 -0.5c17.333 0 34.166 -0.166992 50.499 -0.5s31.5 -0.5 45.5 -0.5c26 0 80.667 0.333008 164 1s189.333 1 318 1c-4 -34 -7 -69.667 -9 -107s-3.33301 -77 -4 -119l-40 -1c-6 34.667 -12.667 63.334 -20 86.001
s-17.666 40.834 -30.999 54.501s-30.666 23.334 -51.999 29.001s-49 8.5 -83 8.5h-143c-20 0 -32.833 -2 -38.5 -6s-8.5 -14.333 -8.5 -31v-346l338 10l7 -7l-2 -83c-60.667 5.33301 -120.5 9 -179.5 11s-113.5 3.66699 -163.5 5v-301zM566.997 1040
c-18 0 -33.334 6.5 -46.001 19.5s-19 28.5 -19 46.5c0 18.667 6.33301 34.334 19 47.001s28 19 46 19c18.667 0 34.334 -6.33301 47.001 -19s19 -28.334 19 -47.001c0 -18 -6.5 -33.5 -19.5 -46.5s-28.5 -19.5 -46.5 -19.5zM291.996 1040
c-18 0 -33.334 5.50098 -46.001 16.501s-19 25.5 -19 43.5s6.33301 34.5 19 49.5s28 22.5 46 22.5c18.667 0 34.334 -6.33301 47.001 -19s19 -28.334 19 -47.001c0 -18 -6.5 -33.5 -19.5 -46.5s-28.5 -19.5 -46.5 -19.5z" />
    <glyph glyph-name="Igrave" unicode="&#xcc;" horiz-adv-x="485" 
d="M61 34c26 2 46.9941 5.16797 62.9941 9.50098s28.5 11 37.5 20s15.167 21.333 18.5 37s5 36.167 5 61.5v673c0 16 -1.33301 29.333 -4 40s-8.5 19.5 -17.5 26.5s-21.833 12.167 -38.5 15.5s-38.667 5.66602 -66 6.99902l2 36c10.667 0 23.667 -0.166992 39 -0.5
s31.666 -0.5 48.999 -0.5c18 0 36.167 -0.166992 54.5 -0.5s35.5 -0.5 51.5 -0.5c12.667 0 26.834 0.166992 42.501 0.5s31.167 0.5 46.5 0.5s29.833 0.166992 43.5 0.5s25.167 0.5 34.5 0.5l4 -34c-26 -2 -47.167 -5.16699 -63.5 -9.5s-29.166 -11 -38.499 -20
s-15.666 -21.333 -18.999 -37s-5 -35.834 -5 -60.501v-674c0 -16 1.33301 -29.333 4 -40s8.33398 -19.5 17.001 -26.5s21.334 -12.167 38.001 -15.5s39 -5.66602 67 -6.99902v-36c-10.667 0 -24 0.166992 -40 0.5s-33 0.5 -51 0.5c-17.333 0 -35 0.166992 -53 0.5
s-35 0.5 -51 0.5c-13.333 0 -27.666 -0.166992 -42.999 -0.5s-30.666 -0.5 -45.999 -0.5s-29.833 -0.166992 -43.5 -0.5s-25.167 -0.5 -34.5 -0.5zM331.994 1052l2 -7l-21 -25l-267 116l-2 12l78 66z" />
    <glyph glyph-name="Iacute" unicode="&#xcd;" horiz-adv-x="485" 
d="M61 34c26 2 46.9941 5.16797 62.9941 9.50098s28.5 11 37.5 20s15.167 21.333 18.5 37s5 36.167 5 61.5v673c0 16 -1.33301 29.333 -4 40s-8.5 19.5 -17.5 26.5s-21.833 12.167 -38.5 15.5s-38.667 5.66602 -66 6.99902l2 36c10.667 0 23.667 -0.166992 39 -0.5
s31.666 -0.5 48.999 -0.5c18 0 36.167 -0.166992 54.5 -0.5s35.5 -0.5 51.5 -0.5c12.667 0 26.834 0.166992 42.501 0.5s31.167 0.5 46.5 0.5s29.833 0.166992 43.5 0.5s25.167 0.5 34.5 0.5l4 -34c-26 -2 -47.167 -5.16699 -63.5 -9.5s-29.166 -11 -38.499 -20
s-15.666 -21.333 -18.999 -37s-5 -35.834 -5 -60.501v-674c0 -16 1.33301 -29.333 4 -40s8.33398 -19.5 17.001 -26.5s21.334 -12.167 38.001 -15.5s39 -5.66602 67 -6.99902v-36c-10.667 0 -24 0.166992 -40 0.5s-33 0.5 -51 0.5c-17.333 0 -35 0.166992 -53 0.5
s-35 0.5 -51 0.5c-13.333 0 -27.666 -0.166992 -42.999 -0.5s-30.666 -0.5 -45.999 -0.5s-29.833 -0.166992 -43.5 -0.5s-25.167 -0.5 -34.5 -0.5zM363.994 1214l62 -66l14 -12l-267 -116l-21 25l2 7z" />
    <glyph glyph-name="Icircumflex" unicode="&#xce;" horiz-adv-x="485" 
d="M61 34c26 2 46.9941 5.16797 62.9941 9.50098s28.5 11 37.5 20s15.167 21.333 18.5 37s5 36.167 5 61.5v673c0 16 -1.33301 29.333 -4 40s-8.5 19.5 -17.5 26.5s-21.833 12.167 -38.5 15.5s-38.667 5.66602 -66 6.99902l2 36c10.667 0 23.667 -0.166992 39 -0.5
s31.666 -0.5 48.999 -0.5c18 0 36.167 -0.166992 54.5 -0.5s35.5 -0.5 51.5 -0.5c12.667 0 26.834 0.166992 42.501 0.5s31.167 0.5 46.5 0.5s29.833 0.166992 43.5 0.5s25.167 0.5 34.5 0.5l4 -34c-26 -2 -47.167 -5.16699 -63.5 -9.5s-29.166 -11 -38.499 -20
s-15.666 -21.333 -18.999 -37s-5 -35.834 -5 -60.501v-674c0 -16 1.33301 -29.333 4 -40s8.33398 -19.5 17.001 -26.5s21.334 -12.167 38.001 -15.5s39 -5.66602 67 -6.99902v-36c-10.667 0 -24 0.166992 -40 0.5s-33 0.5 -51 0.5c-17.333 0 -35 0.166992 -53 0.5
s-35 0.5 -51 0.5c-13.333 0 -27.666 -0.166992 -42.999 -0.5s-30.666 -0.5 -45.999 -0.5s-29.833 -0.166992 -43.5 -0.5s-25.167 -0.5 -34.5 -0.5zM92.9941 1014l-38 10l-4 6l154 178l82 6l148 -184l-4 -6l-38 -10l-150 115z" />
    <glyph glyph-name="Idieresis" unicode="&#xcf;" horiz-adv-x="485" 
d="M61 34c26 2 46.9941 5.16797 62.9941 9.50098s28.5 11 37.5 20s15.167 21.333 18.5 37s5 36.167 5 61.5v673c0 16 -1.33301 29.333 -4 40s-8.5 19.5 -17.5 26.5s-21.833 12.167 -38.5 15.5s-38.667 5.66602 -66 6.99902l2 36c10.667 0 23.667 -0.166992 39 -0.5
s31.666 -0.5 48.999 -0.5c18 0 36.167 -0.166992 54.5 -0.5s35.5 -0.5 51.5 -0.5c12.667 0 26.834 0.166992 42.501 0.5s31.167 0.5 46.5 0.5s29.833 0.166992 43.5 0.5s25.167 0.5 34.5 0.5l4 -34c-26 -2 -47.167 -5.16699 -63.5 -9.5s-29.166 -11 -38.499 -20
s-15.666 -21.333 -18.999 -37s-5 -35.834 -5 -60.501v-674c0 -16 1.33301 -29.333 4 -40s8.33398 -19.5 17.001 -26.5s21.334 -12.167 38.001 -15.5s39 -5.66602 67 -6.99902v-36c-10.667 0 -24 0.166992 -40 0.5s-33 0.5 -51 0.5c-17.333 0 -35 0.166992 -53 0.5
s-35 0.5 -51 0.5c-13.333 0 -27.666 -0.166992 -42.999 -0.5s-30.666 -0.5 -45.999 -0.5s-29.833 -0.166992 -43.5 -0.5s-25.167 -0.5 -34.5 -0.5zM379.994 1040c-18 0 -33.334 6.5 -46.001 19.5s-19 28.5 -19 46.5c0 18.667 6.33301 34.334 19 47.001s28 19 46 19
c18.667 0 34.334 -6.33301 47.001 -19s19 -28.334 19 -47.001c0 -18 -6.5 -33.5 -19.5 -46.5s-28.5 -19.5 -46.5 -19.5zM104.993 1040c-18 0 -33.334 5.50098 -46.001 16.501s-19 25.5 -19 43.5s6.33301 34.5 19 49.5s28 22.5 46 22.5c18.667 0 34.334 -7.33301 47.001 -22
s19 -31.334 19 -50.001c0 -18 -6.5 -32.5 -19.5 -43.5s-28.5 -16.5 -46.5 -16.5z" />
    <glyph glyph-name="Eth" unicode="&#xd0;" horiz-adv-x="1080" 
d="M54 534l131 -0.000976562v297c0 18 -1.33301 32.667 -4 44s-8.5 20.5 -17.5 27.5s-22.5 12 -40.5 15s-42 5.16699 -72 6.5l2 36c24 0 53.167 -0.333008 87.5 -1s68.5 -1 102.5 -1s69.667 1.83301 107 5.5s73.333 5.5 108 5.5c72 0 141.333 -7.66699 208 -23
s125.834 -40.666 177.501 -75.999s93 -81.5 124 -138.5s46.5 -126.833 46.5 -209.5c0 -85.333 -15.333 -161 -46 -227s-72 -121.667 -124 -167s-112.5 -79.833 -181.5 -103.5s-141.833 -35.5 -218.5 -35.5c-34 0 -70.333 2.16699 -109 6.5s-75 6.5 -109 6.5
c-13.333 0 -27.5 -0.166992 -42.5 -0.5s-30.167 -0.5 -45.5 -0.5s-30 -0.166992 -44 -0.5s-26.333 -0.5 -37 -0.5l-3 34c28 2 50.667 5 68 9s30.666 10.667 39.999 20s15.5 21.833 18.5 37.5s4.5 36.167 4.5 61.5v314h-127zM301 533.999l295 0.000976562l-5 -58h-290v-298
c0 -19.333 0.666992 -37.166 2 -53.499s6.33301 -30.5 15 -42.5s22.667 -21.333 42 -28s47 -10 83 -10c64.667 0 123.5 10.167 176.5 30.5s98.5 49.833 136.5 88.5s67.5 85.667 88.5 141s31.5 117.666 31.5 186.999c0 70.667 -10.833 132.5 -32.5 185.5
s-51.5 97.333 -89.5 133s-83 62.5 -135 80.5s-108.333 27 -169 27c-21.333 0 -41 -1.33301 -59 -4s-33.667 -6.33398 -47 -11.001s-23.833 -9.66699 -31.5 -15s-11.5 -11 -11.5 -17v-336z" />
    <glyph glyph-name="Ntilde" unicode="&#xd1;" horiz-adv-x="1103" 
d="M881 -14l-51.9941 71.5c-17.333 23 -35.666 46.167 -54.999 69.5l-535 635l-4 -2v-585c0 -31.333 1.83301 -55.833 5.5 -73.5s10.5 -31 20.5 -40s23.5 -15 40.5 -18s39.167 -5.5 66.5 -7.5l-2 -36c-21.333 -0 -46.5 0.333008 -75.5 1s-59.5 1 -91.5 1
c-25.333 0 -51.833 -0.333008 -79.5 -1s-53.167 -1 -76.5 -1l-3 34c26.667 2.66699 48.667 5.83398 66 9.50098s31.166 11.167 41.499 22.5s17.5 28.333 21.5 51s6 54 6 94v501c0 28 -0.333008 50.667 -1 68s-2.16699 31.5 -4.5 42.5s-5.5 20.167 -9.5 27.5
s-9.33301 15 -16 23c-6.66699 8.66699 -13.334 16 -20.001 22s-14.334 11 -23.001 15s-19.334 7 -32.001 9s-28.334 3.66699 -47.001 5l2 36c8 0 19.833 -0.166992 35.5 -0.5s33.167 -0.5 52.5 -0.5s39.333 -0.166992 60 -0.5s40 -0.5 58 -0.5l640 -755l3 2v579
c0 31.333 -1.83301 55.833 -5.5 73.5s-10.5 31 -20.5 40s-23.667 15 -41 18s-39.666 5.5 -66.999 7.5l2 36c21.333 0 46.666 -0.333008 75.999 -1s60 -1 92 -1c12.667 0 26 0.166992 40 0.5l41.5 1c13.667 0.333008 26.667 0.666016 39 0.999023s23.166 0.5 32.499 0.5
l1 -34c-26 -2.66699 -47.333 -6 -64 -10s-29.834 -11.667 -39.501 -23s-16.5 -28.333 -20.5 -51s-6 -54 -6 -94v-752zM768.006 1156c-7.33301 -15.333 -15.5 -30.0029 -24.5 -44.0029s-19.167 -26.167 -30.5 -36.5s-23.666 -18.666 -36.999 -24.999
s-27.666 -9.5 -42.999 -9.5c-12.667 0 -24.834 2.33301 -36.501 7l-37.5 15l-60.5 24c-12.333 4.66699 -22.833 7 -31.5 7c-18 0 -33.167 -5.16699 -45.5 -15.5s-23.5 -23.166 -33.5 -38.499l-37 17c6.66699 15.333 14.5 29.833 23.5 43.5s19.167 25.834 30.5 36.501
s23.666 19 36.999 25s27.666 9 42.999 9c12.667 0 24.834 -2.33301 36.501 -7l37.5 -15l61 -24c12 -4.66699 22.333 -7 31 -7c18.667 0 34 5.33301 46 16s23.333 23.667 34 39z" />
    <glyph glyph-name="Ograve" unicode="&#xd2;" horiz-adv-x="1122" 
d="M561 980c72.667 0 139.503 -11.5 200.503 -34.5s113.167 -55.833 156.5 -98.5s77.166 -94.167 101.499 -154.5s36.5 -127.833 36.5 -202.5c0 -74 -12 -142.167 -36 -204.5s-57.667 -116.166 -101 -161.499s-95.333 -80.666 -156 -105.999s-128 -38 -202 -38
c-72.667 0 -139.334 11.5 -200.001 34.5s-112.834 55.833 -156.501 98.5s-77.667 94.167 -102 154.5s-36.5 127.833 -36.5 202.5c0 74 12 142.167 36 204.5s57.667 116.166 101 161.499s95.333 80.666 156 105.999s128 38 202 38zM555.003 926
c-46 0 -90.167 -7.5 -132.5 -22.5s-79.666 -39.167 -111.999 -72.5s-58.166 -76.5 -77.499 -129.5s-29 -117.5 -29 -193.5c0 -89.333 11 -164.333 33 -225s50.333 -109.5 85 -146.5s73.5 -63.333 116.5 -79s85.833 -23.5 128.5 -23.5c46 0 90.167 7.5 132.5 22.5
s79.666 39.167 111.999 72.5s58.166 76.5 77.499 129.5s29 117.5 29 193.5c0 89.333 -11 164.333 -33 225s-50.333 109.5 -85 146.5s-73.5 63.333 -116.5 79s-85.833 23.5 -128.5 23.5zM630.003 1052l2 -7l-21 -25l-267 116l-2 12l78 66z" />
    <glyph glyph-name="Oacute" unicode="&#xd3;" horiz-adv-x="1122" 
d="M561 980c72.667 0 139.503 -11.5 200.503 -34.5s113.167 -55.833 156.5 -98.5s77.166 -94.167 101.499 -154.5s36.5 -127.833 36.5 -202.5c0 -74 -12 -142.167 -36 -204.5s-57.667 -116.166 -101 -161.499s-95.333 -80.666 -156 -105.999s-128 -38 -202 -38
c-72.667 0 -139.334 11.5 -200.001 34.5s-112.834 55.833 -156.501 98.5s-77.667 94.167 -102 154.5s-36.5 127.833 -36.5 202.5c0 74 12 142.167 36 204.5s57.667 116.166 101 161.499s95.333 80.666 156 105.999s128 38 202 38zM555.003 926
c-46 0 -90.167 -7.5 -132.5 -22.5s-79.666 -39.167 -111.999 -72.5s-58.166 -76.5 -77.499 -129.5s-29 -117.5 -29 -193.5c0 -89.333 11 -164.333 33 -225s50.333 -109.5 85 -146.5s73.5 -63.333 116.5 -79s85.833 -23.5 128.5 -23.5c46 0 90.167 7.5 132.5 22.5
s79.666 39.167 111.999 72.5s58.166 76.5 77.499 129.5s29 117.5 29 193.5c0 89.333 -11 164.333 -33 225s-50.333 109.5 -85 146.5s-73.5 63.333 -116.5 79s-85.833 23.5 -128.5 23.5zM702.003 1214l78 -66l-2 -12l-267 -116l-21 25l2 7z" />
    <glyph glyph-name="Ocircumflex" unicode="&#xd4;" horiz-adv-x="1122" 
d="M561 980c72.667 0 139.503 -11.5 200.503 -34.5s113.167 -55.833 156.5 -98.5s77.166 -94.167 101.499 -154.5s36.5 -127.833 36.5 -202.5c0 -74 -12 -142.167 -36 -204.5s-57.667 -116.166 -101 -161.499s-95.333 -80.666 -156 -105.999s-128 -38 -202 -38
c-72.667 0 -139.334 11.5 -200.001 34.5s-112.834 55.833 -156.501 98.5s-77.667 94.167 -102 154.5s-36.5 127.833 -36.5 202.5c0 74 12 142.167 36 204.5s57.667 116.166 101 161.499s95.333 80.666 156 105.999s128 38 202 38zM555.003 926
c-46 0 -90.167 -7.5 -132.5 -22.5s-79.666 -39.167 -111.999 -72.5s-58.166 -76.5 -77.499 -129.5s-29 -117.5 -29 -193.5c0 -89.333 11 -164.333 33 -225s50.333 -109.5 85 -146.5s73.5 -63.333 116.5 -79s85.833 -23.5 128.5 -23.5c46 0 90.167 7.5 132.5 22.5
s79.666 39.167 111.999 72.5s58.166 76.5 77.499 129.5s29 117.5 29 193.5c0 89.333 -11 164.333 -33 225s-50.333 109.5 -85 146.5s-73.5 63.333 -116.5 79s-85.833 23.5 -128.5 23.5zM411.003 1014l-38 10l-4 6l154 178l82 6l148 -184l-4 -6l-38 -10l-150 115z" />
    <glyph glyph-name="Otilde" unicode="&#xd5;" horiz-adv-x="1122" 
d="M561 980c72.667 0 139.503 -11.5 200.503 -34.5s113.167 -55.833 156.5 -98.5s77.166 -94.167 101.499 -154.5s36.5 -127.833 36.5 -202.5c0 -74 -12 -142.167 -36 -204.5s-57.667 -116.166 -101 -161.499s-95.333 -80.666 -156 -105.999s-128 -38 -202 -38
c-72.667 0 -139.334 11.5 -200.001 34.5s-112.834 55.833 -156.501 98.5s-77.667 94.167 -102 154.5s-36.5 127.833 -36.5 202.5c0 74 12 142.167 36 204.5s57.667 116.166 101 161.499s95.333 80.666 156 105.999s128 38 202 38zM555.003 926
c-46 0 -90.167 -7.5 -132.5 -22.5s-79.666 -39.167 -111.999 -72.5s-58.166 -76.5 -77.499 -129.5s-29 -117.5 -29 -193.5c0 -89.333 11 -164.333 33 -225s50.333 -109.5 85 -146.5s73.5 -63.333 116.5 -79s85.833 -23.5 128.5 -23.5c46 0 90.167 7.5 132.5 22.5
s79.666 39.167 111.999 72.5s58.166 76.5 77.499 129.5s29 117.5 29 193.5c0 89.333 -11 164.333 -33 225s-50.333 109.5 -85 146.5s-73.5 63.333 -116.5 79s-85.833 23.5 -128.5 23.5zM774.003 1156c-7.33301 -15.333 -15.5 -30.0029 -24.5 -44.0029
s-19.167 -26.167 -30.5 -36.5s-23.666 -18.666 -36.999 -24.999s-27.666 -9.5 -42.999 -9.5c-12.667 0 -24.834 2.33301 -36.501 7l-37.5 15l-60.5 24c-12.333 4.66699 -22.833 7 -31.5 7c-18 0 -33.167 -5.16699 -45.5 -15.5s-23.5 -23.166 -33.5 -38.499l-37 17
c6.66699 15.333 14.5 29.833 23.5 43.5s19.167 25.834 30.5 36.501s23.666 19 36.999 25s27.666 9 42.999 9c12.667 0 24.834 -2.33301 36.501 -7l37.5 -15l61 -24c12 -4.66699 22.333 -7 31 -7c18.667 0 34 5.33301 46 16s23.333 23.667 34 39z" />
    <glyph glyph-name="Odieresis" unicode="&#xd6;" horiz-adv-x="1122" 
d="M561 980c72.667 0 139.503 -11.5 200.503 -34.5s113.167 -55.833 156.5 -98.5s77.166 -94.167 101.499 -154.5s36.5 -127.833 36.5 -202.5c0 -74 -12 -142.167 -36 -204.5s-57.667 -116.166 -101 -161.499s-95.333 -80.666 -156 -105.999s-128 -38 -202 -38
c-72.667 0 -139.334 11.5 -200.001 34.5s-112.834 55.833 -156.501 98.5s-77.667 94.167 -102 154.5s-36.5 127.833 -36.5 202.5c0 74 12 142.167 36 204.5s57.667 116.166 101 161.499s95.333 80.666 156 105.999s128 38 202 38zM555.003 926
c-46 0 -90.167 -7.5 -132.5 -22.5s-79.666 -39.167 -111.999 -72.5s-58.166 -76.5 -77.499 -129.5s-29 -117.5 -29 -193.5c0 -89.333 11 -164.333 33 -225s50.333 -109.5 85 -146.5s73.5 -63.333 116.5 -79s85.833 -23.5 128.5 -23.5c46 0 90.167 7.5 132.5 22.5
s79.666 39.167 111.999 72.5s58.166 76.5 77.499 129.5s29 117.5 29 193.5c0 89.333 -11 164.333 -33 225s-50.333 109.5 -85 146.5s-73.5 63.333 -116.5 79s-85.833 23.5 -128.5 23.5zM698.003 1040c-18 0 -33.333 6.5 -46 19.5s-19 28.5 -19 46.5
c0 18.667 6.33301 34.334 19 47.001s28 19 46 19c18.667 0 34.5 -6.33301 47.5 -19s19.5 -28.334 19.5 -47.001c0 -18 -6.66699 -33.5 -20 -46.5s-29 -19.5 -47 -19.5zM423.003 1040c-18 0 -33.334 6.50098 -46.001 19.501s-19 28.5 -19 46.5s6.33301 33.5 19 46.5
s28 19.5 46 19.5c18.667 0 34.334 -6.33301 47.001 -19s19 -28.334 19 -47.001c0 -18 -6.5 -33.5 -19.5 -46.5s-28.5 -19.5 -46.5 -19.5z" />
    <glyph glyph-name="multiply" unicode="&#xd7;" horiz-adv-x="680" 
d="M340 348l-228 -228l-43 50l224 225l-224 225l43 50l228 -228l228 228l43 -50l-224 -225l224 -225l-43 -50z" />
    <glyph glyph-name="Oslash" unicode="&#xd8;" horiz-adv-x="1122" 
d="M561 980c52 0 100.167 -5.66992 144.5 -17.0029s85.5 -27.666 123.5 -48.999l68 96l50 -29l-70 -99c56.667 -42.667 100.667 -96.334 132 -161.001s47 -141.667 47 -231c0 -74 -12 -142.167 -36 -204.5s-57.667 -116.166 -101 -161.499s-95.333 -80.666 -156 -105.999
s-128 -38 -202 -38c-52 0 -101 5.83301 -147 17.5s-88.333 28.834 -127 51.501l-75 -106l-46 35l73 104c-54.667 42.667 -97.167 95.834 -127.5 159.501s-45.5 139.834 -45.5 228.501c0 74 12 142.167 36 204.5s57.667 116.166 101 161.499s95.333 80.666 156 105.999
s128 38 202 38zM918 451.997c0 82 -8.99805 151.167 -26.998 207.5s-42 103.5 -72 141.5l-481 -680c34 -32 70.667 -54.5 110 -67.5s79 -19.5 119 -19.5c46 0 90.167 7.5 132.5 22.5s79.666 39.167 111.999 72.5s58.166 76.5 77.499 129.5s29 117.5 29 193.5z
M555.002 925.997c-46 0 -90.1689 -7.5 -132.502 -22.5s-79.666 -39.167 -111.999 -72.5s-58.166 -76.5 -77.499 -129.5s-29 -117.5 -29 -193.5c0 -80 8.5 -147.833 25.5 -203.5s39.833 -102.5 68.5 -140.5l481 680c-34 30 -70.333 51.167 -109 63.5s-77 18.5 -115 18.5z" />
    <glyph glyph-name="Ugrave" unicode="&#xd9;" horiz-adv-x="1047" 
d="M284 329c0 -48 8.00293 -89.1631 24.0029 -123.496s37.167 -62.333 63.5 -84s56.166 -37.667 89.499 -48s67.666 -15.5 102.999 -15.5c36 0 70.333 5.5 103 16.5s61.667 28.667 87 53s45.5 55.666 60.5 93.999s22.5 84.5 22.5 138.5v420c0 29.333 -2.16699 53 -6.5 71
s-12.333 32 -24 42s-27.834 17 -48.501 21s-47.334 7 -80.001 9l2 36c23.333 0 51.5 -0.333008 84.5 -1s67.5 -1 103.5 -1c29.333 0 60 0.5 92 1.5s58.667 1.5 80 1.5l1 -34c-29.333 -2.66699 -53.166 -5.83398 -71.499 -9.50098s-33 -10.834 -44 -21.501
s-18.5 -26.334 -22.5 -47.001s-6 -49 -6 -85v-423c0 -65.333 -11 -120.666 -33 -165.999s-50.833 -82.5 -86.5 -111.5s-76 -50 -121 -63s-90.833 -19.5 -137.5 -19.5c-46 0 -90 6.33301 -132 19s-79.167 32 -111.5 58s-58.166 58.667 -77.499 98s-29 85.666 -29 138.999v534
c0 16 -1.5 29.667 -4.5 41s-9.33301 20.833 -19 28.5s-23.5 13.5 -41.5 17.5s-42 6.66699 -72 8l2 36c12 0 26.167 -0.166992 42.5 -0.5s33.5 -0.5 51.5 -0.5c18.667 0 37.5 -0.166992 56.5 -0.5s36.833 -0.5 53.5 -0.5c13.333 0 28.166 0.166992 44.499 0.5
s32.833 0.5 49.5 0.5s32.5 0.166992 47.5 0.5s28.167 0.5 39.5 0.5l3 -34c-28.667 -2 -52 -5.33301 -70 -10s-32 -12 -42 -22s-16.833 -23.167 -20.5 -39.5s-5.5 -36.833 -5.5 -61.5v-463zM623.003 1052l2 -7l-21 -25l-267 116l-2 12l78 66z" />
    <glyph glyph-name="Uacute" unicode="&#xda;" horiz-adv-x="1047" 
d="M284 329c0 -48 8.00293 -89.1631 24.0029 -123.496s37.167 -62.333 63.5 -84s56.166 -37.667 89.499 -48s67.666 -15.5 102.999 -15.5c36 0 70.333 5.5 103 16.5s61.667 28.667 87 53s45.5 55.666 60.5 93.999s22.5 84.5 22.5 138.5v420c0 29.333 -2.16699 53 -6.5 71
s-12.333 32 -24 42s-27.834 17 -48.501 21s-47.334 7 -80.001 9l2 36c23.333 0 51.5 -0.333008 84.5 -1s67.5 -1 103.5 -1c29.333 0 60 0.5 92 1.5s58.667 1.5 80 1.5l1 -34c-29.333 -2.66699 -53.166 -5.83398 -71.499 -9.50098s-33 -10.834 -44 -21.501
s-18.5 -26.334 -22.5 -47.001s-6 -49 -6 -85v-423c0 -65.333 -11 -120.666 -33 -165.999s-50.833 -82.5 -86.5 -111.5s-76 -50 -121 -63s-90.833 -19.5 -137.5 -19.5c-46 0 -90 6.33301 -132 19s-79.167 32 -111.5 58s-58.166 58.667 -77.499 98s-29 85.666 -29 138.999v534
c0 16 -1.5 29.667 -4.5 41s-9.33301 20.833 -19 28.5s-23.5 13.5 -41.5 17.5s-42 6.66699 -72 8l2 36c12 0 26.167 -0.166992 42.5 -0.5s33.5 -0.5 51.5 -0.5c18.667 0 37.5 -0.166992 56.5 -0.5s36.833 -0.5 53.5 -0.5c13.333 0 28.166 0.166992 44.499 0.5
s32.833 0.5 49.5 0.5s32.5 0.166992 47.5 0.5s28.167 0.5 39.5 0.5l3 -34c-28.667 -2 -52 -5.33301 -70 -10s-32 -12 -42 -22s-16.833 -23.167 -20.5 -39.5s-5.5 -36.833 -5.5 -61.5v-463zM695.003 1214l78 -66l-2 -12l-267 -116l-21 25l2 7z" />
    <glyph glyph-name="Ucircumflex" unicode="&#xdb;" horiz-adv-x="1047" 
d="M284 329c0 -48 8.00293 -89.1631 24.0029 -123.496s37.167 -62.333 63.5 -84s56.166 -37.667 89.499 -48s67.666 -15.5 102.999 -15.5c36 0 70.333 5.5 103 16.5s61.667 28.667 87 53s45.5 55.666 60.5 93.999s22.5 84.5 22.5 138.5v420c0 29.333 -2.16699 53 -6.5 71
s-12.333 32 -24 42s-27.834 17 -48.501 21s-47.334 7 -80.001 9l2 36c23.333 0 51.5 -0.333008 84.5 -1s67.5 -1 103.5 -1c29.333 0 60 0.5 92 1.5s58.667 1.5 80 1.5l1 -34c-29.333 -2.66699 -53.166 -5.83398 -71.499 -9.50098s-33 -10.834 -44 -21.501
s-18.5 -26.334 -22.5 -47.001s-6 -49 -6 -85v-423c0 -65.333 -11 -120.666 -33 -165.999s-50.833 -82.5 -86.5 -111.5s-76 -50 -121 -63s-90.833 -19.5 -137.5 -19.5c-46 0 -90 6.33301 -132 19s-79.167 32 -111.5 58s-58.166 58.667 -77.499 98s-29 85.666 -29 138.999v534
c0 16 -1.5 29.667 -4.5 41s-9.33301 20.833 -19 28.5s-23.5 13.5 -41.5 17.5s-42 6.66699 -72 8l2 36c12 0 26.167 -0.166992 42.5 -0.5s33.5 -0.5 51.5 -0.5c18.667 0 37.5 -0.166992 56.5 -0.5s36.833 -0.5 53.5 -0.5c13.333 0 28.166 0.166992 44.499 0.5
s32.833 0.5 49.5 0.5s32.5 0.166992 47.5 0.5s28.167 0.5 39.5 0.5l3 -34c-28.667 -2 -52 -5.33301 -70 -10s-32 -12 -42 -22s-16.833 -23.167 -20.5 -39.5s-5.5 -36.833 -5.5 -61.5v-463zM404.003 1014l-38 10l-4 6l154 178l82 6l148 -184l-4 -6l-38 -10l-150 115z" />
    <glyph glyph-name="Udieresis" unicode="&#xdc;" horiz-adv-x="1047" 
d="M284 329c0 -48 8.00293 -89.1631 24.0029 -123.496s37.167 -62.333 63.5 -84s56.166 -37.667 89.499 -48s67.666 -15.5 102.999 -15.5c36 0 70.333 5.5 103 16.5s61.667 28.667 87 53s45.5 55.666 60.5 93.999s22.5 84.5 22.5 138.5v420c0 29.333 -2.16699 53 -6.5 71
s-12.333 32 -24 42s-27.834 17 -48.501 21s-47.334 7 -80.001 9l2 36c23.333 0 51.5 -0.333008 84.5 -1s67.5 -1 103.5 -1c29.333 0 60 0.5 92 1.5s58.667 1.5 80 1.5l1 -34c-29.333 -2.66699 -53.166 -5.83398 -71.499 -9.50098s-33 -10.834 -44 -21.501
s-18.5 -26.334 -22.5 -47.001s-6 -49 -6 -85v-423c0 -65.333 -11 -120.666 -33 -165.999s-50.833 -82.5 -86.5 -111.5s-76 -50 -121 -63s-90.833 -19.5 -137.5 -19.5c-46 0 -90 6.33301 -132 19s-79.167 32 -111.5 58s-58.166 58.667 -77.499 98s-29 85.666 -29 138.999v534
c0 16 -1.5 29.667 -4.5 41s-9.33301 20.833 -19 28.5s-23.5 13.5 -41.5 17.5s-42 6.66699 -72 8l2 36c12 0 26.167 -0.166992 42.5 -0.5s33.5 -0.5 51.5 -0.5c18.667 0 37.5 -0.166992 56.5 -0.5s36.833 -0.5 53.5 -0.5c13.333 0 28.166 0.166992 44.499 0.5
s32.833 0.5 49.5 0.5s32.5 0.166992 47.5 0.5s28.167 0.5 39.5 0.5l3 -34c-28.667 -2 -52 -5.33301 -70 -10s-32 -12 -42 -22s-16.833 -23.167 -20.5 -39.5s-5.5 -36.833 -5.5 -61.5v-463zM691.003 1040c-18 0 -33.334 6.5 -46.001 19.5s-19 28.5 -19 46.5
c0 18.667 6.33301 34.334 19 47.001s28 19 46 19c18.667 0 34.334 -6.33301 47.001 -19s19 -28.334 19 -47.001c0 -18 -6.5 -33.5 -19.5 -46.5s-28.5 -19.5 -46.5 -19.5zM416.002 1040c-18 0 -33.334 6.50098 -46.001 19.501s-19 28.5 -19 46.5s6.33301 33.5 19 46.5
s28 19.5 46 19.5c18.667 0 34.334 -6.33301 47.001 -19s19 -28.334 19 -47.001c0 -18 -6.5 -33.5 -19.5 -46.5s-28.5 -19.5 -46.5 -19.5z" />
    <glyph glyph-name="Yacute" unicode="&#xdd;" horiz-adv-x="870" 
d="M380 314c0 19.333 -0.335938 35.8301 -1.00293 49.4971s-2.83398 27.334 -6.50098 41.001s-9.16699 28.5 -16.5 44.5s-17.666 36 -30.999 60l-65.5 116l-97.5 166c-15.333 26 -28.5 47.167 -39.5 63.5s-22.667 29.333 -35 39s-26.833 16.667 -43.5 21s-38 7.5 -64 9.5
l2 36c28 0 58.833 -0.333008 92.5 -1s67.5 -1 101.5 -1c28 0 56.5 0.333008 85.5 1s57.5 1 85.5 1l3 -34c-36 -2.66699 -60.833 -7 -74.5 -13s-20.5 -15 -20.5 -27c0 -8 2.33301 -17.333 7 -28s11 -23.667 19 -39l182 -335l176 318c10.667 19.333 18.834 35.5 24.501 48.5
s8.5 24.167 8.5 33.5c0 12.667 -7.5 21.834 -22.5 27.501s-41.5 9.83398 -79.5 12.501l2 36c24.667 0 50.667 -0.333008 78 -1s56 -1 86 -1c24.667 0 50.167 0.333008 76.5 1s51.833 1 76.5 1l3 -34c-26 -2 -47.5 -5.33301 -64.5 -10s-32.167 -12.667 -45.5 -24
s-26.5 -26.666 -39.5 -45.999s-28.833 -44.666 -47.5 -75.999l-88 -150.5c-24.667 -43.667 -44 -79.5 -58 -107.5c-14 -27.333 -24.667 -49.333 -32 -66s-12.666 -31.334 -15.999 -44.001s-5.16602 -24.834 -5.49902 -36.501s-0.5 -25.834 -0.5 -42.501v-198
c0 -16 1.33301 -29.333 4 -40s8.66699 -19.5 18 -26.5s23.5 -12.167 42.5 -15.5s44.833 -5.66602 77.5 -6.99902l-2 -36c-14 0 -29.833 0.166992 -47.5 0.5s-35.834 0.5 -54.501 0.5s-37.167 0.166992 -55.5 0.5s-35.5 0.5 -51.5 0.5
c-13.333 0 -27.833 -0.166992 -43.5 -0.5s-31.5 -0.5 -47.5 -0.5s-32 -0.166992 -48 -0.5s-30.333 -0.5 -43 -0.5l-3 34c30.667 2 55.334 5 74.001 9s32.667 10.667 42 20s15.5 21.833 18.5 37.5s4.5 36.167 4.5 61.5v152zM599.997 1214l78 -66l-2 -12l-267 -116l-21 25l2 7
z" />
    <glyph glyph-name="Thorn" unicode="&#xde;" horiz-adv-x="805" 
d="M300 777c19.333 3.33301 39.1709 5.83691 59.5039 7.50391s40.166 2.5 59.499 2.5c47.333 0 92.5 -4.66699 135.5 -14s80.833 -24.833 113.5 -46.5s58.667 -50 78 -85s29 -78.167 29 -129.5s-10.333 -96 -31 -134s-47.667 -69.5 -81 -94.5s-70.666 -43.667 -111.999 -56
s-83 -18.5 -125 -18.5c-25.333 0 -49.5 1.66699 -72.5 5s-40.833 7.66602 -53.5 12.999v-100c0 -16 0.833008 -29.5 2.5 -40.5s6.66699 -20.167 15 -27.5s21 -12.833 38 -16.5s40.5 -5.83398 70.5 -6.50098v-36c-10.667 0 -23.334 0.166992 -38.001 0.5
s-31.334 0.5 -50.001 0.5c-18 0 -36.5 0.166992 -55.5 0.5s-36.5 0.5 -52.5 0.5c-12.667 0 -26.667 -0.166992 -42 -0.5s-30.666 -0.5 -45.999 -0.5c-14.667 0 -28.667 -0.166992 -42 -0.5s-24.666 -0.5 -33.999 -0.5l-2 34c26 2 46.833 5.16699 62.5 9.5
s27.834 11 36.501 20s14.5 21.333 17.5 37s4.5 36.167 4.5 61.5v673c0 16 -1.33301 29.333 -4 40s-8.16699 19.5 -16.5 26.5s-20.833 12.167 -37.5 15.5s-39 5.66602 -67 6.99902l2 36c10.667 0 23.667 -0.166992 39 -0.5s31.666 -0.5 48.999 -0.5
s35.166 -0.166992 53.499 -0.5s35.5 -0.5 51.5 -0.5c12.667 0 27.167 0.166992 43.5 0.5s32.5 0.5 48.5 0.5c16.667 0 31.667 0.166992 45 0.5s24.666 0.5 33.999 0.5v-34c-28 -2 -50.333 -5 -67 -9s-29.334 -10.667 -38.001 -20s-14.334 -21.833 -17.001 -37.5
s-4 -35.834 -4 -60.501v-22zM300.005 277.004c15.333 -4.66699 31.6689 -8.16699 49.002 -10.5s36.666 -3.5 57.999 -3.5c26 0 52.667 3.83301 80 11.5s52.166 20.834 74.499 39.501s40.833 43.667 55.5 75s22 70.666 22 117.999c0 76.667 -20.833 133.667 -62.5 171
s-99.834 56 -174.501 56c-23.333 0 -41.666 -1 -54.999 -3s-23.5 -5.83301 -30.5 -11.5s-11.5 -13 -13.5 -22s-3 -20.5 -3 -34.5v-386z" />
    <glyph glyph-name="germandbls" unicode="&#xdf;" horiz-adv-x="780" 
d="M39 548c20.667 3.33301 37.5049 6.33105 50.5049 8.99805s23.167 6 30.5 10s12.166 9.16699 14.499 15.5s3.5 14.5 3.5 24.5v105c0 62.667 10 117.334 30 164.001s48 86 84 118c28 24 60.333 43.833 97 59.5s75 23.5 115 23.5c28 0 55 -4.5 81 -13.5
s48.833 -22.167 68.5 -39.5s35.334 -38.666 47.001 -63.999s17.5 -54.333 17.5 -87s-4.83301 -60.667 -14.5 -84s-21.834 -44 -36.501 -62s-30.5 -34.167 -47.5 -48.5s-32.833 -28.833 -47.5 -43.5c-15.333 -15.333 -28 -31.333 -38 -48s-15 -36.667 -15 -60
c0 -18 4.16699 -34.5 12.5 -49.5s19.333 -29 33 -42s29.167 -25.667 46.5 -38l53 -37.5c16.667 -11.333 32.834 -23.333 48.501 -36s29.667 -26.5 42 -41.5s22.166 -31.333 29.499 -49s11 -36.834 11 -57.501c0 -30.667 -5.83301 -58.167 -17.5 -82.5
s-27.167 -44.833 -46.5 -61.5s-41.833 -29.5 -67.5 -38.5s-52.5 -13.5 -80.5 -13.5c-27.333 0 -52.333 3.66699 -75 11s-47.667 13 -75 17c-2 24.667 -4.83301 49.834 -8.5 75.501s-9.16699 54.5 -16.5 86.5l33 10c6.66699 -18 14 -36.333 22 -55s18 -35.5 30 -50.5
s26.5 -27.167 43.5 -36.5s37.5 -14 61.5 -14c30 0 53.333 9.83301 70 29.5s25 44.5 25 74.5c0 17.333 -3.5 33.5 -10.5 48.5s-16.333 29 -28 42s-25 25.333 -40 37l-46.5 34.5c-18 12 -35.667 24.5 -53 37.5s-32.833 27 -46.5 42s-24.834 31.5 -33.501 49.5s-13 38 -13 60
c0 24 3.66699 45.167 11 63.5s16.666 35 27.999 50s24 29 38 42l41 39.5c19.333 19.333 35.833 41.166 49.5 65.499s20.5 55.5 20.5 93.5c0 26 -5 49.167 -15 69.5s-23.333 37.5 -40 51.5s-35.834 24.667 -57.501 32s-44.167 11 -67.5 11c-36 0 -66.667 -9.66699 -92 -29
c-13.333 -11.333 -23.5 -25.333 -30.5 -42s-12.167 -34.667 -15.5 -54s-5.33301 -39.5 -6 -60.5s-1 -41.167 -1 -60.5v-637c0 -16.667 1.5 -30 4.5 -40s8.16699 -17.5 15.5 -22.5s16.666 -8.5 27.999 -10.5s25.666 -3.33301 42.999 -4l-3 -37
c-21.333 0 -43.166 0.333008 -65.499 1s-49.5 1 -81.5 1c-26 0 -52 -0.333008 -78 -1s-48.333 -1 -67 -1l-3 32c22 2 39.5 4.83301 52.5 8.5s23 9.83398 30 18.501s11.667 20.5 14 35.5s3.5 35.167 3.5 60.5v361h-95z" />
    <glyph glyph-name="agrave" unicode="&#xe0;" horiz-adv-x="620" 
d="M392 323c0.666992 4.66699 1.00098 10.3311 1.00098 16.998v23v50c0 34 -8.16699 62.167 -24.5 84.5s-42.5 33.5 -78.5 33.5c-19.333 0 -35.833 -3.5 -49.5 -10.5s-25 -16.167 -34 -27.5s-15.667 -24.333 -20 -39s-6.5 -30 -6.5 -46
c-10.667 -8.66699 -25.334 -13 -44.001 -13c-15.333 0 -29.833 3.5 -43.5 10.5s-20.5 17.5 -20.5 31.5c0 10.667 4.16699 21.667 12.5 33s19.333 22.5 33 33.5s28.834 21.5 45.501 31.5s33.667 18.667 51 26c44.667 19.333 88.667 29 132 29
c21.333 0 41.333 -2.83301 60 -8.5s35 -14.667 49 -27s25 -28.166 33 -47.499s12 -42.333 12 -69c0 -40 -0.666992 -86.167 -2 -138.5s-2 -110.5 -2 -174.5c0 -26 5 -46.333 15 -61s24 -22 42 -22c16 0 33.333 5.66699 52 17l18 -27
c-15.333 -14.667 -34.166 -26.667 -56.499 -36s-44.833 -14 -67.5 -14c-23.333 0 -44.833 6.33301 -64.5 19s-32.834 34.334 -39.501 65.001l-31 -21c-14 -9.33301 -30 -18.833 -48 -28.5s-37.333 -18.167 -58 -25.5s-40.334 -11 -59.001 -11c-22 0 -42 4 -60 12
s-33.5 18.833 -46.5 32.5s-23 29.334 -30 47.001s-10.5 36.5 -10.5 56.5c0 34 9.83301 63.167 29.5 87.5s45.5 43.166 77.5 56.499c23.333 9.33301 54.5 18.833 93.5 28.5s85.5 17.167 139.5 22.5zM390.001 113.997c0 28 0.333008 55.333 1 82s1 54 1 82
c-18 -2 -36.167 -4.5 -54.5 -7.5s-36.166 -6.83301 -53.499 -11.5s-33.666 -10.667 -48.999 -18s-28.333 -16 -39 -26c-16.667 -14.667 -25 -33.667 -25 -57c0 -28 7.16699 -51.667 21.5 -71s36.5 -29 66.5 -29c21.333 0 43.666 5 66.999 15s44.666 23.667 63.999 41z
M334.001 647.997l-3 -6l-35 -6l-155 245l5 11l105 9z" />
    <glyph glyph-name="aacute" unicode="&#xe1;" horiz-adv-x="620" 
d="M392 323c0.666992 4.66699 1.00098 10.3311 1.00098 16.998v23v50c0 34 -8.16699 62.167 -24.5 84.5s-42.5 33.5 -78.5 33.5c-19.333 0 -35.833 -3.5 -49.5 -10.5s-25 -16.167 -34 -27.5s-15.667 -24.333 -20 -39s-6.5 -30 -6.5 -46
c-10.667 -8.66699 -25.334 -13 -44.001 -13c-15.333 0 -29.833 3.5 -43.5 10.5s-20.5 17.5 -20.5 31.5c0 10.667 4.16699 21.667 12.5 33s19.333 22.5 33 33.5s28.834 21.5 45.501 31.5s33.667 18.667 51 26c44.667 19.333 88.667 29 132 29
c21.333 0 41.333 -2.83301 60 -8.5s35 -14.667 49 -27s25 -28.166 33 -47.499s12 -42.333 12 -69c0 -40 -0.666992 -86.167 -2 -138.5s-2 -110.5 -2 -174.5c0 -26 5 -46.333 15 -61s24 -22 42 -22c16 0 33.333 5.66699 52 17l18 -27
c-15.333 -14.667 -34.166 -26.667 -56.499 -36s-44.833 -14 -67.5 -14c-23.333 0 -44.833 6.33301 -64.5 19s-32.834 34.334 -39.501 65.001l-31 -21c-14 -9.33301 -30 -18.833 -48 -28.5s-37.333 -18.167 -58 -25.5s-40.334 -11 -59.001 -11c-22 0 -42 4 -60 12
s-33.5 18.833 -46.5 32.5s-23 29.334 -30 47.001s-10.5 36.5 -10.5 56.5c0 34 9.83301 63.167 29.5 87.5s45.5 43.166 77.5 56.499c23.333 9.33301 54.5 18.833 93.5 28.5s85.5 17.167 139.5 22.5zM390.001 113.997c0 28 0.333008 55.333 1 82s1 54 1 82
c-18 -2 -36.167 -4.5 -54.5 -7.5s-36.166 -6.83301 -53.499 -11.5s-33.666 -10.667 -48.999 -18s-28.333 -16 -39 -26c-16.667 -14.667 -25 -33.667 -25 -57c0 -28 7.16699 -51.667 21.5 -71s36.5 -29 66.5 -29c21.333 0 43.666 5 66.999 15s44.666 23.667 63.999 41z
M361.001 900.997l105 -9l5 -11l-155 -245l-35 6l-3 6z" />
    <glyph glyph-name="acircumflex" unicode="&#xe2;" horiz-adv-x="620" 
d="M392 323c0.666992 4.66699 1.00098 10.3311 1.00098 16.998v23v50c0 34 -8.16699 62.167 -24.5 84.5s-42.5 33.5 -78.5 33.5c-19.333 0 -35.833 -3.5 -49.5 -10.5s-25 -16.167 -34 -27.5s-15.667 -24.333 -20 -39s-6.5 -30 -6.5 -46
c-10.667 -8.66699 -25.334 -13 -44.001 -13c-15.333 0 -29.833 3.5 -43.5 10.5s-20.5 17.5 -20.5 31.5c0 10.667 4.16699 21.667 12.5 33s19.333 22.5 33 33.5s28.834 21.5 45.501 31.5s33.667 18.667 51 26c44.667 19.333 88.667 29 132 29
c21.333 0 41.333 -2.83301 60 -8.5s35 -14.667 49 -27s25 -28.166 33 -47.499s12 -42.333 12 -69c0 -40 -0.666992 -86.167 -2 -138.5s-2 -110.5 -2 -174.5c0 -26 5 -46.333 15 -61s24 -22 42 -22c16 0 33.333 5.66699 52 17l18 -27
c-15.333 -14.667 -34.166 -26.667 -56.499 -36s-44.833 -14 -67.5 -14c-23.333 0 -44.833 6.33301 -64.5 19s-32.834 34.334 -39.501 65.001l-31 -21c-14 -9.33301 -30 -18.833 -48 -28.5s-37.333 -18.167 -58 -25.5s-40.334 -11 -59.001 -11c-22 0 -42 4 -60 12
s-33.5 18.833 -46.5 32.5s-23 29.334 -30 47.001s-10.5 36.5 -10.5 56.5c0 34 9.83301 63.167 29.5 87.5s45.5 43.166 77.5 56.499c23.333 9.33301 54.5 18.833 93.5 28.5s85.5 17.167 139.5 22.5zM390.001 113.997c0 28 0.333008 55.333 1 82s1 54 1 82
c-18 -2 -36.167 -4.5 -54.5 -7.5s-36.166 -6.83301 -53.499 -11.5s-33.666 -10.667 -48.999 -18s-28.333 -16 -39 -26c-16.667 -14.667 -25 -33.667 -25 -57c0 -28 7.16699 -51.667 21.5 -71s36.5 -29 66.5 -29c21.333 0 43.666 5 66.999 15s44.666 23.667 63.999 41z
M158.001 635.997l-40 5l-4 6l154 248l82 6l148 -254l-4 -6l-40 -5l-148 178z" />
    <glyph glyph-name="atilde" unicode="&#xe3;" horiz-adv-x="620" 
d="M392 323c0.666992 4.66699 1.00098 10.3311 1.00098 16.998v23v50c0 34 -8.16699 62.167 -24.5 84.5s-42.5 33.5 -78.5 33.5c-19.333 0 -35.833 -3.5 -49.5 -10.5s-25 -16.167 -34 -27.5s-15.667 -24.333 -20 -39s-6.5 -30 -6.5 -46
c-10.667 -8.66699 -25.334 -13 -44.001 -13c-15.333 0 -29.833 3.5 -43.5 10.5s-20.5 17.5 -20.5 31.5c0 10.667 4.16699 21.667 12.5 33s19.333 22.5 33 33.5s28.834 21.5 45.501 31.5s33.667 18.667 51 26c44.667 19.333 88.667 29 132 29
c21.333 0 41.333 -2.83301 60 -8.5s35 -14.667 49 -27s25 -28.166 33 -47.499s12 -42.333 12 -69c0 -40 -0.666992 -86.167 -2 -138.5s-2 -110.5 -2 -174.5c0 -26 5 -46.333 15 -61s24 -22 42 -22c16 0 33.333 5.66699 52 17l18 -27
c-15.333 -14.667 -34.166 -26.667 -56.499 -36s-44.833 -14 -67.5 -14c-23.333 0 -44.833 6.33301 -64.5 19s-32.834 34.334 -39.501 65.001l-31 -21c-14 -9.33301 -30 -18.833 -48 -28.5s-37.333 -18.167 -58 -25.5s-40.334 -11 -59.001 -11c-22 0 -42 4 -60 12
s-33.5 18.833 -46.5 32.5s-23 29.334 -30 47.001s-10.5 36.5 -10.5 56.5c0 34 9.83301 63.167 29.5 87.5s45.5 43.166 77.5 56.499c23.333 9.33301 54.5 18.833 93.5 28.5s85.5 17.167 139.5 22.5zM390.001 113.997c0 28 0.333008 55.333 1 82s1 54 1 82
c-18 -2 -36.167 -4.5 -54.5 -7.5s-36.166 -6.83301 -53.499 -11.5s-33.666 -10.667 -48.999 -18s-28.333 -16 -39 -26c-16.667 -14.667 -25 -33.667 -25 -57c0 -28 7.16699 -51.667 21.5 -71s36.5 -29 66.5 -29c21.333 0 43.666 5 66.999 15s44.666 23.667 63.999 41z
M533.001 820.997c-7.33301 -16 -15.833 -31.502 -25.5 -46.502s-20.5 -28.167 -32.5 -39.5s-25 -20.333 -39 -27s-29.333 -10 -46 -10c-13.333 0 -26.166 2.66699 -38.499 8s-25.833 10.666 -40.5 15.999l-65 25.5c-13.333 5 -24.333 7.5 -33 7.5
c-19.333 0 -35.5 -5.5 -48.5 -16.5s-25.167 -24.833 -36.5 -41.5l-39 18c7.33301 16 15.833 31.5 25.5 46.5s20.5 28 32.5 39s25 19.833 39 26.5s29.333 10 46 10c13.333 0 26.166 -2.66699 38.499 -8s25.833 -10.666 40.5 -15.999l38 -15.5
c10.667 -4.33301 19.667 -7.66602 27 -9.99902s13.5 -4.16602 18.5 -5.49902s9.83301 -2 14.5 -2c19.333 0 35.5 5.66699 48.5 17s25.167 25.333 36.5 42z" />
    <glyph glyph-name="adieresis" unicode="&#xe4;" horiz-adv-x="620" 
d="M392 323c0.666992 4.66699 1.00098 10.3311 1.00098 16.998v23v50c0 34 -8.16699 62.167 -24.5 84.5s-42.5 33.5 -78.5 33.5c-19.333 0 -35.833 -3.5 -49.5 -10.5s-25 -16.167 -34 -27.5s-15.667 -24.333 -20 -39s-6.5 -30 -6.5 -46
c-10.667 -8.66699 -25.334 -13 -44.001 -13c-15.333 0 -29.833 3.5 -43.5 10.5s-20.5 17.5 -20.5 31.5c0 10.667 4.16699 21.667 12.5 33s19.333 22.5 33 33.5s28.834 21.5 45.501 31.5s33.667 18.667 51 26c44.667 19.333 88.667 29 132 29
c21.333 0 41.333 -2.83301 60 -8.5s35 -14.667 49 -27s25 -28.166 33 -47.499s12 -42.333 12 -69c0 -40 -0.666992 -86.167 -2 -138.5s-2 -110.5 -2 -174.5c0 -26 5 -46.333 15 -61s24 -22 42 -22c16 0 33.333 5.66699 52 17l18 -27
c-15.333 -14.667 -34.166 -26.667 -56.499 -36s-44.833 -14 -67.5 -14c-23.333 0 -44.833 6.33301 -64.5 19s-32.834 34.334 -39.501 65.001l-31 -21c-14 -9.33301 -30 -18.833 -48 -28.5s-37.333 -18.167 -58 -25.5s-40.334 -11 -59.001 -11c-22 0 -42 4 -60 12
s-33.5 18.833 -46.5 32.5s-23 29.334 -30 47.001s-10.5 36.5 -10.5 56.5c0 34 9.83301 63.167 29.5 87.5s45.5 43.166 77.5 56.499c23.333 9.33301 54.5 18.833 93.5 28.5s85.5 17.167 139.5 22.5zM390.001 113.997c0 28 0.333008 55.333 1 82s1 54 1 82
c-18 -2 -36.167 -4.5 -54.5 -7.5s-36.166 -6.83301 -53.499 -11.5s-33.666 -10.667 -48.999 -18s-28.333 -16 -39 -26c-16.667 -14.667 -25 -33.667 -25 -57c0 -28 7.16699 -51.667 21.5 -71s36.5 -29 66.5 -29c21.333 0 43.666 5 66.999 15s44.666 23.667 63.999 41z
M426.001 717.997c-18 0 -32.167 6.5 -42.5 19.5s-15.5 28.5 -15.5 46.5c0 18.667 5.16699 34.334 15.5 47.001s24.5 19 42.5 19c18.667 0 35.5 -6.33301 50.5 -19s22.5 -28.334 22.5 -47.001c0 -18 -7.66699 -33.5 -23 -46.5s-32 -19.5 -50 -19.5zM178.001 717.997
c-18 0 -33.334 6.50098 -46.001 19.501s-19 28.5 -19 46.5s6.33301 33.5 19 46.5s28 19.5 46 19.5c18.667 0 34.334 -6.33301 47.001 -19s19 -28.334 19 -47.001c0 -18 -6.5 -33.5 -19.5 -46.5s-28.5 -19.5 -46.5 -19.5z" />
    <glyph glyph-name="aring" unicode="&#xe5;" horiz-adv-x="620" 
d="M392 323c0.666992 4.66699 1.00098 10.3311 1.00098 16.998v23v50c0 34 -8.16699 62.167 -24.5 84.5s-42.5 33.5 -78.5 33.5c-19.333 0 -35.833 -3.5 -49.5 -10.5s-25 -16.167 -34 -27.5s-15.667 -24.333 -20 -39s-6.5 -30 -6.5 -46
c-10.667 -8.66699 -25.334 -13 -44.001 -13c-15.333 0 -29.833 3.5 -43.5 10.5s-20.5 17.5 -20.5 31.5c0 10.667 4.16699 21.667 12.5 33s19.333 22.5 33 33.5s28.834 21.5 45.501 31.5s33.667 18.667 51 26c44.667 19.333 88.667 29 132 29
c21.333 0 41.333 -2.83301 60 -8.5s35 -14.667 49 -27s25 -28.166 33 -47.499s12 -42.333 12 -69c0 -40 -0.666992 -86.167 -2 -138.5s-2 -110.5 -2 -174.5c0 -26 5 -46.333 15 -61s24 -22 42 -22c16 0 33.333 5.66699 52 17l18 -27
c-15.333 -14.667 -34.166 -26.667 -56.499 -36s-44.833 -14 -67.5 -14c-23.333 0 -44.833 6.33301 -64.5 19s-32.834 34.334 -39.501 65.001l-31 -21c-14 -9.33301 -30 -18.833 -48 -28.5s-37.333 -18.167 -58 -25.5s-40.334 -11 -59.001 -11c-22 0 -42 4 -60 12
s-33.5 18.833 -46.5 32.5s-23 29.334 -30 47.001s-10.5 36.5 -10.5 56.5c0 34 9.83301 63.167 29.5 87.5s45.5 43.166 77.5 56.499c23.333 9.33301 54.5 18.833 93.5 28.5s85.5 17.167 139.5 22.5zM390.001 113.997c0 28 0.333008 55.333 1 82s1 54 1 82
c-18 -2 -36.167 -4.5 -54.5 -7.5s-36.166 -6.83301 -53.499 -11.5s-33.666 -10.667 -48.999 -18s-28.333 -16 -39 -26c-16.667 -14.667 -25 -33.667 -25 -57c0 -28 7.16699 -51.667 21.5 -71s36.5 -29 66.5 -29c21.333 0 43.666 5 66.999 15s44.666 23.667 63.999 41z
M180.001 766.997c0 16.667 3.5 32.3301 10.5 46.9971s16.333 27.334 28 38.001s25 19 40 25s30.833 9 47.5 9c18 0 34.5 -3.16699 49.5 -9.5s27.667 -14.666 38 -24.999s18.333 -22.5 24 -36.5s8.5 -28.667 8.5 -44c0 -16.667 -3.16699 -32.167 -9.5 -46.5
s-15 -26.666 -26 -36.999s-23.667 -18.5 -38 -24.5s-29.833 -9 -46.5 -9c-18.667 0 -35.667 2.83301 -51 8.5s-28.5 13.667 -39.5 24s-19.667 22.333 -26 36s-9.5 28.5 -9.5 44.5zM376.001 766.993c0 22.667 -5.83301 42.668 -17.5 60.001s-29.167 26 -52.5 26
s-41 -7.83301 -53 -23.5s-18 -35.167 -18 -58.5c0 -24.667 6.5 -44.834 19.5 -60.501s30.167 -23.5 51.5 -23.5c23.333 0 40.833 7.5 52.5 22.5s17.5 34.167 17.5 57.5z" />
    <glyph glyph-name="ae" unicode="&#xe6;" horiz-adv-x="923" 
d="M878 108c-20.667 -27.333 -42.001 -49.332 -64.001 -65.999s-43.333 -29.5 -64 -38.5s-39.5 -15.167 -56.5 -18.5s-30.833 -5 -41.5 -5c-50.667 0 -94.834 10.167 -132.501 30.5s-68.5 48.5 -92.5 84.5c-40.667 -32.667 -80.667 -60 -120 -82s-77 -33 -113 -33
c-21.333 0 -40.666 4.16699 -57.999 12.5s-32.166 19.333 -44.499 33s-22 29.667 -29 48s-10.5 37.5 -10.5 57.5c0 34.667 9.5 64.167 28.5 88.5s44.5 42.5 76.5 54.5c23.333 9.33301 53.166 18.833 89.499 28.5s81.833 17.5 136.5 23.5
c0.666992 9.33301 1.16699 22.666 1.5 39.999s0.5 33 0.5 47c0 34 -8.16699 62.167 -24.5 84.5s-42.5 33.5 -78.5 33.5c-19.333 0 -35.833 -3.5 -49.5 -10.5s-24.834 -16.333 -33.501 -28s-15 -25 -19 -40s-6 -30.5 -6 -46.5c-13.333 -9.33301 -28 -14 -44 -14
s-30.667 3.66699 -44 11s-20 17.666 -20 30.999c0 11.333 3.66699 22.5 11 33.5s17 21.833 29 32.5s26 20.667 42 30s32.667 18.333 50 27c18.667 8.66699 41 16.334 67 23.001s49 10 69 10c30 0 57.5 -6.16699 82.5 -18.5s44.833 -30.833 59.5 -55.5
c28.667 26 59.5 44.833 92.5 56.5s63.5 17.5 91.5 17.5c23.333 0 46.666 -3.16699 69.999 -9.5s45.333 -16.166 66 -29.499c26 -18.667 46.667 -42.167 62 -70.5s23 -60.5 23 -96.5v-14c0 -6.66699 -0.333008 -11.334 -1 -14.001
c-1.33301 -9.33301 -4.33301 -15.833 -9 -19.5s-10.667 -6.16699 -18 -7.5l-365 -37c4 -40 12.833 -74 26.5 -102s30.334 -50.833 50.001 -68.5s41 -30.5 64 -38.5s45.5 -12 67.5 -12c26.667 0 52.334 4.5 77.001 13.5s50.334 26.5 77.001 52.5zM732.999 366.001
c11.333 1.33301 18.999 5.66797 22.999 13.001s6 16.333 6 27c0 40.667 -11.667 72.834 -35 96.501s-54 35.5 -92 35.5c-17.333 0 -34.666 -4.66699 -51.999 -14s-33 -22.833 -47 -40.5s-25.5 -38.834 -34.5 -63.501s-14.167 -52.334 -15.5 -83.001zM407.998 137.003
c-8 18.667 -13.833 40.168 -17.5 64.501s-6.16699 50.833 -7.5 79.5c-16.667 -2 -34 -4.5 -52 -7.5s-35.5 -7 -52.5 -12s-32.833 -11.167 -47.5 -18.5s-27 -16 -37 -26c-16 -16 -24 -35.667 -24 -59c0 -28 6.83301 -51.667 20.5 -71s35.5 -29 65.5 -29
c18 0 40.833 6.66699 68.5 20s55.5 32.666 83.5 57.999v1z" />
    <glyph glyph-name="ccedilla" unicode="&#xe7;" horiz-adv-x="584" 
d="M560 127c-18.667 -36.667 -44.8301 -66.834 -78.4971 -90.501s-69.834 -40.167 -108.501 -49.5c-11.333 -8 -19.5 -15.833 -24.5 -23.5s-7.5 -15.167 -7.5 -22.5c0 -9.33301 4 -17.666 12 -24.999s17 -16.333 27 -27c10.667 -11.333 21 -23.666 31 -36.999
s15 -25.666 15 -36.999c0 -12 -4.5 -26.667 -13.5 -44s-20.833 -34 -35.5 -50s-31.834 -29.5 -51.501 -40.5s-39.834 -16.5 -60.501 -16.5c-7.33301 0 -15 1.16699 -23 3.5s-15.5 5.83301 -22.5 10.5s-12.833 10.5 -17.5 17.5s-7 15.167 -7 24.5
c0 11.333 5.33301 22.333 16 33s21.667 17.667 33 21c10.667 -14.667 21.667 -26 33 -34s24.333 -12 39 -12c20 0 30 10.333 30 31c0 12 -4 23.167 -12 33.5s-17.333 20.833 -28 31.5c-11.333 11.333 -21.666 22.5 -30.999 33.5s-14 22.167 -14 33.5
c0 10.667 4.66699 23.334 14 38.001s26 31.667 50 51c-43.333 0 -82.333 7.66699 -117 23s-64.167 36 -88.5 62s-43 56.167 -56 90.5s-19.5 70.833 -19.5 109.5c0 46 9.16699 88.667 27.5 128s43 73.666 74 102.999s66.833 52.333 107.5 69s83.667 25 129 25
c22 0 44.167 -2 66.5 -6s44.166 -11.667 65.499 -23c9.33301 -4.66699 15.833 -10.834 19.5 -18.501s5.5 -15.167 5.5 -22.5c0 -12 -4.66699 -24.5 -14 -37.5s-24.666 -24.833 -45.999 -35.5h-5c-24.667 25.333 -48.334 44 -71.001 56s-49 18 -79 18
c-28 0 -52.5 -5.66699 -73.5 -17s-38.5 -26.333 -52.5 -45s-24.667 -40.167 -32 -64.5s-11 -49.5 -11 -75.5c0 -32.667 4.83301 -64 14.5 -94s23.5 -56.333 41.5 -79s40.167 -40.834 66.5 -54.501s56.5 -20.5 90.5 -20.5c32 0 62.667 6.66699 92 20s53 34 71 62z" />
    <glyph glyph-name="egrave" unicode="&#xe8;" horiz-adv-x="604" 
d="M559 111c-21.333 -28 -43.3301 -50.498 -65.9971 -67.498s-44.334 -30.167 -65.001 -39.5s-39.667 -15.666 -57 -18.999s-31 -5 -41 -5c-42 0 -80.333 8 -115 24s-64.334 37.5 -89.001 64.5s-43.834 58.667 -57.501 95s-20.5 74.833 -20.5 115.5
c0 44 8.16699 84.833 24.5 122.5s37.833 70.5 64.5 98.5s57.334 50 92.001 66s70.667 24 108 24c30 0 58.667 -4.83301 86 -14.5s51.166 -23.5 71.499 -41.5s36.666 -39.667 48.999 -65s18.5 -53.666 18.5 -84.999v-14c0 -8.66699 -0.333008 -13.334 -1 -14.001
c-3.33301 -18 -12.666 -27 -27.999 -27h-378c0.666992 -46 7.66699 -85.333 21 -118s30.5 -59.334 51.5 -80.001s44.5 -35.834 70.5 -45.501s51.667 -14.5 77 -14.5c27.333 0 53.333 4.66699 78 14s50.667 27.666 78 54.999zM411.003 374.002
c13.333 0 22.001 2.5 26.001 7.5s6 13.5 6 25.5c0 18 -3.16699 35 -9.5 51s-15.333 30 -27 42s-26 21.333 -43 28s-35.833 10 -56.5 10c-16 0 -31.833 -3.66699 -47.5 -11s-30.334 -18 -44.001 -32s-25.5 -31.167 -35.5 -51.5s-17 -43.5 -21 -69.5h252zM359.004 648.002
l-3 -6l-35 -6l-155 245l5 11l105 9z" />
    <glyph glyph-name="eacute" unicode="&#xe9;" horiz-adv-x="604" 
d="M559 111c-21.333 -28 -43.3301 -50.498 -65.9971 -67.498s-44.334 -30.167 -65.001 -39.5s-39.667 -15.666 -57 -18.999s-31 -5 -41 -5c-42 0 -80.333 8 -115 24s-64.334 37.5 -89.001 64.5s-43.834 58.667 -57.501 95s-20.5 74.833 -20.5 115.5
c0 44 8.16699 84.833 24.5 122.5s37.833 70.5 64.5 98.5s57.334 50 92.001 66s70.667 24 108 24c30 0 58.667 -4.83301 86 -14.5s51.166 -23.5 71.499 -41.5s36.666 -39.667 48.999 -65s18.5 -53.666 18.5 -84.999v-14c0 -8.66699 -0.333008 -13.334 -1 -14.001
c-3.33301 -18 -12.666 -27 -27.999 -27h-378c0.666992 -46 7.66699 -85.333 21 -118s30.5 -59.334 51.5 -80.001s44.5 -35.834 70.5 -45.501s51.667 -14.5 77 -14.5c27.333 0 53.333 4.66699 78 14s50.667 27.666 78 54.999zM411.003 374.002
c13.333 0 22.001 2.5 26.001 7.5s6 13.5 6 25.5c0 18 -3.16699 35 -9.5 51s-15.333 30 -27 42s-26 21.333 -43 28s-35.833 10 -56.5 10c-16 0 -31.833 -3.66699 -47.5 -11s-30.334 -18 -44.001 -32s-25.5 -31.167 -35.5 -51.5s-17 -43.5 -21 -69.5h252zM386.004 901.002
l105 -9l5 -11l-155 -245l-35 6l-3 6z" />
    <glyph glyph-name="ecircumflex" unicode="&#xea;" horiz-adv-x="604" 
d="M559 111c-21.333 -28 -43.3301 -50.498 -65.9971 -67.498s-44.334 -30.167 -65.001 -39.5s-39.667 -15.666 -57 -18.999s-31 -5 -41 -5c-42 0 -80.333 8 -115 24s-64.334 37.5 -89.001 64.5s-43.834 58.667 -57.501 95s-20.5 74.833 -20.5 115.5
c0 44 8.16699 84.833 24.5 122.5s37.833 70.5 64.5 98.5s57.334 50 92.001 66s70.667 24 108 24c30 0 58.667 -4.83301 86 -14.5s51.166 -23.5 71.499 -41.5s36.666 -39.667 48.999 -65s18.5 -53.666 18.5 -84.999v-14c0 -8.66699 -0.333008 -13.334 -1 -14.001
c-3.33301 -18 -12.666 -27 -27.999 -27h-378c0.666992 -46 7.66699 -85.333 21 -118s30.5 -59.334 51.5 -80.001s44.5 -35.834 70.5 -45.501s51.667 -14.5 77 -14.5c27.333 0 53.333 4.66699 78 14s50.667 27.666 78 54.999zM411.003 374.002
c13.333 0 22.001 2.5 26.001 7.5s6 13.5 6 25.5c0 18 -3.16699 35 -9.5 51s-15.333 30 -27 42s-26 21.333 -43 28s-35.833 10 -56.5 10c-16 0 -31.833 -3.66699 -47.5 -11s-30.334 -18 -44.001 -32s-25.5 -31.167 -35.5 -51.5s-17 -43.5 -21 -69.5h252zM183.004 636.002
l-40 5l-4 6l154 248l82 6l148 -254l-4 -6l-40 -5l-148 178z" />
    <glyph glyph-name="edieresis" unicode="&#xeb;" horiz-adv-x="604" 
d="M559 111c-21.333 -28 -43.3301 -50.498 -65.9971 -67.498s-44.334 -30.167 -65.001 -39.5s-39.667 -15.666 -57 -18.999s-31 -5 -41 -5c-42 0 -80.333 8 -115 24s-64.334 37.5 -89.001 64.5s-43.834 58.667 -57.501 95s-20.5 74.833 -20.5 115.5
c0 44 8.16699 84.833 24.5 122.5s37.833 70.5 64.5 98.5s57.334 50 92.001 66s70.667 24 108 24c30 0 58.667 -4.83301 86 -14.5s51.166 -23.5 71.499 -41.5s36.666 -39.667 48.999 -65s18.5 -53.666 18.5 -84.999v-14c0 -8.66699 -0.333008 -13.334 -1 -14.001
c-3.33301 -18 -12.666 -27 -27.999 -27h-378c0.666992 -46 7.66699 -85.333 21 -118s30.5 -59.334 51.5 -80.001s44.5 -35.834 70.5 -45.501s51.667 -14.5 77 -14.5c27.333 0 53.333 4.66699 78 14s50.667 27.666 78 54.999zM411.003 374.002
c13.333 0 22.001 2.5 26.001 7.5s6 13.5 6 25.5c0 18 -3.16699 35 -9.5 51s-15.333 30 -27 42s-26 21.333 -43 28s-35.833 10 -56.5 10c-16 0 -31.833 -3.66699 -47.5 -11s-30.334 -18 -44.001 -32s-25.5 -31.167 -35.5 -51.5s-17 -43.5 -21 -69.5h252zM458.004 718.002
c-18 0 -33.334 6.5 -46.001 19.5s-19 28.5 -19 46.5c0 18.667 6.33301 34.334 19 47.001s28 19 46 19c18.667 0 34.334 -6.33301 47.001 -19s19 -28.334 19 -47.001c0 -18 -6.5 -33.5 -19.5 -46.5s-28.5 -19.5 -46.5 -19.5zM203.003 718.002
c-18 0 -33.334 6.50098 -46.001 19.501s-19 28.5 -19 46.5s6.33301 33.5 19 46.5s28 19.5 46 19.5c18.667 0 34.334 -6.33301 47.001 -19s19 -28.334 19 -47.001c0 -18 -6.5 -33.5 -19.5 -46.5s-28.5 -19.5 -46.5 -19.5z" />
    <glyph glyph-name="igrave" unicode="&#xec;" horiz-adv-x="375" 
d="M355 0c-21.333 0 -46.9971 0.332031 -76.9971 0.999023s-61 1 -93 1c-26 0 -51.333 -0.333008 -76 -1s-46.334 -1 -65.001 -1l-2 32c22 2 39.5 4.83301 52.5 8.5s23.167 9.83398 30.5 18.501s12.166 20.5 14.499 35.5s3.5 35.167 3.5 60.5v263
c0 18.667 -1 33.334 -3 44.001s-6.16699 19 -12.5 25s-15.666 10.667 -27.999 14s-28.5 6.66602 -48.5 9.99902l-3 29l62.5 12.5c21 4.33301 40.667 8.83301 59 13.5s34.666 9 48.999 13s25.166 7.66699 32.499 11l10 -8c-2 -16.667 -3.66699 -34.334 -5 -53.001
s-2.33301 -37.167 -3 -55.5s-1.16699 -35.666 -1.5 -51.999s-0.5 -30.5 -0.5 -42.5v-265c0 -16 1 -28.833 3 -38.5s6.5 -17.167 13.5 -22.5s17.5 -9 31.5 -11s33.333 -3.66699 58 -5zM218.003 647.999l-3 -6l-35 -6l-155 245l5 11l105 9z" />
    <glyph glyph-name="iacute" unicode="&#xed;" horiz-adv-x="375" 
d="M355 0c-21.333 0 -46.9971 0.332031 -76.9971 0.999023s-61 1 -93 1c-26 0 -51.333 -0.333008 -76 -1s-46.334 -1 -65.001 -1l-2 32c22 2 39.5 4.83301 52.5 8.5s23.167 9.83398 30.5 18.501s12.166 20.5 14.499 35.5s3.5 35.167 3.5 60.5v263
c0 18.667 -1 33.334 -3 44.001s-6.16699 19 -12.5 25s-15.666 10.667 -27.999 14s-28.5 6.66602 -48.5 9.99902l-3 29l62.5 12.5c21 4.33301 40.667 8.83301 59 13.5s34.666 9 48.999 13s25.166 7.66699 32.499 11l10 -8c-2 -16.667 -3.66699 -34.334 -5 -53.001
s-2.33301 -37.167 -3 -55.5s-1.16699 -35.666 -1.5 -51.999s-0.5 -30.5 -0.5 -42.5v-265c0 -16 1 -28.833 3 -38.5s6.5 -17.167 13.5 -22.5s17.5 -9 31.5 -11s33.333 -3.66699 58 -5zM245.003 900.999l105 -9l5 -11l-155 -245l-35 6l-3 6z" />
    <glyph glyph-name="icircumflex" unicode="&#xee;" horiz-adv-x="375" 
d="M355 0c-21.333 0 -46.9971 0.332031 -76.9971 0.999023s-61 1 -93 1c-26 0 -51.333 -0.333008 -76 -1s-46.334 -1 -65.001 -1l-2 32c22 2 39.5 4.83301 52.5 8.5s23.167 9.83398 30.5 18.501s12.166 20.5 14.499 35.5s3.5 35.167 3.5 60.5v263
c0 18.667 -1 33.334 -3 44.001s-6.16699 19 -12.5 25s-15.666 10.667 -27.999 14s-28.5 6.66602 -48.5 9.99902l-3 29l62.5 12.5c21 4.33301 40.667 8.83301 59 13.5s34.666 9 48.999 13s25.166 7.66699 32.499 11l10 -8c-2 -16.667 -3.66699 -34.334 -5 -53.001
s-2.33301 -37.167 -3 -55.5s-1.16699 -35.666 -1.5 -51.999s-0.5 -30.5 -0.5 -42.5v-265c0 -16 1 -28.833 3 -38.5s6.5 -17.167 13.5 -22.5s17.5 -9 31.5 -11s33.333 -3.66699 58 -5zM42.0029 635.999l-40 5l-4 6l154 248l82 6l148 -254l-4 -6l-40 -5l-148 178z" />
    <glyph glyph-name="idieresis" unicode="&#xef;" horiz-adv-x="375" 
d="M355 0c-21.333 0 -46.9971 0.332031 -76.9971 0.999023s-61 1 -93 1c-26 0 -51.333 -0.333008 -76 -1s-46.334 -1 -65.001 -1l-2 32c22 2 39.5 4.83301 52.5 8.5s23.167 9.83398 30.5 18.501s12.166 20.5 14.499 35.5s3.5 35.167 3.5 60.5v263
c0 18.667 -1 33.334 -3 44.001s-6.16699 19 -12.5 25s-15.666 10.667 -27.999 14s-28.5 6.66602 -48.5 9.99902l-3 29l62.5 12.5c21 4.33301 40.667 8.83301 59 13.5s34.666 9 48.999 13s25.166 7.66699 32.499 11l10 -8c-2 -16.667 -3.66699 -34.334 -5 -53.001
s-2.33301 -37.167 -3 -55.5s-1.16699 -35.666 -1.5 -51.999s-0.5 -30.5 -0.5 -42.5v-265c0 -16 1 -28.833 3 -38.5s6.5 -17.167 13.5 -22.5s17.5 -9 31.5 -11s33.333 -3.66699 58 -5zM317.003 717.999c-18 0 -33.334 6.5 -46.001 19.5s-19 28.5 -19 46.5
c0 18.667 6.33301 34.334 19 47.001s28 19 46 19c18.667 0 34.334 -6.33301 47.001 -19s19 -28.334 19 -47.001c0 -18 -6.5 -33.5 -19.5 -46.5s-28.5 -19.5 -46.5 -19.5zM62.002 717.999c-18 0 -33.334 6.50098 -46.001 19.501s-19 28.5 -19 46.5s6.33301 33.5 19 46.5
s28 19.5 46 19.5c18.667 0 34.334 -6.33301 47.001 -19s19 -28.334 19 -47.001c0 -18 -6.5 -33.5 -19.5 -46.5s-28.5 -19.5 -46.5 -19.5z" />
    <glyph glyph-name="eth" unicode="&#xf0;" horiz-adv-x="700" 
d="M196 712l161.999 111.002c-16.667 18.667 -33.667 35.5 -51 50.5s-35.666 28.667 -54.999 41s-40.5 23.333 -63.5 33s-48.167 18.5 -75.5 26.5l13 40c32 -6 61.5 -13.333 88.5 -22s52.667 -18.834 77 -30.501s47.5 -25 69.5 -40s43.667 -31.5 65 -49.5l148 99l27 -50
l-132 -89c60.667 -66.667 105.667 -139.334 135 -218.001s44 -161.667 44 -249c0 -50 -6.83301 -98.167 -20.5 -144.5s-33.834 -87.333 -60.501 -123s-59.5 -64.167 -98.5 -85.5s-83.833 -32 -134.5 -32c-41.333 0 -79.333 7.66699 -114 23s-64.5 36.166 -89.5 62.499
s-44.667 57.5 -59 93.5s-21.5 75 -21.5 117c0 48.667 8.66699 92.334 26 131.001s40.5 71.5 69.5 98.5s62.833 47.833 101.5 62.5s79.334 22 122.001 22c44.667 0 89 -8 133 -24c-12 42 -26.333 79.667 -43 113s-39 67 -67 101l-163 -109zM527.999 359.002
c0 11.333 -0.5 25.332 -1.5 41.999s-2.5 30.667 -4.5 42c-25.333 30.667 -53.333 53.667 -84 69s-61 23 -91 23c-23.333 0 -45.5 -4.66699 -66.5 -14s-39.5 -23.666 -55.5 -42.999s-28.833 -43.5 -38.5 -72.5s-14.5 -63.167 -14.5 -102.5c0 -28 3.66699 -58 11 -90
s18.333 -61.5 33 -88.5s33.334 -49.333 56.001 -67s49 -26.5 79 -26.5c34.667 0 63.5 11.333 86.5 34s41.167 50.667 54.5 84s22.666 69 27.999 107s8 72.333 8 103z" />
    <glyph glyph-name="ntilde" unicode="&#xf1;" horiz-adv-x="778" 
d="M346 0c-21.333 0 -45.3359 0.337891 -72.0029 1.00488s-56 1 -88 1c-26 0 -51.833 -0.333008 -77.5 -1s-47.834 -1 -66.501 -1l-3 32c22.667 2 40.834 5 54.501 9s24.334 10.167 32.001 18.5s12.667 20 15 35s3.5 35.167 3.5 60.5v259c0 18.667 -1 33.334 -3 44.001
s-6.16699 19.167 -12.5 25.5s-15.666 11.166 -27.999 14.499s-28.5 6.66602 -48.5 9.99902l-3 28c16.667 3.33301 34.5 7.33301 53.5 12s37.5 9.5 55.5 14.5l50.5 14.5c15.667 4.66699 28.5 9 38.5 13l12 -8c-2 -14 -3.66699 -27.833 -5 -41.5s-2 -27.5 -2 -41.5
c36 28.667 74.167 51 114.5 67s78.833 24 115.5 24c24 0 46.5 -3.83301 67.5 -11.5s39.167 -19.834 54.5 -36.501s27.5 -37.834 36.5 -63.501s13.5 -56.834 13.5 -93.501v-271c0 -16 1 -28.833 3 -38.5s6.16699 -17.167 12.5 -22.5s15.833 -9 28.5 -11
s29.667 -3.66699 51 -5l-2 -37c-21.333 0 -44.833 0.333008 -70.5 1s-54.5 1 -86.5 1c-26 0 -50.833 -0.333008 -74.5 -1s-44.834 -1 -63.501 -1l-3 32c20.667 2 37.334 4.66699 50.001 8s22.334 8.83301 29.001 16.5s11 18.667 13 33s3 34.166 3 59.499v211
c0 53.333 -11.833 91.833 -35.5 115.5s-53.5 35.5 -89.5 35.5c-25.333 0 -52.333 -5.16699 -81 -15.5s-57.334 -24.833 -86.001 -43.5v-338c0 -16 0.833008 -28.833 2.5 -38.5s5.83398 -17.167 12.501 -22.5s16.5 -9 29.5 -11s30.5 -3.66699 52.5 -5zM602.997 821.005
c-7.33301 -16 -15.833 -31.502 -25.5 -46.502s-20.5 -28.167 -32.5 -39.5s-25 -20.333 -39 -27s-29.333 -10 -46 -10c-13.333 0 -26.166 2.66699 -38.499 8s-25.833 10.666 -40.5 15.999l-65 25.5c-13.333 5 -24.333 7.5 -33 7.5c-19.333 0 -35.5 -5.5 -48.5 -16.5
s-25.167 -24.833 -36.5 -41.5l-39 18c7.33301 16 15.833 31.5 25.5 46.5s20.5 28 32.5 39s25 19.833 39 26.5s29.333 10 46 10c13.333 0 26.166 -2.66699 38.499 -8s25.833 -10.666 40.5 -15.999l38 -15.5c10.667 -4.33301 19.667 -7.66602 27 -9.99902
s13.5 -4.16602 18.5 -5.49902s9.83301 -2 14.5 -2c19.333 0 35.5 5.66699 48.5 17s25.167 25.333 36.5 42z" />
    <glyph glyph-name="ograve" unicode="&#xf2;" horiz-adv-x="711" 
d="M54 279c0 42.667 7.83496 83 23.502 121s37 71 64 99s58.833 50.167 95.5 66.5s76 24.5 118 24.5c45.333 0 86.666 -7.83301 123.999 -23.5s69.166 -37 95.499 -64s46.666 -58.667 60.999 -95s21.5 -75.166 21.5 -116.499c0 -43.333 -7.83301 -83.833 -23.5 -121.5
s-37 -70.5 -64 -98.5s-59 -50.167 -96 -66.5s-76.5 -24.5 -118.5 -24.5c-45.333 0 -86.5 7.83301 -123.5 23.5s-68.667 37 -95 64s-46.666 58.667 -60.999 95s-21.5 75.166 -21.5 116.499zM368.002 29c29.333 0 54.5 6.99902 75.5 20.999s38.333 32 52 54
s23.667 46.667 30 74s9.5 54.666 9.5 81.999c0 32 -3.5 64.667 -10.5 98s-18.167 63.5 -33.5 90.5s-35.166 49.167 -59.499 66.5s-53.833 26 -88.5 26c-30 0 -55.5 -6.83301 -76.5 -20.5s-38.167 -31.5 -51.5 -53.5s-23.166 -46.667 -29.499 -74s-9.5 -54.666 -9.5 -81.999
c0 -30.667 3.66699 -62.667 11 -96s18.666 -63.666 33.999 -90.999s35.166 -50 59.499 -68s53.5 -27 87.5 -27zM376.002 647.999l-3 -6l-35 -6l-155 245l5 11l105 9z" />
    <glyph glyph-name="oacute" unicode="&#xf3;" horiz-adv-x="711" 
d="M54 279c0 42.667 7.83496 83 23.502 121s37 71 64 99s58.833 50.167 95.5 66.5s76 24.5 118 24.5c45.333 0 86.666 -7.83301 123.999 -23.5s69.166 -37 95.499 -64s46.666 -58.667 60.999 -95s21.5 -75.166 21.5 -116.499c0 -43.333 -7.83301 -83.833 -23.5 -121.5
s-37 -70.5 -64 -98.5s-59 -50.167 -96 -66.5s-76.5 -24.5 -118.5 -24.5c-45.333 0 -86.5 7.83301 -123.5 23.5s-68.667 37 -95 64s-46.666 58.667 -60.999 95s-21.5 75.166 -21.5 116.499zM368.002 29c29.333 0 54.5 6.99902 75.5 20.999s38.333 32 52 54
s23.667 46.667 30 74s9.5 54.666 9.5 81.999c0 32 -3.5 64.667 -10.5 98s-18.167 63.5 -33.5 90.5s-35.166 49.167 -59.499 66.5s-53.833 26 -88.5 26c-30 0 -55.5 -6.83301 -76.5 -20.5s-38.167 -31.5 -51.5 -53.5s-23.166 -46.667 -29.499 -74s-9.5 -54.666 -9.5 -81.999
c0 -30.667 3.66699 -62.667 11 -96s18.666 -63.666 33.999 -90.999s35.166 -50 59.499 -68s53.5 -27 87.5 -27zM403.002 900.999l105 -9l5 -11l-155 -245l-35 6l-3 6z" />
    <glyph glyph-name="ocircumflex" unicode="&#xf4;" horiz-adv-x="711" 
d="M54 279c0 42.667 7.83496 83 23.502 121s37 71 64 99s58.833 50.167 95.5 66.5s76 24.5 118 24.5c45.333 0 86.666 -7.83301 123.999 -23.5s69.166 -37 95.499 -64s46.666 -58.667 60.999 -95s21.5 -75.166 21.5 -116.499c0 -43.333 -7.83301 -83.833 -23.5 -121.5
s-37 -70.5 -64 -98.5s-59 -50.167 -96 -66.5s-76.5 -24.5 -118.5 -24.5c-45.333 0 -86.5 7.83301 -123.5 23.5s-68.667 37 -95 64s-46.666 58.667 -60.999 95s-21.5 75.166 -21.5 116.499zM368.002 29c29.333 0 54.5 6.99902 75.5 20.999s38.333 32 52 54
s23.667 46.667 30 74s9.5 54.666 9.5 81.999c0 32 -3.5 64.667 -10.5 98s-18.167 63.5 -33.5 90.5s-35.166 49.167 -59.499 66.5s-53.833 26 -88.5 26c-30 0 -55.5 -6.83301 -76.5 -20.5s-38.167 -31.5 -51.5 -53.5s-23.166 -46.667 -29.499 -74s-9.5 -54.666 -9.5 -81.999
c0 -30.667 3.66699 -62.667 11 -96s18.666 -63.666 33.999 -90.999s35.166 -50 59.499 -68s53.5 -27 87.5 -27zM200.002 635.999l-40 5l-4 6l154 248l82 6l148 -254l-4 -6l-40 -5l-148 178z" />
    <glyph glyph-name="otilde" unicode="&#xf5;" horiz-adv-x="711" 
d="M54 279c0 42.667 7.83496 83 23.502 121s37 71 64 99s58.833 50.167 95.5 66.5s76 24.5 118 24.5c45.333 0 86.666 -7.83301 123.999 -23.5s69.166 -37 95.499 -64s46.666 -58.667 60.999 -95s21.5 -75.166 21.5 -116.499c0 -43.333 -7.83301 -83.833 -23.5 -121.5
s-37 -70.5 -64 -98.5s-59 -50.167 -96 -66.5s-76.5 -24.5 -118.5 -24.5c-45.333 0 -86.5 7.83301 -123.5 23.5s-68.667 37 -95 64s-46.666 58.667 -60.999 95s-21.5 75.166 -21.5 116.499zM368.002 29c29.333 0 54.5 6.99902 75.5 20.999s38.333 32 52 54
s23.667 46.667 30 74s9.5 54.666 9.5 81.999c0 32 -3.5 64.667 -10.5 98s-18.167 63.5 -33.5 90.5s-35.166 49.167 -59.499 66.5s-53.833 26 -88.5 26c-30 0 -55.5 -6.83301 -76.5 -20.5s-38.167 -31.5 -51.5 -53.5s-23.166 -46.667 -29.499 -74s-9.5 -54.666 -9.5 -81.999
c0 -30.667 3.66699 -62.667 11 -96s18.666 -63.666 33.999 -90.999s35.166 -50 59.499 -68s53.5 -27 87.5 -27zM575.002 820.999c-7.33301 -16 -16.165 -31.502 -26.498 -46.502s-21.833 -28.167 -34.5 -39.5s-26.334 -20.333 -41.001 -27s-30.334 -10 -47.001 -10
c-13.333 0 -25.166 2.66699 -35.499 8s-22.833 10.666 -37.5 15.999l-65 25.5c-13.333 5 -24.333 7.5 -33 7.5c-19.333 0 -35.5 -5.5 -48.5 -16.5s-25.167 -24.833 -36.5 -41.5l-39 18c7.33301 16 15.833 31.5 25.5 46.5s20.5 28 32.5 39s25 19.833 39 26.5s29.333 10 46 10
c13.333 0 26.166 -2.66699 38.499 -8s25.833 -10.666 40.5 -15.999l38 -15.5c10.667 -4.33301 19.667 -7.66602 27 -9.99902s13.5 -4.16602 18.5 -5.49902s9.83301 -2 14.5 -2c19.333 0 35.5 5.66699 48.5 17s25.167 25.333 36.5 42z" />
    <glyph glyph-name="odieresis" unicode="&#xf6;" horiz-adv-x="711" 
d="M54 279c0 42.667 7.83496 83 23.502 121s37 71 64 99s58.833 50.167 95.5 66.5s76 24.5 118 24.5c45.333 0 86.666 -7.83301 123.999 -23.5s69.166 -37 95.499 -64s46.666 -58.667 60.999 -95s21.5 -75.166 21.5 -116.499c0 -43.333 -7.83301 -83.833 -23.5 -121.5
s-37 -70.5 -64 -98.5s-59 -50.167 -96 -66.5s-76.5 -24.5 -118.5 -24.5c-45.333 0 -86.5 7.83301 -123.5 23.5s-68.667 37 -95 64s-46.666 58.667 -60.999 95s-21.5 75.166 -21.5 116.499zM368.002 29c29.333 0 54.5 6.99902 75.5 20.999s38.333 32 52 54
s23.667 46.667 30 74s9.5 54.666 9.5 81.999c0 32 -3.5 64.667 -10.5 98s-18.167 63.5 -33.5 90.5s-35.166 49.167 -59.499 66.5s-53.833 26 -88.5 26c-30 0 -55.5 -6.83301 -76.5 -20.5s-38.167 -31.5 -51.5 -53.5s-23.166 -46.667 -29.499 -74s-9.5 -54.666 -9.5 -81.999
c0 -30.667 3.66699 -62.667 11 -96s18.666 -63.666 33.999 -90.999s35.166 -50 59.499 -68s53.5 -27 87.5 -27zM475.002 717.999c-18 0 -33.334 6.5 -46.001 19.5s-19 28.5 -19 46.5c0 18.667 6.33301 34.334 19 47.001s28 19 46 19c18.667 0 34.334 -6.33301 47.001 -19
s19 -28.334 19 -47.001c0 -18 -6.5 -33.5 -19.5 -46.5s-28.5 -19.5 -46.5 -19.5zM220.001 717.999c-18 0 -33.334 6.50098 -46.001 19.501s-19 28.5 -19 46.5s6.33301 33.5 19 46.5s28 19.5 46 19.5c18.667 0 34.334 -6.33301 47.001 -19s19 -28.334 19 -47.001
c0 -18 -6.5 -33.5 -19.5 -46.5s-28.5 -19.5 -46.5 -19.5z" />
    <glyph glyph-name="divide" unicode="&#xf7;" horiz-adv-x="680" 
d="M60 362l5 66h555l-5 -66h-555zM271 587c0 18.667 6.66699 34.667 20 48s29.333 20 48 20c19.333 0 35.666 -6.66699 48.999 -20s20 -29.333 20 -48c0 -19.333 -6.66699 -35.666 -20 -48.999s-29.666 -20 -48.999 -20c-18.667 0 -34.667 6.66699 -48 20
s-20 29.666 -20 48.999zM271 204c0 18.667 6.66699 34.667 20 48s29.333 20 48 20c19.333 0 35.666 -6.66699 48.999 -20s20 -29.333 20 -48c0 -19.333 -6.66699 -35.666 -20 -48.999s-29.666 -20 -48.999 -20c-18.667 0 -34.667 6.66699 -48 20s-20 29.666 -20 48.999z" />
    <glyph glyph-name="oslash" unicode="&#xf8;" horiz-adv-x="711" 
d="M48 279c0 42.667 7.83301 83.001 23.5 121.001s37 71 64 99s58.833 50.167 95.5 66.5s76 24.5 118 24.5c30 0 58 -3.33301 84 -10s50 -16.334 72 -29.001l50 70l41 -26l-51 -72c34 -28 60.167 -62 78.5 -102s27.5 -83.333 27.5 -130
c0 -43.333 -7.83301 -83.833 -23.5 -121.5s-37 -70.5 -64 -98.5s-59 -50.167 -96 -66.5s-76.5 -24.5 -118.5 -24.5c-60 0 -112.667 13.667 -158 41l-50 -71l-38 31l48 68c-32.667 28 -58 61.667 -76 101s-27 82.333 -27 129zM362 29.001c30 0 55.834 7.00098 77.501 21.001
s39.5 32 53.5 54s24.167 46.667 30.5 74s9.5 54.666 9.5 81.999c0 32 -3.33301 63.833 -10 95.5s-17.667 61.5 -33 89.5l-252 -358c15.333 -17.333 33.166 -31.333 53.499 -42s43.833 -16 70.5 -16zM166.001 311.002c0 -30 3.33301 -60.6689 10 -92.002
s17.334 -61 32.001 -89l252 357c-15.333 16.667 -33.166 29.834 -53.499 39.501s-43.5 14.5 -69.5 14.5c-30.667 0 -56.834 -6.83301 -78.501 -20.5s-39.334 -31.5 -53.001 -53.5s-23.667 -46.667 -30 -74s-9.5 -54.666 -9.5 -81.999z" />
    </font>
</defs>
</svg>
